<svg width="120" height="100" viewBox="0 0 120 100" fill="none" xmlns="http://www.w3.org/2000/svg">
<path d="M55.997 96.5979C55.8477 96.4853 55.7147 96.3523 55.6021 96.2031L56.0051 96.0359L55.8136 95.5741C55.7406 95.3979 55.7 95.2043 55.7 95V93.4484V92.9484H55.2V90.845H55.7V90.345V87.2416V86.7416H55.2V84.6383H55.7V84.1383V81.0349V80.5349H55.2V78.4315H55.7V77.9315V74.8282V74.3282H55.2V72.2248H55.7V71.7248V68.6214V68.1214H55.2V66.0181H55.7V65.5181V62.4147V61.9147H55.2V59.8113H55.7V59.3113V56.208V55.708H55.2V53.6046H55.7V53.1046V50.0012V49.5012H55.2V47.3979H55.7V46.8979V45.3462C55.7 45.1419 55.7406 44.9483 55.8136 44.7721L56.0051 44.3103L55.6021 44.1432C55.7147 43.9939 55.8477 43.8609 55.997 43.7483L56.1641 44.1513L56.6259 43.9598C56.8021 43.8868 56.9957 43.8462 57.2 43.8462H58.6667H59.1667V43.3462H61.1V43.8462H61.6H64.5333H65.0333V43.3462H66.9667V43.8462H67.4667H70.4H70.9V43.3462H72.8333V43.8462H73.3333H74.8C75.0043 43.8462 75.1979 43.8868 75.374 43.9598L75.8359 44.1513L76.003 43.7483C76.1523 43.8609 76.2853 43.9939 76.3979 44.1432L75.9948 44.3103L76.1864 44.7721C76.2594 44.9483 76.3 45.1419 76.3 45.3462V46.8979V47.3979H76.8V49.5012H76.3V50.0012V53.1046V53.6046H76.8V55.708H76.3V56.208V59.3113V59.8113H76.8V61.9147H76.3V62.4147V65.5181V66.0181H76.8V68.1214H76.3V68.6214V71.7248V72.2248H76.8V74.3282H76.3V74.8282V77.9315V78.4315H76.8V80.5349H76.3V81.0349V84.1383V84.6383H76.8V86.7416H76.3V87.2416V90.345V90.845H76.8V92.9484H76.3V93.4484V95C76.3 95.2043 76.2594 95.3979 76.1864 95.5741L75.9948 96.0359L76.3979 96.2031C76.2853 96.3523 76.1523 96.4853 76.003 96.5979L75.8359 96.1949L75.374 96.3864C75.1979 96.4595 75.0043 96.5 74.8 96.5H73.3333H72.8333V97H70.9V96.5H70.4H67.4667H66.9667V97H65.0333V96.5H64.5333H61.6H61.1V97H59.1667V96.5H58.6667H57.2C56.9957 96.5 56.8021 96.4595 56.626 96.3864L56.1641 96.1949L55.997 96.5979Z" fill="#9DB5FF" fill-opacity="0.25" stroke="#9DB5FF" stroke-linecap="square" stroke-linejoin="round" stroke-dasharray="3 3"/>
<path d="M31.9969 84.6748C31.8476 84.5623 31.7147 84.4293 31.6021 84.28L32.0051 84.1129L31.8136 83.651C31.7405 83.4748 31.7 83.2813 31.7 83.077V80.4295V79.9295H31.2V75.6347H31.7V75.1347V69.8398V69.3398H31.2V65.0449H31.7V64.5449V59.25V58.75H31.2V54.4552H31.7V53.9552V51.3077C31.7 51.1034 31.7405 50.9099 31.8136 50.7337L32.0051 50.2718L31.6021 50.1047C31.7147 49.9554 31.8476 49.8224 31.9969 49.7099L32.164 50.1129L32.6259 49.9214C32.8021 49.8483 32.9956 49.8077 33.2 49.8077H36.3H36.8V49.3077H42V49.8077H42.5H48.6999H49.1999V49.3077H54.3999V49.8077H54.8999H57.9999C58.2043 49.8077 58.3978 49.8483 58.574 49.9214L59.0359 50.1129L59.203 49.7099C59.3523 49.8224 59.4852 49.9554 59.5978 50.1047L59.1948 50.2718L59.3863 50.7337C59.4594 50.9099 59.5 51.1034 59.5 51.3077V53.9552V54.4552H60V58.75H59.5V59.25V64.5449V65.0449H60V69.3398H59.5V69.8398V75.1347V75.6347H60V79.9295H59.5V80.4295V83.077C59.5 83.2813 59.4594 83.4749 59.3863 83.651L59.1948 84.1129L59.5978 84.28C59.4853 84.4293 59.3523 84.5623 59.203 84.6748L59.0359 84.2718L58.574 84.4633C58.3978 84.5364 58.2043 84.577 58 84.577H54.9H54.4V85.077H49.2V84.577H48.7H42.5H42V85.077H36.8V84.577H36.3H33.2C32.9956 84.577 32.8021 84.5364 32.6259 84.4633L32.164 84.2718L31.9969 84.6748Z" fill="#A3E6CD" fill-opacity="0.25" stroke="#A3E6CD" stroke-linecap="square" stroke-linejoin="round" stroke-dasharray="5 5"/>
<path d="M72.797 87.0594C72.6477 86.9469 72.5147 86.8139 72.4021 86.6646L72.8052 86.4975L72.6136 86.0356C72.5406 85.8594 72.5 85.6659 72.5 85.4616V83.1779V82.6779H72V79.1106H72.5V78.6106V74.0433V73.5433H72V69.976H72.5V69.476V64.9087V64.4087H72V60.8414H72.5V60.3414V55.7741V55.2741H72V51.7068H72.5V51.2068V48.9231C72.5 48.7188 72.5406 48.5252 72.6136 48.349L72.8052 47.8872L72.4021 47.7201C72.5147 47.5708 72.6477 47.4378 72.797 47.3252L72.9641 47.7282L73.426 47.5367C73.6021 47.4637 73.7957 47.4231 74 47.4231H76.6H77.1V46.9231H81.3V47.4231H81.8H84.4C84.6043 47.4231 84.7979 47.4637 84.974 47.5367L85.4359 47.7282L85.603 47.3252C85.7523 47.4378 85.8853 47.5708 85.9979 47.7201L85.5948 47.8872L85.7864 48.349C85.8594 48.5252 85.9 48.7188 85.9 48.9231V51.2068V51.7068H86.4V55.2741H85.9V55.7741V60.3414V60.8414H86.4V64.4087H85.9V64.9087V69.476V69.976H86.4V73.5433H85.9V74.0433V78.6106V79.1106H86.4V82.6779H85.9V83.1779V85.4616C85.9 85.6659 85.8594 85.8594 85.7864 86.0356L85.5948 86.4975L85.9979 86.6646C85.8853 86.8139 85.7523 86.9469 85.603 87.0594L85.4359 86.6564L84.974 86.8479C84.7979 86.921 84.6043 86.9616 84.4 86.9616H81.8H81.3V87.4616H77.1V86.9616H76.6H74C73.7957 86.9616 73.6021 86.921 73.426 86.8479L72.9641 86.6564L72.797 87.0594Z" fill="#D6E0FF" fill-opacity="0.26" stroke="#D6E0FF" stroke-linecap="square" stroke-linejoin="round" stroke-dasharray="5 5"/>
<path opacity="0.8" d="M94.8206 40.9615H25.1794C24.4095 40.9615 23.656 41.1837 23.0093 41.6014L2.84909 54.6215C2.01161 55.1624 2.39466 56.4615 3.39161 56.4615H116.608C117.605 56.4615 117.988 55.1624 117.151 54.6215L96.9907 41.6014C96.344 41.1837 95.5905 40.9615 94.8206 40.9615Z" fill="#D6E0FF"/>
<path d="M55.2 6C55.2 4.89543 56.0955 4 57.2 4H74.8C75.9046 4 76.8 4.89543 76.8 6V46.9231H55.2V6Z" fill="#897AE3"/>
<path d="M31.2 17.9231C31.2 16.8185 32.0954 15.9231 33.2 15.9231H58C59.1046 15.9231 60 16.8185 60 17.9231V51.6923H31.2V17.9231Z" fill="#A3E6CD"/>
<path d="M72 15.5384C72 14.4339 72.8955 13.5385 74 13.5385H84.4C85.5046 13.5385 86.4 14.4339 86.4 15.5385V49.3077H72V15.5384Z" fill="#9DB5FF"/>
</svg>
