<svg width="525" height="108" viewBox="0 0 525 108" fill="none" xmlns="http://www.w3.org/2000/svg">
<path d="M172.638 70.2939H151.843V57.6201H171.5V51.314H151.843V39.3169H172.638V32.6108H143.907V77H172.638V70.2939ZM205 77L220.443 32.6108H211.891L200.632 68.479H200.448L189.189 32.6108H180.453L195.895 77H205ZM257.912 70.2939H237.117V57.6201H256.773V51.314H237.117V39.3169H257.912V32.6108H229.18V77H257.912V70.2939ZM276.739 39.04H285.537C290.551 39.04 293.658 41.9316 293.658 46.6074C293.658 51.4062 290.735 54.2056 285.69 54.2056H276.739V39.04ZM276.739 60.2964H285.321L294.058 77H303.102L293.412 59.0967C298.703 57.1895 301.779 52.2983 301.779 46.4229C301.779 37.9326 296.026 32.6108 286.429 32.6108H268.802V77H276.739V60.2964ZM351.029 58.4814V53.7441H332.572V59.8042H343.277L343.247 60.5425C343.124 66.7563 338.479 71.0015 331.772 71.0015C323.774 71.0015 318.791 64.7568 318.791 54.5439C318.791 44.5464 323.559 38.6094 331.557 38.6094C337.002 38.6094 341.124 41.624 342.631 46.7305H350.691C349.245 37.8403 341.616 31.8726 331.526 31.8726C318.699 31.8726 310.67 40.5474 310.67 54.6362C310.67 68.9404 318.729 77.7383 331.68 77.7383C343.831 77.7383 351.029 70.5093 351.029 58.4814ZM369.457 39.04H378.254C383.269 39.04 386.375 41.9316 386.375 46.6074C386.375 51.4062 383.453 54.2056 378.408 54.2056H369.457V39.04ZM369.457 60.2964H378.039L386.775 77H395.819L386.129 59.0967C391.42 57.1895 394.497 52.2983 394.497 46.4229C394.497 37.9326 388.744 32.6108 379.146 32.6108H361.52V77H369.457V60.2964ZM433.626 70.2939H412.832V57.6201H432.488V51.314H412.832V39.3169H433.626V32.6108H404.895V77H433.626V70.2939ZM473.249 70.2939H452.454V57.6201H472.11V51.314H452.454V39.3169H473.249V32.6108H444.517V77H473.249V70.2939ZM491.799 77V45.8691H492.076L514.132 77H520.961V32.6108H513.332V63.7109H513.055L491.03 32.6108H484.139V77H491.799Z" fill="#101840"/>
<path d="M54 108C83.8234 108 108 83.8234 108 54C108 24.1766 83.8234 0 54 0C24.1766 0 0 24.1766 0 54C0 83.8234 24.1766 108 54 108Z" fill="#52BD94"/>
<rect x="50.625" y="74.25" width="6.75" height="13.5" fill="white"/>
<path fill-rule="evenodd" clip-rule="evenodd" d="M54.0001 29.2852L34.4707 68.3439H73.5294L54.0001 29.2852Z" fill="white" stroke="white" stroke-width="6.75"/>
</svg>
