<svg width="132" height="24" viewBox="0 0 132 24" fill="none" xmlns="http://www.w3.org/2000/svg">
<path d="M33.2373 17H39.499V15.6807H34.7686V12.6113H39.2461V11.3398H34.7686V8.45508H39.499V7.13574H33.2373V17ZM46.4688 17H48.1572L51.6709 7.13574H50.0098L47.3711 15.1543H47.2549L44.6162 7.13574H42.9551L46.4688 17ZM55.3936 17H61.6553V15.6807H56.9248V12.6113H61.4023V11.3398H56.9248V8.45508H61.6553V7.13574H55.3936V17ZM65.8701 17H67.4014V13.2061H69.5615L71.5713 17H73.3418L71.127 12.9668C72.3301 12.5635 73.041 11.4834 73.041 10.1572V10.1436C73.041 8.31152 71.7832 7.13574 69.7598 7.13574H65.8701V17ZM67.4014 11.9619V8.4209H69.5615C70.7441 8.4209 71.4688 9.09082 71.4688 10.1846V10.1982C71.4688 11.3193 70.7852 11.9619 69.6094 11.9619H67.4014ZM81.3779 17.2393C83.9619 17.2393 85.6367 15.6191 85.6367 13.1172V11.8936H81.5898V13.1309H84.126V13.3496C84.1123 14.8672 83.0117 15.8857 81.3984 15.8857C79.5459 15.8857 78.3838 14.4229 78.3838 12.0645V12.0508C78.3838 9.72656 79.5391 8.25 81.3643 8.25C82.7178 8.25 83.6611 8.90625 84.0166 10.0752L84.0371 10.1436H85.5684L85.5547 10.0752C85.1992 8.16797 83.6064 6.89648 81.3643 6.89648C78.6025 6.89648 76.8184 8.92676 76.8184 12.0576V12.0713C76.8184 15.2432 78.582 17.2393 81.3779 17.2393ZM89.749 17H91.2803V13.2061H93.4404L95.4502 17H97.2207L95.0059 12.9668C96.209 12.5635 96.9199 11.4834 96.9199 10.1572V10.1436C96.9199 8.31152 95.6621 7.13574 93.6387 7.13574H89.749V17ZM91.2803 11.9619V8.4209H93.4404C94.623 8.4209 95.3477 9.09082 95.3477 10.1846V10.1982C95.3477 11.3193 94.6641 11.9619 93.4883 11.9619H91.2803ZM101.101 17H107.362V15.6807H102.632V12.6113H107.109V11.3398H102.632V8.45508H107.362V7.13574H101.101V17ZM111.577 17H117.839V15.6807H113.108V12.6113H117.586V11.3398H113.108V8.45508H117.839V7.13574H111.577V17ZM122.054 17H123.544V9.83594H123.653L128.719 17H130.1V7.13574H128.609V14.3135H128.507L123.435 7.13574H122.054V17Z" fill="#101840"/>
<path d="M12 24C18.6274 24 24 18.6274 24 12C24 5.37258 18.6274 0 12 0C5.37258 0 0 5.37258 0 12C0 18.6274 5.37258 24 12 24Z" fill="#52BD94"/>
<rect x="11.25" y="16.5" width="1.5" height="3" fill="white"/>
<path fill-rule="evenodd" clip-rule="evenodd" d="M12 5.25L17.25 15.75H6.75L12 5.25Z" fill="white"/>
<path fill-rule="evenodd" clip-rule="evenodd" d="M12 6.50781L7.66016 15.1875H16.3399L12 6.50781Z" stroke="white" stroke-width="1.5"/>
</svg>
