<svg width="670" height="610" viewBox="0 0 670 610" fill="none" xmlns="http://www.w3.org/2000/svg">
<g filter="url(#filter0_d_542_27282)">
<rect x="8" y="6" width="654" height="594" rx="4" fill="white"/>
<path d="M37.2227 47.2393C39.7041 47.2393 41.2148 45.7695 41.2148 43.6025V37.1357H39.6836V43.4863C39.6836 44.915 38.7949 45.8857 37.2227 45.8857C35.6504 45.8857 34.7549 44.915 34.7549 43.4863V37.1357H33.2236V43.6025C33.2236 45.7695 34.748 47.2393 37.2227 47.2393ZM43.5117 49.4746H44.9951V45.8242H45.1045C45.501 46.624 46.3691 47.123 47.3877 47.123C49.2744 47.123 50.4639 45.6465 50.4639 43.2949V43.2812C50.4639 40.9434 49.2607 39.4463 47.3877 39.4463C46.3486 39.4463 45.5352 39.9316 45.1045 40.7451H44.9951V39.5762H43.5117V49.4746ZM46.9707 45.8584C45.7334 45.8584 44.9678 44.8809 44.9678 43.2949V43.2812C44.9678 41.6953 45.7334 40.7178 46.9707 40.7178C48.208 40.7178 48.9531 41.6816 48.9531 43.2812V43.2949C48.9531 44.8877 48.208 45.8584 46.9707 45.8584ZM52.3164 47H53.7998V36.6641H52.3164V47ZM59.1523 47.1436C61.3262 47.1436 62.6592 45.6875 62.6592 43.2949V43.2812C62.6592 40.8887 61.3193 39.4326 59.1523 39.4326C56.9785 39.4326 55.6387 40.8955 55.6387 43.2812V43.2949C55.6387 45.6875 56.9717 47.1436 59.1523 47.1436ZM59.1523 45.9062C57.874 45.9062 57.1562 44.9424 57.1562 43.2949V43.2812C57.1562 41.6338 57.874 40.6699 59.1523 40.6699C60.4238 40.6699 61.1484 41.6338 61.1484 43.2812V43.2949C61.1484 44.9355 60.4238 45.9062 59.1523 45.9062ZM66.4668 47.123C67.4512 47.123 68.2305 46.6992 68.668 45.9473H68.7842V47H70.2539V41.9209C70.2539 40.3623 69.2012 39.4326 67.335 39.4326C65.6465 39.4326 64.4775 40.2461 64.2998 41.4629L64.293 41.5107H65.7217L65.7285 41.4834C65.9062 40.957 66.4463 40.6562 67.2666 40.6562C68.2715 40.6562 68.7842 41.1074 68.7842 41.9209V42.5771L66.7744 42.6934C65.0039 42.8027 64.0059 43.5752 64.0059 44.9014V44.915C64.0059 46.2617 65.0518 47.123 66.4668 47.123ZM65.4824 44.8535V44.8398C65.4824 44.1699 65.9473 43.8008 66.9727 43.7393L68.7842 43.623V44.2588C68.7842 45.2158 67.9707 45.9404 66.8633 45.9404C66.0635 45.9404 65.4824 45.5371 65.4824 44.8535ZM75.0527 47.123C76.0918 47.123 76.9053 46.6445 77.3359 45.8311H77.4521V47H78.9287V36.6641H77.4521V40.752H77.3359C76.9395 39.9521 76.0713 39.4463 75.0527 39.4463C73.166 39.4463 71.9766 40.9297 71.9766 43.2812V43.2949C71.9766 45.626 73.1865 47.123 75.0527 47.123ZM75.4766 45.8584C74.2324 45.8584 73.4873 44.8877 73.4873 43.2949V43.2812C73.4873 41.6885 74.2324 40.7178 75.4766 40.7178C76.707 40.7178 77.4727 41.6953 77.4727 43.2812V43.2949C77.4727 44.8809 76.7139 45.8584 75.4766 45.8584ZM85.1357 47H86.667V42.8711H90.9053V41.5791H86.667V38.4551H91.2949V37.1357H85.1357V47ZM93.8857 38.25C94.3916 38.25 94.8154 37.833 94.8154 37.3271C94.8154 36.8145 94.3916 36.3975 93.8857 36.3975C93.373 36.3975 92.9561 36.8145 92.9561 37.3271C92.9561 37.833 93.373 38.25 93.8857 38.25ZM93.1406 47H94.6172V39.5762H93.1406V47ZM96.8457 47H98.3291V36.6641H96.8457V47ZM103.654 47.1436C105.555 47.1436 106.58 46.0498 106.826 45.0723L106.84 45.0107L105.411 45.0176L105.384 45.0723C105.206 45.4551 104.639 45.9268 103.688 45.9268C102.465 45.9268 101.686 45.0996 101.658 43.6777H106.922V43.1582C106.922 40.9297 105.65 39.4326 103.579 39.4326C101.508 39.4326 100.168 40.9844 100.168 43.3018V43.3086C100.168 45.6602 101.48 47.1436 103.654 47.1436ZM103.586 40.6494C104.591 40.6494 105.336 41.292 105.452 42.6182H101.679C101.809 41.3398 102.574 40.6494 103.586 40.6494ZM111.386 47.1436C113.149 47.1436 114.462 46.207 114.462 44.833V44.8193C114.462 43.7461 113.778 43.1377 112.35 42.8027L111.174 42.5361C110.34 42.3379 109.998 42.0508 109.998 41.5859V41.5723C109.998 40.9775 110.586 40.5742 111.399 40.5742C112.233 40.5742 112.76 40.9639 112.903 41.4834V41.4971H114.318V41.4902C114.188 40.2803 113.102 39.4326 111.406 39.4326C109.725 39.4326 108.521 40.3623 108.521 41.6543V41.6611C108.521 42.748 109.171 43.3838 110.572 43.7051L111.755 43.9785C112.616 44.1768 112.965 44.4912 112.965 44.9561V44.9697C112.965 45.5781 112.329 45.9951 111.413 45.9951C110.531 45.9951 109.991 45.6191 109.807 45.0586L109.8 45.0518H108.316V45.0586C108.46 46.3027 109.595 47.1436 111.386 47.1436Z" fill="#474D66"/>
<path d="M35.4043 70H36.459V66.3613L39.459 61.5449H38.2578L35.9785 65.3008H35.8848L33.6055 61.5449H32.4043L35.4043 66.3613V70ZM42.4121 70.1113C44.2109 70.1113 45.3242 68.8691 45.3242 66.8477V66.8359C45.3242 64.8086 44.2109 63.5723 42.4121 63.5723C40.6133 63.5723 39.5 64.8086 39.5 66.8359V66.8477C39.5 68.8691 40.6133 70.1113 42.4121 70.1113ZM42.4121 69.209C41.2168 69.209 40.543 68.3359 40.543 66.8477V66.8359C40.543 65.3418 41.2168 64.4746 42.4121 64.4746C43.6074 64.4746 44.2812 65.3418 44.2812 66.8359V66.8477C44.2812 68.3359 43.6074 69.209 42.4121 69.209ZM49.0215 70.1113C49.9473 70.1113 50.5859 69.7305 50.8965 69.0566H50.9902V70H52.0098V63.6836H50.9902V67.4219C50.9902 68.5293 50.3984 69.209 49.2852 69.209C48.2773 69.209 47.8672 68.6641 47.8672 67.5273V63.6836H46.8477V67.7734C46.8477 69.2676 47.5859 70.1113 49.0215 70.1113ZM59.873 70.1113C61.3906 70.1113 62.2402 69.2969 62.498 68.1543L62.5098 68.0898L61.502 68.0957L61.4902 68.1309C61.2559 68.834 60.7168 69.209 59.8672 69.209C58.7422 69.209 58.0156 68.2773 58.0156 66.8242V66.8125C58.0156 65.3887 58.7305 64.4746 59.8672 64.4746C60.7754 64.4746 61.3379 64.9785 61.4961 65.5996L61.502 65.6172H62.5156L62.5098 65.582C62.3223 64.457 61.4023 63.5723 59.8672 63.5723C58.0977 63.5723 56.9727 64.8496 56.9727 66.8125V66.8242C56.9727 68.8281 58.1035 70.1113 59.873 70.1113ZM65.7383 70.1113C66.5879 70.1113 67.25 69.7422 67.6484 69.0684H67.7422V70H68.7617V65.6758C68.7617 64.3633 67.9004 63.5723 66.3594 63.5723C65.0117 63.5723 64.0508 64.2402 63.8867 65.2305L63.8809 65.2656H64.9004L64.9062 65.248C65.0703 64.7559 65.5684 64.4746 66.3242 64.4746C67.2676 64.4746 67.7422 64.8965 67.7422 65.6758V66.25L65.9316 66.3613C64.4609 66.4492 63.6289 67.0996 63.6289 68.2246V68.2363C63.6289 69.3848 64.5371 70.1113 65.7383 70.1113ZM64.6719 68.2129V68.2012C64.6719 67.5742 65.0938 67.2344 66.0547 67.1758L67.7422 67.0703V67.6445C67.7422 68.5469 66.9863 69.2266 65.9492 69.2266C65.2168 69.2266 64.6719 68.8516 64.6719 68.2129ZM70.625 70H71.6445V66.2617C71.6445 65.1543 72.2832 64.4746 73.291 64.4746C74.2988 64.4746 74.7676 65.0195 74.7676 66.1562V70H75.7871V65.9102C75.7871 64.4102 74.9961 63.5723 73.5781 63.5723C72.6465 63.5723 72.0547 63.9648 71.7383 64.6328H71.6445V63.6836H70.625V70ZM83.123 70.1113C84.0488 70.1113 84.6875 69.7305 84.998 69.0566H85.0918V70H86.1113V63.6836H85.0918V67.4219C85.0918 68.5293 84.5 69.209 83.3867 69.209C82.3789 69.209 81.9688 68.6641 81.9688 67.5273V63.6836H80.9492V67.7734C80.9492 69.2676 81.6875 70.1113 83.123 70.1113ZM88.0156 72.1094H89.0352V69.0039H89.1289C89.4746 69.6777 90.2305 70.1113 91.0977 70.1113C92.7031 70.1113 93.7461 68.8281 93.7461 66.8477V66.8359C93.7461 64.8672 92.6973 63.5723 91.0977 63.5723C90.2188 63.5723 89.5156 63.9883 89.1289 64.6914H89.0352V63.6836H88.0156V72.1094ZM90.8633 69.209C89.7148 69.209 89.0117 68.3066 89.0117 66.8477V66.8359C89.0117 65.377 89.7148 64.4746 90.8633 64.4746C92.0176 64.4746 92.7031 65.3652 92.7031 66.8359V66.8477C92.7031 68.3184 92.0176 69.209 90.8633 69.209ZM95.3984 70H96.418V61.1758H95.3984V70ZM100.971 70.1113C102.77 70.1113 103.883 68.8691 103.883 66.8477V66.8359C103.883 64.8086 102.77 63.5723 100.971 63.5723C99.1719 63.5723 98.0586 64.8086 98.0586 66.8359V66.8477C98.0586 68.8691 99.1719 70.1113 100.971 70.1113ZM100.971 69.209C99.7754 69.209 99.1016 68.3359 99.1016 66.8477V66.8359C99.1016 65.3418 99.7754 64.4746 100.971 64.4746C102.166 64.4746 102.84 65.3418 102.84 66.8359V66.8477C102.84 68.3359 102.166 69.209 100.971 69.209ZM107.199 70.1113C108.049 70.1113 108.711 69.7422 109.109 69.0684H109.203V70H110.223V65.6758C110.223 64.3633 109.361 63.5723 107.82 63.5723C106.473 63.5723 105.512 64.2402 105.348 65.2305L105.342 65.2656H106.361L106.367 65.248C106.531 64.7559 107.029 64.4746 107.785 64.4746C108.729 64.4746 109.203 64.8965 109.203 65.6758V66.25L107.393 66.3613C105.922 66.4492 105.09 67.0996 105.09 68.2246V68.2363C105.09 69.3848 105.998 70.1113 107.199 70.1113ZM106.133 68.2129V68.2012C106.133 67.5742 106.555 67.2344 107.516 67.1758L109.203 67.0703V67.6445C109.203 68.5469 108.447 69.2266 107.41 69.2266C106.678 69.2266 106.133 68.8516 106.133 68.2129ZM114.418 70.1113C115.297 70.1113 116 69.6953 116.387 68.9922H116.48V70H117.5V61.1758H116.48V64.6797H116.387C116.041 64.0059 115.285 63.5723 114.418 63.5723C112.812 63.5723 111.77 64.8555 111.77 66.8359V66.8477C111.77 68.8164 112.818 70.1113 114.418 70.1113ZM114.652 69.209C113.498 69.209 112.812 68.3184 112.812 66.8477V66.8359C112.812 65.3652 113.498 64.4746 114.652 64.4746C115.801 64.4746 116.504 65.377 116.504 66.8359V66.8477C116.504 68.3066 115.801 69.209 114.652 69.209ZM124.947 70.1113C125.873 70.1113 126.512 69.7305 126.822 69.0566H126.916V70H127.936V63.6836H126.916V67.4219C126.916 68.5293 126.324 69.209 125.211 69.209C124.203 69.209 123.793 68.6641 123.793 67.5273V63.6836H122.773V67.7734C122.773 69.2676 123.512 70.1113 124.947 70.1113ZM129.84 72.1094H130.859V69.0039H130.953C131.299 69.6777 132.055 70.1113 132.922 70.1113C134.527 70.1113 135.57 68.8281 135.57 66.8477V66.8359C135.57 64.8672 134.521 63.5723 132.922 63.5723C132.043 63.5723 131.34 63.9883 130.953 64.6914H130.859V63.6836H129.84V72.1094ZM132.688 69.209C131.539 69.209 130.836 68.3066 130.836 66.8477V66.8359C130.836 65.377 131.539 64.4746 132.688 64.4746C133.842 64.4746 134.527 65.3652 134.527 66.8359V66.8477C134.527 68.3184 133.842 69.209 132.688 69.209ZM142.783 70.0469C142.982 70.0469 143.176 70.0234 143.375 69.9883V69.1211C143.188 69.1387 143.088 69.1445 142.906 69.1445C142.25 69.1445 141.992 68.8457 141.992 68.1016V64.5273H143.375V63.6836H141.992V62.0488H140.938V63.6836H139.941V64.5273H140.938V68.3594C140.938 69.5664 141.482 70.0469 142.783 70.0469ZM147.4 70.1113C149.199 70.1113 150.312 68.8691 150.312 66.8477V66.8359C150.312 64.8086 149.199 63.5723 147.4 63.5723C145.602 63.5723 144.488 64.8086 144.488 66.8359V66.8477C144.488 68.8691 145.602 70.1113 147.4 70.1113ZM147.4 69.209C146.205 69.209 145.531 68.3359 145.531 66.8477V66.8359C145.531 65.3418 146.205 64.4746 147.4 64.4746C148.596 64.4746 149.27 65.3418 149.27 66.8359V66.8477C149.27 68.3359 148.596 69.209 147.4 69.209ZM155.264 70H160.736V69.0508H156.729V68.957L158.65 66.9707C160.18 65.3945 160.596 64.6914 160.596 63.7246V63.7129C160.596 62.3477 159.465 61.3457 157.988 61.3457C156.371 61.3457 155.211 62.4238 155.205 63.9238L155.217 63.9297L156.225 63.9355L156.23 63.9238C156.23 62.9277 156.904 62.2656 157.918 62.2656C158.914 62.2656 159.518 62.9336 159.518 63.8242V63.8359C159.518 64.5742 159.201 65.0137 158.123 66.1797L155.264 69.2734V70ZM166.309 70H167.328V64.5273H168.764V63.6836H167.328V63.0098C167.328 62.3184 167.621 61.9609 168.348 61.9609C168.529 61.9609 168.699 61.9668 168.822 61.9902V61.1758C168.611 61.1348 168.389 61.1172 168.143 61.1172C166.941 61.1172 166.309 61.7207 166.309 62.9805V63.6836H165.26V64.5273H166.309V70ZM170.773 62.4648C171.16 62.4648 171.477 62.1484 171.477 61.7617C171.477 61.375 171.16 61.0586 170.773 61.0586C170.387 61.0586 170.07 61.375 170.07 61.7617C170.07 62.1484 170.387 62.4648 170.773 62.4648ZM170.258 70H171.277V63.6836H170.258V70ZM173.258 70H174.277V61.1758H173.258V70ZM178.812 70.1113C180.301 70.1113 181.203 69.2676 181.42 68.4121L181.432 68.3652H180.412L180.389 68.418C180.219 68.7988 179.691 69.2031 178.836 69.2031C177.711 69.2031 176.99 68.4414 176.961 67.1348H181.508V66.7363C181.508 64.8496 180.465 63.5723 178.748 63.5723C177.031 63.5723 175.918 64.9082 175.918 66.8594V66.8652C175.918 68.8457 177.008 70.1113 178.812 70.1113ZM178.742 64.4805C179.674 64.4805 180.365 65.0723 180.471 66.3203H176.979C177.09 65.1191 177.805 64.4805 178.742 64.4805ZM185.258 70.1113C186.693 70.1113 187.789 69.332 187.789 68.207V68.1953C187.789 67.293 187.215 66.7773 186.025 66.4902L185.053 66.2559C184.309 66.0742 183.992 65.8047 183.992 65.377V65.3652C183.992 64.8086 184.543 64.4219 185.293 64.4219C186.055 64.4219 186.547 64.7676 186.682 65.2656H187.684C187.543 64.2344 186.623 63.5723 185.299 63.5723C183.957 63.5723 182.949 64.3633 182.949 65.4121V65.418C182.949 66.3262 183.482 66.8418 184.666 67.123L185.645 67.3574C186.424 67.5449 186.746 67.8438 186.746 68.2715V68.2832C186.746 68.8574 186.143 69.2617 185.293 69.2617C184.484 69.2617 183.98 68.916 183.811 68.3887H182.768C182.885 69.4316 183.852 70.1113 185.258 70.1113ZM190.203 70.0586C190.625 70.0586 190.965 69.7129 190.965 69.2969C190.965 68.875 190.625 68.5352 190.203 68.5352C189.787 68.5352 189.441 68.875 189.441 69.2969C189.441 69.7129 189.787 70.0586 190.203 70.0586ZM196.438 70H197.492V66.3379H201.236V65.4004H197.492V62.4941H201.57V61.5449H196.438V70ZM203.715 62.4648C204.102 62.4648 204.418 62.1484 204.418 61.7617C204.418 61.375 204.102 61.0586 203.715 61.0586C203.328 61.0586 203.012 61.375 203.012 61.7617C203.012 62.1484 203.328 62.4648 203.715 62.4648ZM203.199 70H204.219V63.6836H203.199V70ZM206.199 70H207.219V61.1758H206.199V70ZM211.754 70.1113C213.242 70.1113 214.145 69.2676 214.361 68.4121L214.373 68.3652H213.354L213.33 68.418C213.16 68.7988 212.633 69.2031 211.777 69.2031C210.652 69.2031 209.932 68.4414 209.902 67.1348H214.449V66.7363C214.449 64.8496 213.406 63.5723 211.689 63.5723C209.973 63.5723 208.859 64.9082 208.859 66.8594V66.8652C208.859 68.8457 209.949 70.1113 211.754 70.1113ZM211.684 64.4805C212.615 64.4805 213.307 65.0723 213.412 66.3203H209.92C210.031 65.1191 210.746 64.4805 211.684 64.4805ZM218.199 70.1113C219.635 70.1113 220.73 69.332 220.73 68.207V68.1953C220.73 67.293 220.156 66.7773 218.967 66.4902L217.994 66.2559C217.25 66.0742 216.934 65.8047 216.934 65.377V65.3652C216.934 64.8086 217.484 64.4219 218.234 64.4219C218.996 64.4219 219.488 64.7676 219.623 65.2656H220.625C220.484 64.2344 219.564 63.5723 218.24 63.5723C216.898 63.5723 215.891 64.3633 215.891 65.4121V65.418C215.891 66.3262 216.424 66.8418 217.607 67.123L218.586 67.3574C219.365 67.5449 219.688 67.8438 219.688 68.2715V68.2832C219.688 68.8574 219.084 69.2617 218.234 69.2617C217.426 69.2617 216.922 68.916 216.752 68.3887H215.709C215.826 69.4316 216.793 70.1113 218.199 70.1113ZM228.271 70.1113C229.789 70.1113 230.639 69.2969 230.896 68.1543L230.908 68.0898L229.9 68.0957L229.889 68.1309C229.654 68.834 229.115 69.209 228.266 69.209C227.141 69.209 226.414 68.2773 226.414 66.8242V66.8125C226.414 65.3887 227.129 64.4746 228.266 64.4746C229.174 64.4746 229.736 64.9785 229.895 65.5996L229.9 65.6172H230.914L230.908 65.582C230.721 64.457 229.801 63.5723 228.266 63.5723C226.496 63.5723 225.371 64.8496 225.371 66.8125V66.8242C225.371 68.8281 226.502 70.1113 228.271 70.1113ZM234.137 70.1113C234.986 70.1113 235.648 69.7422 236.047 69.0684H236.141V70H237.16V65.6758C237.16 64.3633 236.299 63.5723 234.758 63.5723C233.41 63.5723 232.449 64.2402 232.285 65.2305L232.279 65.2656H233.299L233.305 65.248C233.469 64.7559 233.967 64.4746 234.723 64.4746C235.666 64.4746 236.141 64.8965 236.141 65.6758V66.25L234.33 66.3613C232.859 66.4492 232.027 67.0996 232.027 68.2246V68.2363C232.027 69.3848 232.936 70.1113 234.137 70.1113ZM233.07 68.2129V68.2012C233.07 67.5742 233.492 67.2344 234.453 67.1758L236.141 67.0703V67.6445C236.141 68.5469 235.385 69.2266 234.348 69.2266C233.615 69.2266 233.07 68.8516 233.07 68.2129ZM239.023 70H240.043V66.2617C240.043 65.1543 240.682 64.4746 241.689 64.4746C242.697 64.4746 243.166 65.0195 243.166 66.1562V70H244.186V65.9102C244.186 64.4102 243.395 63.5723 241.977 63.5723C241.045 63.5723 240.453 63.9648 240.137 64.6328H240.043V63.6836H239.023V70ZM252.547 70.1113C254.146 70.1113 255.195 68.8164 255.195 66.8477V66.8359C255.195 64.8555 254.152 63.5723 252.547 63.5723C251.68 63.5723 250.924 64.0059 250.578 64.6797H250.484V61.1758H249.465V70H250.484V68.9922H250.578C250.965 69.6953 251.668 70.1113 252.547 70.1113ZM252.312 69.209C251.164 69.209 250.461 68.3066 250.461 66.8477V66.8359C250.461 65.377 251.164 64.4746 252.312 64.4746C253.467 64.4746 254.152 65.3652 254.152 66.8359V66.8477C254.152 68.3184 253.467 69.209 252.312 69.209ZM259.355 70.1113C260.844 70.1113 261.746 69.2676 261.963 68.4121L261.975 68.3652H260.955L260.932 68.418C260.762 68.7988 260.234 69.2031 259.379 69.2031C258.254 69.2031 257.533 68.4414 257.504 67.1348H262.051V66.7363C262.051 64.8496 261.008 63.5723 259.291 63.5723C257.574 63.5723 256.461 64.9082 256.461 66.8594V66.8652C256.461 68.8457 257.551 70.1113 259.355 70.1113ZM259.285 64.4805C260.217 64.4805 260.908 65.0723 261.014 66.3203H257.521C257.633 65.1191 258.348 64.4805 259.285 64.4805ZM269.123 70.1113C270.049 70.1113 270.688 69.7305 270.998 69.0566H271.092V70H272.111V63.6836H271.092V67.4219C271.092 68.5293 270.5 69.209 269.387 69.209C268.379 69.209 267.969 68.6641 267.969 67.5273V63.6836H266.949V67.7734C266.949 69.2676 267.688 70.1113 269.123 70.1113ZM274.016 72.1094H275.035V69.0039H275.129C275.475 69.6777 276.23 70.1113 277.098 70.1113C278.703 70.1113 279.746 68.8281 279.746 66.8477V66.8359C279.746 64.8672 278.697 63.5723 277.098 63.5723C276.219 63.5723 275.516 63.9883 275.129 64.6914H275.035V63.6836H274.016V72.1094ZM276.863 69.209C275.715 69.209 275.012 68.3066 275.012 66.8477V66.8359C275.012 65.377 275.715 64.4746 276.863 64.4746C278.018 64.4746 278.703 65.3652 278.703 66.8359V66.8477C278.703 68.3184 278.018 69.209 276.863 69.209ZM286.959 70.0469C287.158 70.0469 287.352 70.0234 287.551 69.9883V69.1211C287.363 69.1387 287.264 69.1445 287.082 69.1445C286.426 69.1445 286.168 68.8457 286.168 68.1016V64.5273H287.551V63.6836H286.168V62.0488H285.113V63.6836H284.117V64.5273H285.113V68.3594C285.113 69.5664 285.658 70.0469 286.959 70.0469ZM291.576 70.1113C293.375 70.1113 294.488 68.8691 294.488 66.8477V66.8359C294.488 64.8086 293.375 63.5723 291.576 63.5723C289.777 63.5723 288.664 64.8086 288.664 66.8359V66.8477C288.664 68.8691 289.777 70.1113 291.576 70.1113ZM291.576 69.209C290.381 69.209 289.707 68.3359 289.707 66.8477V66.8359C289.707 65.3418 290.381 64.4746 291.576 64.4746C292.771 64.4746 293.445 65.3418 293.445 66.8359V66.8477C293.445 68.3359 292.771 69.209 291.576 69.209ZM302.217 70.1992C303.934 70.1992 305.158 69.0098 305.158 67.3047V67.293C305.158 65.6582 304.016 64.4688 302.428 64.4688C301.66 64.4688 300.998 64.7793 300.623 65.3477H300.529L300.816 62.4883H304.689V61.5449H299.984L299.539 66.4023H300.453C300.559 66.2031 300.693 66.0391 300.84 65.8984C301.203 65.5527 301.684 65.3828 302.246 65.3828C303.342 65.3828 304.127 66.1855 304.127 67.3105V67.3223C304.127 68.4648 303.354 69.2676 302.229 69.2676C301.238 69.2676 300.506 68.623 300.406 67.8145L300.4 67.7676H299.387L299.393 67.832C299.516 69.1855 300.641 70.1992 302.217 70.1992ZM309.688 70.1992C311.557 70.1992 312.682 68.4941 312.682 65.7754V65.7637C312.682 63.0449 311.557 61.3457 309.688 61.3457C307.818 61.3457 306.705 63.0449 306.705 65.7637V65.7754C306.705 68.4941 307.818 70.1992 309.688 70.1992ZM309.688 69.2793C308.475 69.2793 307.766 67.9316 307.766 65.7754V65.7637C307.766 63.6074 308.475 62.2715 309.688 62.2715C310.9 62.2715 311.621 63.6074 311.621 65.7637V65.7754C311.621 67.9316 310.9 69.2793 309.688 69.2793ZM314.551 70H315.535V63.543H315.6L318.271 70H319.162L321.834 63.543H321.898V70H322.883V61.5449H321.658L318.764 68.5996H318.67L315.775 61.5449H314.551V70ZM325.039 70H328.338C330.137 70 331.203 69.1152 331.203 67.6328V67.6211C331.203 66.5078 330.471 65.7168 329.316 65.5703V65.4766C330.131 65.3301 330.775 64.5332 330.775 63.6602V63.6484C330.775 62.3594 329.826 61.5449 328.273 61.5449H325.039V70ZM328.051 62.4766C329.1 62.4766 329.709 62.9746 329.709 63.8301V63.8418C329.709 64.7324 329.059 65.1895 327.781 65.1895H326.094V62.4766H328.051ZM328.08 66.0977C329.428 66.0977 330.119 66.5957 330.119 67.5684V67.5801C330.119 68.5527 329.451 69.0684 328.18 69.0684H326.094V66.0977H328.08ZM333.629 70.0586C334.051 70.0586 334.391 69.7129 334.391 69.2969C334.391 68.875 334.051 68.5352 333.629 68.5352C333.213 68.5352 332.867 68.875 332.867 69.2969C332.867 69.7129 333.213 70.0586 333.629 70.0586ZM342.189 70H343.244V66.3613L346.244 61.5449H345.043L342.764 65.3008H342.67L340.391 61.5449H339.189L342.189 66.3613V70ZM349.197 70.1113C350.996 70.1113 352.109 68.8691 352.109 66.8477V66.8359C352.109 64.8086 350.996 63.5723 349.197 63.5723C347.398 63.5723 346.285 64.8086 346.285 66.8359V66.8477C346.285 68.8691 347.398 70.1113 349.197 70.1113ZM349.197 69.209C348.002 69.209 347.328 68.3359 347.328 66.8477V66.8359C347.328 65.3418 348.002 64.4746 349.197 64.4746C350.393 64.4746 351.066 65.3418 351.066 66.8359V66.8477C351.066 68.3359 350.393 69.209 349.197 69.209ZM355.807 70.1113C356.732 70.1113 357.371 69.7305 357.682 69.0566H357.775V70H358.795V63.6836H357.775V67.4219C357.775 68.5293 357.184 69.209 356.07 69.209C355.062 69.209 354.652 68.6641 354.652 67.5273V63.6836H353.633V67.7734C353.633 69.2676 354.371 70.1113 355.807 70.1113ZM366.658 70.1113C368.176 70.1113 369.025 69.2969 369.283 68.1543L369.295 68.0898L368.287 68.0957L368.275 68.1309C368.041 68.834 367.502 69.209 366.652 69.209C365.527 69.209 364.801 68.2773 364.801 66.8242V66.8125C364.801 65.3887 365.516 64.4746 366.652 64.4746C367.561 64.4746 368.123 64.9785 368.281 65.5996L368.287 65.6172H369.301L369.295 65.582C369.107 64.457 368.188 63.5723 366.652 63.5723C364.883 63.5723 363.758 64.8496 363.758 66.8125V66.8242C363.758 68.8281 364.889 70.1113 366.658 70.1113ZM372.523 70.1113C373.373 70.1113 374.035 69.7422 374.434 69.0684H374.527V70H375.547V65.6758C375.547 64.3633 374.686 63.5723 373.145 63.5723C371.797 63.5723 370.836 64.2402 370.672 65.2305L370.666 65.2656H371.686L371.691 65.248C371.855 64.7559 372.354 64.4746 373.109 64.4746C374.053 64.4746 374.527 64.8965 374.527 65.6758V66.25L372.717 66.3613C371.246 66.4492 370.414 67.0996 370.414 68.2246V68.2363C370.414 69.3848 371.322 70.1113 372.523 70.1113ZM371.457 68.2129V68.2012C371.457 67.5742 371.879 67.2344 372.84 67.1758L374.527 67.0703V67.6445C374.527 68.5469 373.771 69.2266 372.734 69.2266C372.002 69.2266 371.457 68.8516 371.457 68.2129ZM377.41 70H378.43V66.2617C378.43 65.1543 379.068 64.4746 380.076 64.4746C381.084 64.4746 381.553 65.0195 381.553 66.1562V70H382.572V65.9102C382.572 64.4102 381.781 63.5723 380.363 63.5723C379.432 63.5723 378.84 63.9648 378.523 64.6328H378.43V63.6836H377.41V70ZM389.908 70.1113C390.834 70.1113 391.473 69.7305 391.783 69.0566H391.877V70H392.896V63.6836H391.877V67.4219C391.877 68.5293 391.285 69.209 390.172 69.209C389.164 69.209 388.754 68.6641 388.754 67.5273V63.6836H387.734V67.7734C387.734 69.2676 388.473 70.1113 389.908 70.1113ZM394.801 72.1094H395.82V69.0039H395.914C396.26 69.6777 397.016 70.1113 397.883 70.1113C399.488 70.1113 400.531 68.8281 400.531 66.8477V66.8359C400.531 64.8672 399.482 63.5723 397.883 63.5723C397.004 63.5723 396.301 63.9883 395.914 64.6914H395.82V63.6836H394.801V72.1094ZM397.648 69.209C396.5 69.209 395.797 68.3066 395.797 66.8477V66.8359C395.797 65.377 396.5 64.4746 397.648 64.4746C398.803 64.4746 399.488 65.3652 399.488 66.8359V66.8477C399.488 68.3184 398.803 69.209 397.648 69.209ZM402.184 70H403.203V61.1758H402.184V70ZM407.756 70.1113C409.555 70.1113 410.668 68.8691 410.668 66.8477V66.8359C410.668 64.8086 409.555 63.5723 407.756 63.5723C405.957 63.5723 404.844 64.8086 404.844 66.8359V66.8477C404.844 68.8691 405.957 70.1113 407.756 70.1113ZM407.756 69.209C406.561 69.209 405.887 68.3359 405.887 66.8477V66.8359C405.887 65.3418 406.561 64.4746 407.756 64.4746C408.951 64.4746 409.625 65.3418 409.625 66.8359V66.8477C409.625 68.3359 408.951 69.209 407.756 69.209ZM413.984 70.1113C414.834 70.1113 415.496 69.7422 415.895 69.0684H415.988V70H417.008V65.6758C417.008 64.3633 416.146 63.5723 414.605 63.5723C413.258 63.5723 412.297 64.2402 412.133 65.2305L412.127 65.2656H413.146L413.152 65.248C413.316 64.7559 413.814 64.4746 414.57 64.4746C415.514 64.4746 415.988 64.8965 415.988 65.6758V66.25L414.178 66.3613C412.707 66.4492 411.875 67.0996 411.875 68.2246V68.2363C411.875 69.3848 412.783 70.1113 413.984 70.1113ZM412.918 68.2129V68.2012C412.918 67.5742 413.34 67.2344 414.301 67.1758L415.988 67.0703V67.6445C415.988 68.5469 415.232 69.2266 414.195 69.2266C413.463 69.2266 412.918 68.8516 412.918 68.2129ZM421.203 70.1113C422.082 70.1113 422.785 69.6953 423.172 68.9922H423.266V70H424.285V61.1758H423.266V64.6797H423.172C422.826 64.0059 422.07 63.5723 421.203 63.5723C419.598 63.5723 418.555 64.8555 418.555 66.8359V66.8477C418.555 68.8164 419.604 70.1113 421.203 70.1113ZM421.438 69.209C420.283 69.209 419.598 68.3184 419.598 66.8477V66.8359C419.598 65.3652 420.283 64.4746 421.438 64.4746C422.586 64.4746 423.289 65.377 423.289 66.8359V66.8477C423.289 68.3066 422.586 69.209 421.438 69.209ZM430.449 70.0586C430.871 70.0586 431.211 69.7129 431.211 69.2969C431.211 68.875 430.871 68.5352 430.449 68.5352C430.033 68.5352 429.688 68.875 429.688 69.2969C429.688 69.7129 430.033 70.0586 430.449 70.0586ZM433.707 62.4648C434.094 62.4648 434.41 62.1484 434.41 61.7617C434.41 61.375 434.094 61.0586 433.707 61.0586C433.32 61.0586 433.004 61.375 433.004 61.7617C433.004 62.1484 433.32 62.4648 433.707 62.4648ZM432.277 72.168C433.602 72.168 434.217 71.6113 434.217 70.3105V63.6836H433.197V70.3281C433.197 71.0254 432.939 71.2656 432.254 71.2656H432.102V72.168H432.277ZM436.145 72.1094H437.164V69.0039H437.258C437.604 69.6777 438.359 70.1113 439.227 70.1113C440.832 70.1113 441.875 68.8281 441.875 66.8477V66.8359C441.875 64.8672 440.826 63.5723 439.227 63.5723C438.348 63.5723 437.645 63.9883 437.258 64.6914H437.164V63.6836H436.145V72.1094ZM438.992 69.209C437.844 69.209 437.141 68.3066 437.141 66.8477V66.8359C437.141 65.377 437.844 64.4746 438.992 64.4746C440.146 64.4746 440.832 65.3652 440.832 66.8359V66.8477C440.832 68.3184 440.146 69.209 438.992 69.209ZM446.07 72.2266C447.793 72.2266 448.883 71.3242 448.883 69.9121V63.6836H447.863V64.7266H447.793C447.406 64.0117 446.715 63.5723 445.824 63.5723C444.172 63.5723 443.152 64.8555 443.152 66.625V66.6367C443.152 68.4062 444.166 69.6719 445.801 69.6719C446.668 69.6719 447.383 69.2793 447.781 68.582H447.875V69.8594C447.875 70.791 447.201 71.3242 446.07 71.3242C445.162 71.3242 444.6 70.9844 444.488 70.5039L444.482 70.498H443.428L443.416 70.5039C443.574 71.541 444.547 72.2266 446.07 72.2266ZM446.023 68.7695C444.852 68.7695 444.195 67.8906 444.195 66.6367V66.625C444.195 65.3711 444.852 64.4746 446.023 64.4746C447.189 64.4746 447.898 65.3711 447.898 66.625V66.6367C447.898 67.8906 447.195 68.7695 446.023 68.7695ZM455.891 70.1113C456.74 70.1113 457.402 69.7422 457.801 69.0684H457.895V70H458.914V65.6758C458.914 64.3633 458.053 63.5723 456.512 63.5723C455.164 63.5723 454.203 64.2402 454.039 65.2305L454.033 65.2656H455.053L455.059 65.248C455.223 64.7559 455.721 64.4746 456.477 64.4746C457.42 64.4746 457.895 64.8965 457.895 65.6758V66.25L456.084 66.3613C454.613 66.4492 453.781 67.0996 453.781 68.2246V68.2363C453.781 69.3848 454.689 70.1113 455.891 70.1113ZM454.824 68.2129V68.2012C454.824 67.5742 455.246 67.2344 456.207 67.1758L457.895 67.0703V67.6445C457.895 68.5469 457.139 69.2266 456.102 69.2266C455.369 69.2266 454.824 68.8516 454.824 68.2129ZM460.777 70H461.797V66.2617C461.797 65.1543 462.436 64.4746 463.443 64.4746C464.451 64.4746 464.92 65.0195 464.92 66.1562V70H465.939V65.9102C465.939 64.4102 465.148 63.5723 463.73 63.5723C462.799 63.5723 462.207 63.9648 461.891 64.6328H461.797V63.6836H460.777V70ZM470.117 70.1113C470.996 70.1113 471.699 69.6953 472.086 68.9922H472.18V70H473.199V61.1758H472.18V64.6797H472.086C471.74 64.0059 470.984 63.5723 470.117 63.5723C468.512 63.5723 467.469 64.8555 467.469 66.8359V66.8477C467.469 68.8164 468.518 70.1113 470.117 70.1113ZM470.352 69.209C469.197 69.209 468.512 68.3184 468.512 66.8477V66.8359C468.512 65.3652 469.197 64.4746 470.352 64.4746C471.5 64.4746 472.203 65.377 472.203 66.8359V66.8477C472.203 68.3066 471.5 69.209 470.352 69.209ZM479.363 70.0586C479.785 70.0586 480.125 69.7129 480.125 69.2969C480.125 68.875 479.785 68.5352 479.363 68.5352C478.947 68.5352 478.602 68.875 478.602 69.2969C478.602 69.7129 478.947 70.0586 479.363 70.0586ZM482.094 72.1094H483.113V69.0039H483.207C483.553 69.6777 484.309 70.1113 485.176 70.1113C486.781 70.1113 487.824 68.8281 487.824 66.8477V66.8359C487.824 64.8672 486.775 63.5723 485.176 63.5723C484.297 63.5723 483.594 63.9883 483.207 64.6914H483.113V63.6836H482.094V72.1094ZM484.941 69.209C483.793 69.209 483.09 68.3066 483.09 66.8477V66.8359C483.09 65.377 483.793 64.4746 484.941 64.4746C486.096 64.4746 486.781 65.3652 486.781 66.8359V66.8477C486.781 68.3184 486.096 69.209 484.941 69.209ZM491.75 70.1113C492.629 70.1113 493.332 69.6953 493.719 68.9922H493.812V70H494.832V61.1758H493.812V64.6797H493.719C493.373 64.0059 492.617 63.5723 491.75 63.5723C490.145 63.5723 489.102 64.8555 489.102 66.8359V66.8477C489.102 68.8164 490.15 70.1113 491.75 70.1113ZM491.984 69.209C490.83 69.209 490.145 68.3184 490.145 66.8477V66.8359C490.145 65.3652 490.83 64.4746 491.984 64.4746C493.133 64.4746 493.836 65.377 493.836 66.8359V66.8477C493.836 68.3066 493.133 69.209 491.984 69.209ZM497.211 70H498.23V64.5273H499.666V63.6836H498.23V63.0098C498.23 62.3184 498.523 61.9609 499.25 61.9609C499.432 61.9609 499.602 61.9668 499.725 61.9902V61.1758C499.514 61.1348 499.291 61.1172 499.045 61.1172C497.844 61.1172 497.211 61.7207 497.211 62.9805V63.6836H496.162V64.5273H497.211V70ZM504.934 70H505.953V64.5273H507.389V63.6836H505.953V63.0098C505.953 62.3184 506.246 61.9609 506.973 61.9609C507.154 61.9609 507.324 61.9668 507.447 61.9902V61.1758C507.236 61.1348 507.014 61.1172 506.768 61.1172C505.566 61.1172 504.934 61.7207 504.934 62.9805V63.6836H503.885V64.5273H504.934V70ZM509.398 62.4648C509.785 62.4648 510.102 62.1484 510.102 61.7617C510.102 61.375 509.785 61.0586 509.398 61.0586C509.012 61.0586 508.695 61.375 508.695 61.7617C508.695 62.1484 509.012 62.4648 509.398 62.4648ZM508.883 70H509.902V63.6836H508.883V70ZM511.883 70H512.902V61.1758H511.883V70ZM517.438 70.1113C518.926 70.1113 519.828 69.2676 520.045 68.4121L520.057 68.3652H519.037L519.014 68.418C518.844 68.7988 518.316 69.2031 517.461 69.2031C516.336 69.2031 515.615 68.4414 515.586 67.1348H520.133V66.7363C520.133 64.8496 519.09 63.5723 517.373 63.5723C515.656 63.5723 514.543 64.9082 514.543 66.8594V66.8652C514.543 68.8457 515.633 70.1113 517.438 70.1113ZM517.367 64.4805C518.299 64.4805 518.99 65.0723 519.096 66.3203H515.604C515.715 65.1191 516.43 64.4805 517.367 64.4805ZM525.512 70H526.531V64.5273H527.967V63.6836H526.531V63.0098C526.531 62.3184 526.824 61.9609 527.551 61.9609C527.732 61.9609 527.902 61.9668 528.025 61.9902V61.1758C527.814 61.1348 527.592 61.1172 527.346 61.1172C526.145 61.1172 525.512 61.7207 525.512 62.9805V63.6836H524.463V64.5273H525.512V70ZM531.764 70.1113C533.562 70.1113 534.676 68.8691 534.676 66.8477V66.8359C534.676 64.8086 533.562 63.5723 531.764 63.5723C529.965 63.5723 528.852 64.8086 528.852 66.8359V66.8477C528.852 68.8691 529.965 70.1113 531.764 70.1113ZM531.764 69.209C530.568 69.209 529.895 68.3359 529.895 66.8477V66.8359C529.895 65.3418 530.568 64.4746 531.764 64.4746C532.959 64.4746 533.633 65.3418 533.633 66.8359V66.8477C533.633 68.3359 532.959 69.209 531.764 69.209ZM536.258 70H537.277V66.0859C537.277 65.1602 537.969 64.5449 538.941 64.5449C539.164 64.5449 539.357 64.5684 539.568 64.6035V63.6133C539.469 63.5957 539.252 63.5723 539.059 63.5723C538.203 63.5723 537.611 63.959 537.371 64.6211H537.277V63.6836H536.258V70ZM540.945 70H541.965V66.0859C541.965 65.1953 542.592 64.4746 543.418 64.4746C544.215 64.4746 544.73 64.9609 544.73 65.7109V70H545.75V65.9395C545.75 65.1367 546.33 64.4746 547.209 64.4746C548.1 64.4746 548.527 64.9375 548.527 65.8691V70H549.547V65.6348C549.547 64.3105 548.826 63.5723 547.537 63.5723C546.664 63.5723 545.943 64.0117 545.604 64.6797H545.51C545.217 64.0234 544.619 63.5723 543.764 63.5723C542.938 63.5723 542.34 63.9648 542.059 64.6445H541.965V63.6836H540.945V70ZM553.121 70.1113C553.971 70.1113 554.633 69.7422 555.031 69.0684H555.125V70H556.145V65.6758C556.145 64.3633 555.283 63.5723 553.742 63.5723C552.395 63.5723 551.434 64.2402 551.27 65.2305L551.264 65.2656H552.283L552.289 65.248C552.453 64.7559 552.951 64.4746 553.707 64.4746C554.65 64.4746 555.125 64.8965 555.125 65.6758V66.25L553.314 66.3613C551.844 66.4492 551.012 67.0996 551.012 68.2246V68.2363C551.012 69.3848 551.92 70.1113 553.121 70.1113ZM552.055 68.2129V68.2012C552.055 67.5742 552.477 67.2344 553.438 67.1758L555.125 67.0703V67.6445C555.125 68.5469 554.369 69.2266 553.332 69.2266C552.6 69.2266 552.055 68.8516 552.055 68.2129ZM560.252 70.0469C560.451 70.0469 560.645 70.0234 560.844 69.9883V69.1211C560.656 69.1387 560.557 69.1445 560.375 69.1445C559.719 69.1445 559.461 68.8457 559.461 68.1016V64.5273H560.844V63.6836H559.461V62.0488H558.406V63.6836H557.41V64.5273H558.406V68.3594C558.406 69.5664 558.951 70.0469 560.252 70.0469ZM564.418 70.1113C565.854 70.1113 566.949 69.332 566.949 68.207V68.1953C566.949 67.293 566.375 66.7773 565.186 66.4902L564.213 66.2559C563.469 66.0742 563.152 65.8047 563.152 65.377V65.3652C563.152 64.8086 563.703 64.4219 564.453 64.4219C565.215 64.4219 565.707 64.7676 565.842 65.2656H566.844C566.703 64.2344 565.783 63.5723 564.459 63.5723C563.117 63.5723 562.109 64.3633 562.109 65.4121V65.418C562.109 66.3262 562.643 66.8418 563.826 67.123L564.805 67.3574C565.584 67.5449 565.906 67.8438 565.906 68.2715V68.2832C565.906 68.8574 565.303 69.2617 564.453 69.2617C563.645 69.2617 563.141 68.916 562.971 68.3887H561.928C562.045 69.4316 563.012 70.1113 564.418 70.1113ZM569.363 70.0586C569.785 70.0586 570.125 69.7129 570.125 69.2969C570.125 68.875 569.785 68.5352 569.363 68.5352C568.947 68.5352 568.602 68.875 568.602 69.2969C568.602 69.7129 568.947 70.0586 569.363 70.0586Z" fill="#696F8C"/>
<rect x="32" y="82" width="606" height="184" rx="4" fill="#F4F6FA"/>
<rect x="307" y="122" width="56" height="56" rx="28" fill="#EDEFF5"/>
<path fill-rule="evenodd" clip-rule="evenodd" d="M335 138C328.37 138 323 143.37 323 150C323 156.63 328.37 162 335 162C341.63 162 347 156.63 347 150C347 143.37 341.63 138 335 138ZM339.5 150C339.08 150 338.705 149.835 338.435 149.565L336.5 147.615V156C336.5 156.825 335.825 157.5 335 157.5C334.175 157.5 333.5 156.825 333.5 156V147.615L331.565 149.565C331.295 149.835 330.92 150 330.5 150C329.675 150 329 149.325 329 148.5C329 148.08 329.165 147.705 329.435 147.435L333.935 142.935C334.205 142.665 334.58 142.5 335 142.5C335.42 142.5 335.795 142.665 336.065 142.935L340.565 147.435C340.835 147.705 341 148.08 341 148.5C341 149.325 340.325 150 339.5 150Z" fill="#D8DAE5"/>
<path d="M251.237 219H255.291C257.396 219 258.661 217.947 258.661 216.218V216.204C258.661 214.919 257.772 213.976 256.439 213.832V213.716C257.41 213.552 258.169 212.629 258.169 211.604V211.59C258.169 210.079 257.055 209.136 255.202 209.136H251.237V219ZM254.847 210.387C255.981 210.387 256.645 210.927 256.645 211.856V211.87C256.645 212.827 255.94 213.333 254.587 213.333H252.769V210.387H254.847ZM254.895 214.502C256.337 214.502 257.096 215.049 257.096 216.108V216.122C257.096 217.182 256.364 217.749 254.983 217.749H252.769V214.502H254.895ZM260.459 219H261.942V214.563C261.942 213.49 262.715 212.793 263.85 212.793C264.13 212.793 264.383 212.827 264.649 212.882V211.515C264.499 211.48 264.239 211.446 264 211.446C263.009 211.446 262.318 211.911 262.052 212.697H261.942V211.576H260.459V219ZM269.018 219.144C271.191 219.144 272.524 217.688 272.524 215.295V215.281C272.524 212.889 271.185 211.433 269.018 211.433C266.844 211.433 265.504 212.896 265.504 215.281V215.295C265.504 217.688 266.837 219.144 269.018 219.144ZM269.018 217.906C267.739 217.906 267.021 216.942 267.021 215.295V215.281C267.021 213.634 267.739 212.67 269.018 212.67C270.289 212.67 271.014 213.634 271.014 215.281V215.295C271.014 216.936 270.289 217.906 269.018 217.906ZM275.437 219H276.947L278.479 213.463H278.595L280.133 219H281.657L283.701 211.576H282.231L280.905 217.305H280.789L279.258 211.576H277.85L276.318 217.305H276.209L274.876 211.576H273.386L275.437 219ZM287.714 219.144C289.478 219.144 290.79 218.207 290.79 216.833V216.819C290.79 215.746 290.106 215.138 288.678 214.803L287.502 214.536C286.668 214.338 286.326 214.051 286.326 213.586V213.572C286.326 212.978 286.914 212.574 287.728 212.574C288.562 212.574 289.088 212.964 289.231 213.483V213.497H290.646V213.49C290.517 212.28 289.43 211.433 287.734 211.433C286.053 211.433 284.85 212.362 284.85 213.654V213.661C284.85 214.748 285.499 215.384 286.9 215.705L288.083 215.979C288.944 216.177 289.293 216.491 289.293 216.956V216.97C289.293 217.578 288.657 217.995 287.741 217.995C286.859 217.995 286.319 217.619 286.135 217.059L286.128 217.052H284.645V217.059C284.788 218.303 285.923 219.144 287.714 219.144ZM295.678 219.144C297.578 219.144 298.604 218.05 298.85 217.072L298.863 217.011L297.435 217.018L297.407 217.072C297.229 217.455 296.662 217.927 295.712 217.927C294.488 217.927 293.709 217.1 293.682 215.678H298.945V215.158C298.945 212.93 297.674 211.433 295.603 211.433C293.531 211.433 292.191 212.984 292.191 215.302V215.309C292.191 217.66 293.504 219.144 295.678 219.144ZM295.609 212.649C296.614 212.649 297.359 213.292 297.476 214.618H293.702C293.832 213.34 294.598 212.649 295.609 212.649Z" fill="#C1C4D6"/>
<path d="M308.211 219.144C310.385 219.144 311.718 217.688 311.718 215.295V215.281C311.718 212.889 310.378 211.433 308.211 211.433C306.037 211.433 304.697 212.896 304.697 215.281V215.295C304.697 217.688 306.03 219.144 308.211 219.144ZM308.211 217.906C306.933 217.906 306.215 216.942 306.215 215.295V215.281C306.215 213.634 306.933 212.67 308.211 212.67C309.482 212.67 310.207 213.634 310.207 215.281V215.295C310.207 216.936 309.482 217.906 308.211 217.906ZM313.488 219H314.972V214.563C314.972 213.49 315.744 212.793 316.879 212.793C317.159 212.793 317.412 212.827 317.679 212.882V211.515C317.528 211.48 317.269 211.446 317.029 211.446C316.038 211.446 315.348 211.911 315.081 212.697H314.972V211.576H313.488V219ZM325.629 219.123C326.668 219.123 327.481 218.645 327.912 217.831H328.028V219H329.505V208.664H328.028V212.752H327.912C327.516 211.952 326.647 211.446 325.629 211.446C323.742 211.446 322.553 212.93 322.553 215.281V215.295C322.553 217.626 323.763 219.123 325.629 219.123ZM326.053 217.858C324.809 217.858 324.063 216.888 324.063 215.295V215.281C324.063 213.688 324.809 212.718 326.053 212.718C327.283 212.718 328.049 213.695 328.049 215.281V215.295C328.049 216.881 327.29 217.858 326.053 217.858ZM331.713 219H333.196V214.563C333.196 213.49 333.969 212.793 335.104 212.793C335.384 212.793 335.637 212.827 335.903 212.882V211.515C335.753 211.48 335.493 211.446 335.254 211.446C334.263 211.446 333.572 211.911 333.306 212.697H333.196V211.576H331.713V219ZM339.301 219.123C340.285 219.123 341.064 218.699 341.502 217.947H341.618V219H343.088V213.921C343.088 212.362 342.035 211.433 340.169 211.433C338.48 211.433 337.312 212.246 337.134 213.463L337.127 213.511H338.556L338.562 213.483C338.74 212.957 339.28 212.656 340.101 212.656C341.105 212.656 341.618 213.107 341.618 213.921V214.577L339.608 214.693C337.838 214.803 336.84 215.575 336.84 216.901V216.915C336.84 218.262 337.886 219.123 339.301 219.123ZM338.316 216.854V216.84C338.316 216.17 338.781 215.801 339.807 215.739L341.618 215.623V216.259C341.618 217.216 340.805 217.94 339.697 217.94C338.897 217.94 338.316 217.537 338.316 216.854ZM348.317 221.618C350.423 221.618 351.756 220.538 351.756 218.85V211.576H350.279V212.793H350.19C349.76 211.959 348.953 211.446 347.914 211.446C345.986 211.446 344.804 212.943 344.804 215.062V215.076C344.804 217.168 345.979 218.638 347.887 218.638C348.905 218.638 349.726 218.187 350.177 217.38H350.286V218.843C350.286 219.854 349.562 220.429 348.338 220.429C347.333 220.429 346.731 220.066 346.608 219.554L346.602 219.54H345.104L345.091 219.554C345.269 220.791 346.431 221.618 348.317 221.618ZM348.297 217.414C347.032 217.414 346.321 216.45 346.321 215.069V215.056C346.321 213.675 347.032 212.704 348.297 212.704C349.548 212.704 350.313 213.675 350.313 215.056V215.069C350.313 216.457 349.555 217.414 348.297 217.414ZM358.243 219H359.72V212.745H361.354V211.576H359.706V210.865C359.706 210.113 360.027 209.717 360.848 209.717C361.08 209.717 361.278 209.73 361.415 209.751V208.664C361.162 208.623 360.875 208.596 360.54 208.596C358.995 208.596 358.243 209.32 358.243 210.797V211.576H357.02V212.745H358.243V219ZM363.794 210.25C364.3 210.25 364.724 209.833 364.724 209.327C364.724 208.814 364.3 208.397 363.794 208.397C363.281 208.397 362.864 208.814 362.864 209.327C362.864 209.833 363.281 210.25 363.794 210.25ZM363.049 219H364.525V211.576H363.049V219ZM366.754 219H368.237V208.664H366.754V219ZM373.562 219.144C375.463 219.144 376.488 218.05 376.734 217.072L376.748 217.011L375.319 217.018L375.292 217.072C375.114 217.455 374.547 217.927 373.597 217.927C372.373 217.927 371.594 217.1 371.566 215.678H376.83V215.158C376.83 212.93 375.559 211.433 373.487 211.433C371.416 211.433 370.076 212.984 370.076 215.302V215.309C370.076 217.66 371.389 219.144 373.562 219.144ZM373.494 212.649C374.499 212.649 375.244 213.292 375.36 214.618H371.587C371.717 213.34 372.482 212.649 373.494 212.649ZM381.294 219.144C383.058 219.144 384.37 218.207 384.37 216.833V216.819C384.37 215.746 383.687 215.138 382.258 214.803L381.082 214.536C380.248 214.338 379.906 214.051 379.906 213.586V213.572C379.906 212.978 380.494 212.574 381.308 212.574C382.142 212.574 382.668 212.964 382.812 213.483V213.497H384.227V213.49C384.097 212.28 383.01 211.433 381.314 211.433C379.633 211.433 378.43 212.362 378.43 213.654V213.661C378.43 214.748 379.079 215.384 380.48 215.705L381.663 215.979C382.524 216.177 382.873 216.491 382.873 216.956V216.97C382.873 217.578 382.237 217.995 381.321 217.995C380.439 217.995 379.899 217.619 379.715 217.059L379.708 217.052H378.225V217.059C378.368 218.303 379.503 219.144 381.294 219.144ZM390.037 219H391.521V214.646C391.521 213.449 392.197 212.704 393.284 212.704C394.371 212.704 394.884 213.312 394.884 214.543V219H396.36V214.194C396.36 212.424 395.444 211.433 393.783 211.433C392.703 211.433 391.992 211.911 391.63 212.704H391.521V208.664H390.037V219ZM401.549 219.144C403.449 219.144 404.475 218.05 404.721 217.072L404.734 217.011L403.306 217.018L403.278 217.072C403.101 217.455 402.533 217.927 401.583 217.927C400.359 217.927 399.58 217.1 399.553 215.678H404.816V215.158C404.816 212.93 403.545 211.433 401.474 211.433C399.402 211.433 398.062 212.984 398.062 215.302V215.309C398.062 217.66 399.375 219.144 401.549 219.144ZM401.48 212.649C402.485 212.649 403.23 213.292 403.347 214.618H399.573C399.703 213.34 400.469 212.649 401.48 212.649ZM406.58 219H408.063V214.563C408.063 213.49 408.836 212.793 409.971 212.793C410.251 212.793 410.504 212.827 410.771 212.882V211.515C410.62 211.48 410.36 211.446 410.121 211.446C409.13 211.446 408.439 211.911 408.173 212.697H408.063V211.576H406.58V219ZM415.111 219.144C417.012 219.144 418.037 218.05 418.283 217.072L418.297 217.011L416.868 217.018L416.841 217.072C416.663 217.455 416.096 217.927 415.146 217.927C413.922 217.927 413.143 217.1 413.115 215.678H418.379V215.158C418.379 212.93 417.107 211.433 415.036 211.433C412.965 211.433 411.625 212.984 411.625 215.302V215.309C411.625 217.66 412.938 219.144 415.111 219.144ZM415.043 212.649C416.048 212.649 416.793 213.292 416.909 214.618H413.136C413.266 213.34 414.031 212.649 415.043 212.649Z" fill="#C1C4D6"/>
<path d="M32 290C32 285.582 35.5817 282 40 282H630C634.418 282 638 285.582 638 290V322C638 326.418 634.418 330 630 330H40C35.5817 330 32 326.418 32 322V290Z" fill="#FDF4F4"/>
<path d="M83.9512 311H85.4824V306.96L88.9619 301.136H87.2598L84.7783 305.436H84.6621L82.1807 301.136H80.4785L83.9512 306.96V311ZM92.4277 311.144C94.6016 311.144 95.9346 309.688 95.9346 307.295V307.281C95.9346 304.889 94.5947 303.433 92.4277 303.433C90.2539 303.433 88.9141 304.896 88.9141 307.281V307.295C88.9141 309.688 90.2471 311.144 92.4277 311.144ZM92.4277 309.906C91.1494 309.906 90.4316 308.942 90.4316 307.295V307.281C90.4316 305.634 91.1494 304.67 92.4277 304.67C93.6992 304.67 94.4238 305.634 94.4238 307.281V307.295C94.4238 308.936 93.6992 309.906 92.4277 309.906ZM100.18 311.144C101.26 311.144 102.012 310.679 102.367 309.879H102.483V311H103.96V303.576H102.483V307.931C102.483 309.127 101.848 309.872 100.658 309.872C99.5713 309.872 99.1201 309.264 99.1201 308.033V303.576H97.6367V308.382C97.6367 310.139 98.5049 311.144 100.18 311.144ZM113.052 311.144C114.891 311.144 115.95 310.152 116.217 308.71L116.23 308.648H114.809L114.795 308.683C114.556 309.482 113.981 309.906 113.052 309.906C111.828 309.906 111.069 308.908 111.069 307.268V307.254C111.069 305.654 111.814 304.67 113.052 304.67C114.036 304.67 114.638 305.217 114.802 305.948L114.809 305.969L116.23 305.962V305.928C116.025 304.485 114.911 303.433 113.045 303.433C110.878 303.433 109.559 304.902 109.559 307.254V307.268C109.559 309.667 110.885 311.144 113.052 311.144ZM119.949 311.123C120.934 311.123 121.713 310.699 122.15 309.947H122.267V311H123.736V305.921C123.736 304.362 122.684 303.433 120.817 303.433C119.129 303.433 117.96 304.246 117.782 305.463L117.775 305.511H119.204L119.211 305.483C119.389 304.957 119.929 304.656 120.749 304.656C121.754 304.656 122.267 305.107 122.267 305.921V306.577L120.257 306.693C118.486 306.803 117.488 307.575 117.488 308.901V308.915C117.488 310.262 118.534 311.123 119.949 311.123ZM118.965 308.854V308.84C118.965 308.17 119.43 307.801 120.455 307.739L122.267 307.623V308.259C122.267 309.216 121.453 309.94 120.346 309.94C119.546 309.94 118.965 309.537 118.965 308.854ZM125.828 311H127.312V306.646C127.312 305.449 127.988 304.704 129.075 304.704C130.162 304.704 130.675 305.312 130.675 306.543V311H132.151V306.194C132.151 304.424 131.235 303.433 129.574 303.433C128.494 303.433 127.783 303.911 127.421 304.704H127.312V303.576H125.828V311ZM140.525 311.144C141.605 311.144 142.357 310.679 142.713 309.879H142.829V311H144.306V303.576H142.829V307.931C142.829 309.127 142.193 309.872 141.004 309.872C139.917 309.872 139.466 309.264 139.466 308.033V303.576H137.982V308.382C137.982 310.139 138.851 311.144 140.525 311.144ZM146.445 313.475H147.929V309.824H148.038C148.435 310.624 149.303 311.123 150.321 311.123C152.208 311.123 153.397 309.646 153.397 307.295V307.281C153.397 304.943 152.194 303.446 150.321 303.446C149.282 303.446 148.469 303.932 148.038 304.745H147.929V303.576H146.445V313.475ZM149.904 309.858C148.667 309.858 147.901 308.881 147.901 307.295V307.281C147.901 305.695 148.667 304.718 149.904 304.718C151.142 304.718 151.887 305.682 151.887 307.281V307.295C151.887 308.888 151.142 309.858 149.904 309.858ZM155.25 311H156.733V300.664H155.25V311ZM162.086 311.144C164.26 311.144 165.593 309.688 165.593 307.295V307.281C165.593 304.889 164.253 303.433 162.086 303.433C159.912 303.433 158.572 304.896 158.572 307.281V307.295C158.572 309.688 159.905 311.144 162.086 311.144ZM162.086 309.906C160.808 309.906 160.09 308.942 160.09 307.295V307.281C160.09 305.634 160.808 304.67 162.086 304.67C163.357 304.67 164.082 305.634 164.082 307.281V307.295C164.082 308.936 163.357 309.906 162.086 309.906ZM169.4 311.123C170.385 311.123 171.164 310.699 171.602 309.947H171.718V311H173.188V305.921C173.188 304.362 172.135 303.433 170.269 303.433C168.58 303.433 167.411 304.246 167.233 305.463L167.227 305.511H168.655L168.662 305.483C168.84 304.957 169.38 304.656 170.2 304.656C171.205 304.656 171.718 305.107 171.718 305.921V306.577L169.708 306.693C167.938 306.803 166.939 307.575 166.939 308.901V308.915C166.939 310.262 167.985 311.123 169.4 311.123ZM168.416 308.854V308.84C168.416 308.17 168.881 307.801 169.906 307.739L171.718 307.623V308.259C171.718 309.216 170.904 309.94 169.797 309.94C168.997 309.94 168.416 309.537 168.416 308.854ZM177.986 311.123C179.025 311.123 179.839 310.645 180.27 309.831H180.386V311H181.862V300.664H180.386V304.752H180.27C179.873 303.952 179.005 303.446 177.986 303.446C176.1 303.446 174.91 304.93 174.91 307.281V307.295C174.91 309.626 176.12 311.123 177.986 311.123ZM178.41 309.858C177.166 309.858 176.421 308.888 176.421 307.295V307.281C176.421 305.688 177.166 304.718 178.41 304.718C179.641 304.718 180.406 305.695 180.406 307.281V307.295C180.406 308.881 179.647 309.858 178.41 309.858ZM190.373 311.144C191.453 311.144 192.205 310.679 192.561 309.879H192.677V311H194.153V303.576H192.677V307.931C192.677 309.127 192.041 309.872 190.852 309.872C189.765 309.872 189.313 309.264 189.313 308.033V303.576H187.83V308.382C187.83 310.139 188.698 311.144 190.373 311.144ZM196.293 313.475H197.776V309.824H197.886C198.282 310.624 199.15 311.123 200.169 311.123C202.056 311.123 203.245 309.646 203.245 307.295V307.281C203.245 304.943 202.042 303.446 200.169 303.446C199.13 303.446 198.316 303.932 197.886 304.745H197.776V303.576H196.293V313.475ZM199.752 309.858C198.515 309.858 197.749 308.881 197.749 307.295V307.281C197.749 305.695 198.515 304.718 199.752 304.718C200.989 304.718 201.734 305.682 201.734 307.281V307.295C201.734 308.888 200.989 309.858 199.752 309.858ZM211.66 311.048C211.947 311.048 212.221 311.014 212.46 310.973V309.79C212.255 309.811 212.125 309.817 211.899 309.817C211.168 309.817 210.867 309.489 210.867 308.689V304.745H212.46V303.576H210.867V301.703H209.356V303.576H208.194V304.745H209.356V309.045C209.356 310.474 210.026 311.048 211.66 311.048ZM217.252 311.144C219.426 311.144 220.759 309.688 220.759 307.295V307.281C220.759 304.889 219.419 303.433 217.252 303.433C215.078 303.433 213.738 304.896 213.738 307.281V307.295C213.738 309.688 215.071 311.144 217.252 311.144ZM217.252 309.906C215.974 309.906 215.256 308.942 215.256 307.295V307.281C215.256 305.634 215.974 304.67 217.252 304.67C218.523 304.67 219.248 305.634 219.248 307.281V307.295C219.248 308.936 218.523 309.906 217.252 309.906ZM226.357 311H233.002V309.694H228.442V309.558L230.534 307.473C232.325 305.695 232.845 304.834 232.845 303.713V303.692C232.845 302.065 231.491 300.896 229.652 300.896C227.67 300.896 226.275 302.168 226.269 303.973L226.282 303.986H227.718L227.725 303.966C227.725 302.886 228.463 302.161 229.57 302.161C230.65 302.161 231.313 302.872 231.313 303.836V303.856C231.313 304.656 230.938 305.162 229.632 306.522L226.357 309.961V311ZM239.366 311H240.843V304.745H242.477V303.576H240.829V302.865C240.829 302.113 241.15 301.717 241.971 301.717C242.203 301.717 242.401 301.73 242.538 301.751V300.664C242.285 300.623 241.998 300.596 241.663 300.596C240.118 300.596 239.366 301.32 239.366 302.797V303.576H238.143V304.745H239.366V311ZM244.917 302.25C245.423 302.25 245.847 301.833 245.847 301.327C245.847 300.814 245.423 300.397 244.917 300.397C244.404 300.397 243.987 300.814 243.987 301.327C243.987 301.833 244.404 302.25 244.917 302.25ZM244.172 311H245.648V303.576H244.172V311ZM247.877 311H249.36V300.664H247.877V311ZM254.686 311.144C256.586 311.144 257.611 310.05 257.857 309.072L257.871 309.011L256.442 309.018L256.415 309.072C256.237 309.455 255.67 309.927 254.72 309.927C253.496 309.927 252.717 309.1 252.689 307.678H257.953V307.158C257.953 304.93 256.682 303.433 254.61 303.433C252.539 303.433 251.199 304.984 251.199 307.302V307.309C251.199 309.66 252.512 311.144 254.686 311.144ZM254.617 304.649C255.622 304.649 256.367 305.292 256.483 306.618H252.71C252.84 305.34 253.605 304.649 254.617 304.649ZM262.417 311.144C264.181 311.144 265.493 310.207 265.493 308.833V308.819C265.493 307.746 264.81 307.138 263.381 306.803L262.205 306.536C261.371 306.338 261.029 306.051 261.029 305.586V305.572C261.029 304.978 261.617 304.574 262.431 304.574C263.265 304.574 263.791 304.964 263.935 305.483V305.497H265.35V305.49C265.22 304.28 264.133 303.433 262.438 303.433C260.756 303.433 259.553 304.362 259.553 305.654V305.661C259.553 306.748 260.202 307.384 261.604 307.705L262.786 307.979C263.647 308.177 263.996 308.491 263.996 308.956V308.97C263.996 309.578 263.36 309.995 262.444 309.995C261.562 309.995 261.022 309.619 260.838 309.059L260.831 309.052H259.348V309.059C259.491 310.303 260.626 311.144 262.417 311.144ZM268.405 311.103C268.973 311.103 269.403 310.665 269.403 310.111C269.403 309.551 268.973 309.113 268.405 309.113C267.838 309.113 267.4 309.551 267.4 310.111C267.4 310.665 267.838 311.103 268.405 311.103ZM275.679 311H277.21V307.206H279.37L281.38 311H283.15L280.936 306.967C282.139 306.563 282.85 305.483 282.85 304.157V304.144C282.85 302.312 281.592 301.136 279.568 301.136H275.679V311ZM277.21 305.962V302.421H279.37C280.553 302.421 281.277 303.091 281.277 304.185V304.198C281.277 305.319 280.594 305.962 279.418 305.962H277.21ZM287.758 311.144C289.658 311.144 290.684 310.05 290.93 309.072L290.943 309.011L289.515 309.018L289.487 309.072C289.31 309.455 288.742 309.927 287.792 309.927C286.568 309.927 285.789 309.1 285.762 307.678H291.025V307.158C291.025 304.93 289.754 303.433 287.683 303.433C285.611 303.433 284.271 304.984 284.271 307.302V307.309C284.271 309.66 285.584 311.144 287.758 311.144ZM287.689 304.649C288.694 304.649 289.439 305.292 289.556 306.618H285.782C285.912 305.34 286.678 304.649 287.689 304.649ZM292.789 311H294.272V306.44C294.272 305.47 294.936 304.704 295.831 304.704C296.706 304.704 297.26 305.237 297.26 306.085V311H298.736V306.304C298.736 305.408 299.358 304.704 300.302 304.704C301.272 304.704 301.737 305.21 301.737 306.235V311H303.214V305.88C303.214 304.335 302.339 303.433 300.842 303.433C299.81 303.433 298.955 303.959 298.579 304.759H298.463C298.135 303.959 297.417 303.433 296.405 303.433C295.435 303.433 294.71 303.904 294.382 304.718H294.272V303.576H292.789V311ZM308.43 311.144C310.604 311.144 311.937 309.688 311.937 307.295V307.281C311.937 304.889 310.597 303.433 308.43 303.433C306.256 303.433 304.916 304.896 304.916 307.281V307.295C304.916 309.688 306.249 311.144 308.43 311.144ZM308.43 309.906C307.151 309.906 306.434 308.942 306.434 307.295V307.281C306.434 305.634 307.151 304.67 308.43 304.67C309.701 304.67 310.426 305.634 310.426 307.281V307.295C310.426 308.936 309.701 309.906 308.43 309.906ZM315.464 311H317.043L319.723 303.576H318.164L316.318 309.496H316.202L314.35 303.576H312.777L315.464 311ZM324.043 311.144C325.943 311.144 326.969 310.05 327.215 309.072L327.229 309.011L325.8 309.018L325.772 309.072C325.595 309.455 325.027 309.927 324.077 309.927C322.854 309.927 322.074 309.1 322.047 307.678H327.311V307.158C327.311 304.93 326.039 303.433 323.968 303.433C321.896 303.433 320.557 304.984 320.557 307.302V307.309C320.557 309.66 321.869 311.144 324.043 311.144ZM323.975 304.649C324.979 304.649 325.725 305.292 325.841 306.618H322.067C322.197 305.34 322.963 304.649 323.975 304.649ZM335.315 311H336.847V301.136H335.315L332.718 302.981V304.485L335.199 302.715H335.315V311ZM343.997 311H345.474V304.745H347.107V303.576H345.46V302.865C345.46 302.113 345.781 301.717 346.602 301.717C346.834 301.717 347.032 301.73 347.169 301.751V300.664C346.916 300.623 346.629 300.596 346.294 300.596C344.749 300.596 343.997 301.32 343.997 302.797V303.576H342.773V304.745H343.997V311ZM349.548 302.25C350.054 302.25 350.478 301.833 350.478 301.327C350.478 300.814 350.054 300.397 349.548 300.397C349.035 300.397 348.618 300.814 348.618 301.327C348.618 301.833 349.035 302.25 349.548 302.25ZM348.803 311H350.279V303.576H348.803V311ZM352.508 311H353.991V300.664H352.508V311ZM359.316 311.144C361.217 311.144 362.242 310.05 362.488 309.072L362.502 309.011L361.073 309.018L361.046 309.072C360.868 309.455 360.301 309.927 359.351 309.927C358.127 309.927 357.348 309.1 357.32 307.678H362.584V307.158C362.584 304.93 361.312 303.433 359.241 303.433C357.17 303.433 355.83 304.984 355.83 307.302V307.309C355.83 309.66 357.143 311.144 359.316 311.144ZM359.248 304.649C360.253 304.649 360.998 305.292 361.114 306.618H357.341C357.471 305.34 358.236 304.649 359.248 304.649ZM365.489 311.103C366.057 311.103 366.487 310.665 366.487 310.111C366.487 309.551 366.057 309.113 365.489 309.113C364.922 309.113 364.484 309.551 364.484 310.111C364.484 310.665 364.922 311.103 365.489 311.103Z" fill="#A73636"/>
<path fill-rule="evenodd" clip-rule="evenodd" d="M55.9999 298.005C51.5826 298.005 48.0049 301.583 48.0049 306C48.0049 310.417 51.5826 313.995 55.9999 313.995C60.4171 313.995 63.9949 310.417 63.9949 306C63.9949 301.583 60.4171 298.005 55.9999 298.005ZM55.0005 310.997V308.998H56.9993V310.997H55.0005ZM55.0005 301.003V307.999H56.9993V301.003H55.0005Z" fill="#D14343"/>
<path d="M40 283H630V281H40V283ZM637 290V322H639V290H637ZM630 329H40V331H630V329ZM33 322V290H31V322H33ZM40 329C36.134 329 33 325.866 33 322H31C31 326.971 35.0294 331 40 331V329ZM637 322C637 325.866 633.866 329 630 329V331C634.971 331 639 326.971 639 322H637ZM630 283C633.866 283 637 286.134 637 290H639C639 285.029 634.971 281 630 281V283ZM40 281C35.0294 281 31 285.029 31 290H33C33 286.134 36.134 283 40 283V281Z" fill="#D14343"/>
<rect x="48" y="359" width="40" height="40" rx="4" fill="#F4F6FA"/>
<path fill-rule="evenodd" clip-rule="evenodd" d="M72.226 378.049C72.7436 378.049 73.1672 377.626 73.1672 377.108C73.1672 376.591 72.7436 376.167 72.226 376.167C71.7084 376.167 71.2848 376.591 71.2848 377.108C71.2848 377.626 71.7084 378.049 72.226 378.049ZM75.0495 373.344H61.8731C61.3554 373.344 60.9319 373.767 60.9319 374.285V383.696C60.9319 384.214 61.3554 384.638 61.8731 384.638H75.0495C75.5672 384.638 75.9907 384.214 75.9907 383.696V374.285C75.9907 373.767 75.5672 373.344 75.0495 373.344ZM74.1084 381.814L69.4025 378.991L68.4613 380.873L65.6378 377.108L62.8142 381.814V375.226H74.1084V381.814Z" fill="#8F95B2"/>
<path d="M100.573 375.239C102.87 375.239 104.34 374.063 104.34 372.177V372.17C104.34 370.707 103.492 369.873 101.421 369.429L100.348 369.189C99.0693 368.916 98.5498 368.438 98.5498 367.706V367.699C98.5498 366.77 99.4043 366.229 100.56 366.229C101.756 366.223 102.528 366.811 102.658 367.617L102.672 367.706H104.155L104.148 367.61C104.039 366.079 102.672 364.896 100.58 364.896C98.4883 364.896 97.0117 366.072 97.0049 367.774V367.781C97.0049 369.237 97.8662 370.167 99.8691 370.591L100.949 370.823C102.255 371.104 102.788 371.596 102.788 372.354V372.361C102.788 373.277 101.893 373.906 100.635 373.906C99.3154 373.906 98.3652 373.332 98.2832 372.437L98.2764 372.361H96.7725L96.7793 372.45C96.916 374.111 98.3447 375.239 100.573 375.239ZM108.182 375.123C109.166 375.123 109.945 374.699 110.383 373.947H110.499V375H111.969V369.921C111.969 368.362 110.916 367.433 109.05 367.433C107.361 367.433 106.192 368.246 106.015 369.463L106.008 369.511H107.437L107.443 369.483C107.621 368.957 108.161 368.656 108.981 368.656C109.986 368.656 110.499 369.107 110.499 369.921V370.577L108.489 370.693C106.719 370.803 105.721 371.575 105.721 372.901V372.915C105.721 374.262 106.767 375.123 108.182 375.123ZM107.197 372.854V372.84C107.197 372.17 107.662 371.801 108.688 371.739L110.499 371.623V372.259C110.499 373.216 109.686 373.94 108.578 373.94C107.778 373.94 107.197 373.537 107.197 372.854ZM114.061 375H115.544V370.44C115.544 369.47 116.207 368.704 117.103 368.704C117.978 368.704 118.531 369.237 118.531 370.085V375H120.008V370.304C120.008 369.408 120.63 368.704 121.573 368.704C122.544 368.704 123.009 369.21 123.009 370.235V375H124.485V369.88C124.485 368.335 123.61 367.433 122.113 367.433C121.081 367.433 120.227 367.959 119.851 368.759H119.734C119.406 367.959 118.688 367.433 117.677 367.433C116.706 367.433 115.981 367.904 115.653 368.718H115.544V367.576H114.061V375ZM126.557 377.475H128.04V373.824H128.149C128.546 374.624 129.414 375.123 130.433 375.123C132.319 375.123 133.509 373.646 133.509 371.295V371.281C133.509 368.943 132.306 367.446 130.433 367.446C129.394 367.446 128.58 367.932 128.149 368.745H128.04V367.576H126.557V377.475ZM130.016 373.858C128.778 373.858 128.013 372.881 128.013 371.295V371.281C128.013 369.695 128.778 368.718 130.016 368.718C131.253 368.718 131.998 369.682 131.998 371.281V371.295C131.998 372.888 131.253 373.858 130.016 373.858ZM135.361 375H136.845V364.664H135.361V375ZM142.17 375.144C144.07 375.144 145.096 374.05 145.342 373.072L145.355 373.011L143.927 373.018L143.899 373.072C143.722 373.455 143.154 373.927 142.204 373.927C140.98 373.927 140.201 373.1 140.174 371.678H145.438V371.158C145.438 368.93 144.166 367.433 142.095 367.433C140.023 367.433 138.684 368.984 138.684 371.302V371.309C138.684 373.66 139.996 375.144 142.17 375.144ZM142.102 368.649C143.106 368.649 143.852 369.292 143.968 370.618H140.194C140.324 369.34 141.09 368.649 142.102 368.649ZM147.181 371.705H151.754V370.345H147.181V371.705ZM154.044 375H155.575V365.136H154.044V375ZM157.879 375H159.362V370.44C159.362 369.47 160.025 368.704 160.921 368.704C161.796 368.704 162.35 369.237 162.35 370.085V375H163.826V370.304C163.826 369.408 164.448 368.704 165.392 368.704C166.362 368.704 166.827 369.21 166.827 370.235V375H168.304V369.88C168.304 368.335 167.429 367.433 165.932 367.433C164.899 367.433 164.045 367.959 163.669 368.759H163.553C163.225 367.959 162.507 367.433 161.495 367.433C160.524 367.433 159.8 367.904 159.472 368.718H159.362V367.576H157.879V375ZM172.412 375.123C173.396 375.123 174.176 374.699 174.613 373.947H174.729V375H176.199V369.921C176.199 368.362 175.146 367.433 173.28 367.433C171.592 367.433 170.423 368.246 170.245 369.463L170.238 369.511H171.667L171.674 369.483C171.852 368.957 172.392 368.656 173.212 368.656C174.217 368.656 174.729 369.107 174.729 369.921V370.577L172.72 370.693C170.949 370.803 169.951 371.575 169.951 372.901V372.915C169.951 374.262 170.997 375.123 172.412 375.123ZM171.428 372.854V372.84C171.428 372.17 171.893 371.801 172.918 371.739L174.729 371.623V372.259C174.729 373.216 173.916 373.94 172.809 373.94C172.009 373.94 171.428 373.537 171.428 372.854ZM181.429 377.618C183.534 377.618 184.867 376.538 184.867 374.85V367.576H183.391V368.793H183.302C182.871 367.959 182.064 367.446 181.025 367.446C179.098 367.446 177.915 368.943 177.915 371.062V371.076C177.915 373.168 179.091 374.638 180.998 374.638C182.017 374.638 182.837 374.187 183.288 373.38H183.397V374.843C183.397 375.854 182.673 376.429 181.449 376.429C180.444 376.429 179.843 376.066 179.72 375.554L179.713 375.54H178.216L178.202 375.554C178.38 376.791 179.542 377.618 181.429 377.618ZM181.408 373.414C180.144 373.414 179.433 372.45 179.433 371.069V371.056C179.433 369.675 180.144 368.704 181.408 368.704C182.659 368.704 183.425 369.675 183.425 371.056V371.069C183.425 372.457 182.666 373.414 181.408 373.414ZM190.117 375.144C192.018 375.144 193.043 374.05 193.289 373.072L193.303 373.011L191.874 373.018L191.847 373.072C191.669 373.455 191.102 373.927 190.151 373.927C188.928 373.927 188.148 373.1 188.121 371.678H193.385V371.158C193.385 368.93 192.113 367.433 190.042 367.433C187.971 367.433 186.631 368.984 186.631 371.302V371.309C186.631 373.66 187.943 375.144 190.117 375.144ZM190.049 368.649C191.054 368.649 191.799 369.292 191.915 370.618H188.142C188.271 369.34 189.037 368.649 190.049 368.649ZM196.29 375.103C196.857 375.103 197.288 374.665 197.288 374.111C197.288 373.551 196.857 373.113 196.29 373.113C195.723 373.113 195.285 373.551 195.285 374.111C195.285 374.665 195.723 375.103 196.29 375.103ZM199.564 377.475H201.048V373.824H201.157C201.554 374.624 202.422 375.123 203.44 375.123C205.327 375.123 206.517 373.646 206.517 371.295V371.281C206.517 368.943 205.313 367.446 203.44 367.446C202.401 367.446 201.588 367.932 201.157 368.745H201.048V367.576H199.564V377.475ZM203.023 373.858C201.786 373.858 201.021 372.881 201.021 371.295V371.281C201.021 369.695 201.786 368.718 203.023 368.718C204.261 368.718 205.006 369.682 205.006 371.281V371.295C205.006 372.888 204.261 373.858 203.023 373.858ZM208.301 375H209.784V370.646C209.784 369.449 210.461 368.704 211.548 368.704C212.635 368.704 213.147 369.312 213.147 370.543V375H214.624V370.194C214.624 368.424 213.708 367.433 212.047 367.433C210.967 367.433 210.256 367.911 209.894 368.704H209.784V367.576H208.301V375ZM219.833 377.618C221.938 377.618 223.271 376.538 223.271 374.85V367.576H221.795V368.793H221.706C221.275 367.959 220.469 367.446 219.43 367.446C217.502 367.446 216.319 368.943 216.319 371.062V371.076C216.319 373.168 217.495 374.638 219.402 374.638C220.421 374.638 221.241 374.187 221.692 373.38H221.802V374.843C221.802 375.854 221.077 376.429 219.854 376.429C218.849 376.429 218.247 376.066 218.124 375.554L218.117 375.54H216.62L216.606 375.554C216.784 376.791 217.946 377.618 219.833 377.618ZM219.812 373.414C218.548 373.414 217.837 372.45 217.837 371.069V371.056C217.837 369.675 218.548 368.704 219.812 368.704C221.063 368.704 221.829 369.675 221.829 371.056V371.069C221.829 372.457 221.07 373.414 219.812 373.414Z" fill="#474D66"/>
<path d="M99.709 387.346C98.0039 387.346 96.75 388.57 96.75 390.258V390.27C96.75 391.893 97.9336 393.1 99.5215 393.1C100.664 393.1 101.461 392.484 101.771 391.793H101.883C101.883 391.857 101.883 391.928 101.877 391.992C101.812 393.756 101.186 395.256 99.6504 395.256C98.7949 395.256 98.2031 394.816 97.9453 394.107L97.9219 394.043H96.8613L96.8789 394.119C97.166 395.367 98.2207 396.199 99.6387 396.199C101.689 396.199 102.891 394.512 102.891 391.629V391.617C102.891 388.436 101.256 387.346 99.709 387.346ZM99.7031 392.18C98.6074 392.18 97.8105 391.371 97.8105 390.246V390.234C97.8105 389.139 98.6602 388.277 99.7207 388.277C100.793 388.277 101.631 389.156 101.631 390.27V390.275C101.631 391.377 100.799 392.18 99.7031 392.18ZM104.953 396.059C105.375 396.059 105.715 395.713 105.715 395.297C105.715 394.875 105.375 394.535 104.953 394.535C104.537 394.535 104.191 394.875 104.191 395.297C104.191 395.713 104.537 396.059 104.953 396.059ZM107.443 396H112.916V395.051H108.908V394.957L110.83 392.971C112.359 391.395 112.775 390.691 112.775 389.725V389.713C112.775 388.348 111.645 387.346 110.168 387.346C108.551 387.346 107.391 388.424 107.385 389.924L107.396 389.93L108.404 389.936L108.41 389.924C108.41 388.928 109.084 388.266 110.098 388.266C111.094 388.266 111.697 388.934 111.697 389.824V389.836C111.697 390.574 111.381 391.014 110.303 392.18L107.443 395.273V396ZM114.82 396H115.805V389.543H115.869L118.541 396H119.432L122.104 389.543H122.168V396H123.152V387.545H121.928L119.033 394.6H118.939L116.045 387.545H114.82V396ZM125.309 396H128.607C130.406 396 131.473 395.115 131.473 393.633V393.621C131.473 392.508 130.74 391.717 129.586 391.57V391.477C130.4 391.33 131.045 390.533 131.045 389.66V389.648C131.045 388.359 130.096 387.545 128.543 387.545H125.309V396ZM128.32 388.477C129.369 388.477 129.979 388.975 129.979 389.83V389.842C129.979 390.732 129.328 391.189 128.051 391.189H126.363V388.477H128.32ZM128.35 392.098C129.697 392.098 130.389 392.596 130.389 393.568V393.58C130.389 394.553 129.721 395.068 128.449 395.068H126.363V392.098H128.35Z" fill="#696F8C"/>
<path fill-rule="evenodd" clip-rule="evenodd" d="M610.581 376.522H601.405C601.207 376.522 601.052 376.678 601.052 376.875C601.052 377.073 601.207 377.228 601.405 377.228H601.758V384.287C601.758 384.675 602.075 384.993 602.464 384.993H609.522C609.911 384.993 610.228 384.675 610.228 384.287V377.228H610.581C610.779 377.228 610.934 377.073 610.934 376.875C610.934 376.678 610.779 376.522 610.581 376.522ZM604.581 382.875C604.581 383.264 604.264 383.581 603.875 383.581C603.487 383.581 603.169 383.264 603.169 382.875V378.64C603.169 378.252 603.487 377.934 603.875 377.934C604.264 377.934 604.581 378.252 604.581 378.64V382.875ZM606.699 382.875C606.699 383.264 606.381 383.581 605.993 383.581C605.605 383.581 605.287 383.264 605.287 382.875V378.64C605.287 378.252 605.605 377.934 605.993 377.934C606.381 377.934 606.699 378.252 606.699 378.64V382.875ZM608.816 382.875C608.816 383.264 608.499 383.581 608.111 383.581C607.722 383.581 607.405 383.264 607.405 382.875V378.64C607.405 378.252 607.722 377.934 608.111 377.934C608.499 377.934 608.816 378.252 608.816 378.64V382.875ZM610.228 374.405H607.405C607.405 374.016 607.087 373.699 606.699 373.699H605.287C604.899 373.699 604.581 374.016 604.581 374.405H601.758C601.369 374.405 601.052 374.722 601.052 375.111V375.816H610.934V375.111C610.934 374.722 610.616 374.405 610.228 374.405Z" fill="#8F95B2"/>
<rect x="32.5" y="346.5" width="605" height="65" rx="3.5" stroke="#D8DAE5"/>
<rect x="48" y="441" width="40" height="40" rx="4" fill="#F4F6FA"/>
<path fill-rule="evenodd" clip-rule="evenodd" d="M72.226 460.049C72.7436 460.049 73.1672 459.626 73.1672 459.108C73.1672 458.591 72.7436 458.167 72.226 458.167C71.7084 458.167 71.2848 458.591 71.2848 459.108C71.2848 459.626 71.7084 460.049 72.226 460.049ZM75.0495 455.344H61.8731C61.3554 455.344 60.9319 455.767 60.9319 456.285V465.696C60.9319 466.214 61.3554 466.638 61.8731 466.638H75.0495C75.5672 466.638 75.9907 466.214 75.9907 465.696V456.285C75.9907 455.767 75.5672 455.344 75.0495 455.344ZM74.1084 463.814L69.4025 460.991L68.4613 462.873L65.6378 459.108L62.8142 463.814V457.226H74.1084V463.814Z" fill="#8F95B2"/>
<path d="M100.573 457.239C102.87 457.239 104.34 456.063 104.34 454.177V454.17C104.34 452.707 103.492 451.873 101.421 451.429L100.348 451.189C99.0693 450.916 98.5498 450.438 98.5498 449.706V449.699C98.5498 448.77 99.4043 448.229 100.56 448.229C101.756 448.223 102.528 448.811 102.658 449.617L102.672 449.706H104.155L104.148 449.61C104.039 448.079 102.672 446.896 100.58 446.896C98.4883 446.896 97.0117 448.072 97.0049 449.774V449.781C97.0049 451.237 97.8662 452.167 99.8691 452.591L100.949 452.823C102.255 453.104 102.788 453.596 102.788 454.354V454.361C102.788 455.277 101.893 455.906 100.635 455.906C99.3154 455.906 98.3652 455.332 98.2832 454.437L98.2764 454.361H96.7725L96.7793 454.45C96.916 456.111 98.3447 457.239 100.573 457.239ZM108.182 457.123C109.166 457.123 109.945 456.699 110.383 455.947H110.499V457H111.969V451.921C111.969 450.362 110.916 449.433 109.05 449.433C107.361 449.433 106.192 450.246 106.015 451.463L106.008 451.511H107.437L107.443 451.483C107.621 450.957 108.161 450.656 108.981 450.656C109.986 450.656 110.499 451.107 110.499 451.921V452.577L108.489 452.693C106.719 452.803 105.721 453.575 105.721 454.901V454.915C105.721 456.262 106.767 457.123 108.182 457.123ZM107.197 454.854V454.84C107.197 454.17 107.662 453.801 108.688 453.739L110.499 453.623V454.259C110.499 455.216 109.686 455.94 108.578 455.94C107.778 455.94 107.197 455.537 107.197 454.854ZM114.061 457H115.544V452.44C115.544 451.47 116.207 450.704 117.103 450.704C117.978 450.704 118.531 451.237 118.531 452.085V457H120.008V452.304C120.008 451.408 120.63 450.704 121.573 450.704C122.544 450.704 123.009 451.21 123.009 452.235V457H124.485V451.88C124.485 450.335 123.61 449.433 122.113 449.433C121.081 449.433 120.227 449.959 119.851 450.759H119.734C119.406 449.959 118.688 449.433 117.677 449.433C116.706 449.433 115.981 449.904 115.653 450.718H115.544V449.576H114.061V457ZM126.557 459.475H128.04V455.824H128.149C128.546 456.624 129.414 457.123 130.433 457.123C132.319 457.123 133.509 455.646 133.509 453.295V453.281C133.509 450.943 132.306 449.446 130.433 449.446C129.394 449.446 128.58 449.932 128.149 450.745H128.04V449.576H126.557V459.475ZM130.016 455.858C128.778 455.858 128.013 454.881 128.013 453.295V453.281C128.013 451.695 128.778 450.718 130.016 450.718C131.253 450.718 131.998 451.682 131.998 453.281V453.295C131.998 454.888 131.253 455.858 130.016 455.858ZM135.361 457H136.845V446.664H135.361V457ZM142.17 457.144C144.07 457.144 145.096 456.05 145.342 455.072L145.355 455.011L143.927 455.018L143.899 455.072C143.722 455.455 143.154 455.927 142.204 455.927C140.98 455.927 140.201 455.1 140.174 453.678H145.438V453.158C145.438 450.93 144.166 449.433 142.095 449.433C140.023 449.433 138.684 450.984 138.684 453.302V453.309C138.684 455.66 139.996 457.144 142.17 457.144ZM142.102 450.649C143.106 450.649 143.852 451.292 143.968 452.618H140.194C140.324 451.34 141.09 450.649 142.102 450.649ZM147.181 453.705H151.754V452.345H147.181V453.705ZM154.044 457H155.575V447.136H154.044V457ZM157.879 457H159.362V452.44C159.362 451.47 160.025 450.704 160.921 450.704C161.796 450.704 162.35 451.237 162.35 452.085V457H163.826V452.304C163.826 451.408 164.448 450.704 165.392 450.704C166.362 450.704 166.827 451.21 166.827 452.235V457H168.304V451.88C168.304 450.335 167.429 449.433 165.932 449.433C164.899 449.433 164.045 449.959 163.669 450.759H163.553C163.225 449.959 162.507 449.433 161.495 449.433C160.524 449.433 159.8 449.904 159.472 450.718H159.362V449.576H157.879V457ZM172.412 457.123C173.396 457.123 174.176 456.699 174.613 455.947H174.729V457H176.199V451.921C176.199 450.362 175.146 449.433 173.28 449.433C171.592 449.433 170.423 450.246 170.245 451.463L170.238 451.511H171.667L171.674 451.483C171.852 450.957 172.392 450.656 173.212 450.656C174.217 450.656 174.729 451.107 174.729 451.921V452.577L172.72 452.693C170.949 452.803 169.951 453.575 169.951 454.901V454.915C169.951 456.262 170.997 457.123 172.412 457.123ZM171.428 454.854V454.84C171.428 454.17 171.893 453.801 172.918 453.739L174.729 453.623V454.259C174.729 455.216 173.916 455.94 172.809 455.94C172.009 455.94 171.428 455.537 171.428 454.854ZM181.429 459.618C183.534 459.618 184.867 458.538 184.867 456.85V449.576H183.391V450.793H183.302C182.871 449.959 182.064 449.446 181.025 449.446C179.098 449.446 177.915 450.943 177.915 453.062V453.076C177.915 455.168 179.091 456.638 180.998 456.638C182.017 456.638 182.837 456.187 183.288 455.38H183.397V456.843C183.397 457.854 182.673 458.429 181.449 458.429C180.444 458.429 179.843 458.066 179.72 457.554L179.713 457.54H178.216L178.202 457.554C178.38 458.791 179.542 459.618 181.429 459.618ZM181.408 455.414C180.144 455.414 179.433 454.45 179.433 453.069V453.056C179.433 451.675 180.144 450.704 181.408 450.704C182.659 450.704 183.425 451.675 183.425 453.056V453.069C183.425 454.457 182.666 455.414 181.408 455.414ZM190.117 457.144C192.018 457.144 193.043 456.05 193.289 455.072L193.303 455.011L191.874 455.018L191.847 455.072C191.669 455.455 191.102 455.927 190.151 455.927C188.928 455.927 188.148 455.1 188.121 453.678H193.385V453.158C193.385 450.93 192.113 449.433 190.042 449.433C187.971 449.433 186.631 450.984 186.631 453.302V453.309C186.631 455.66 187.943 457.144 190.117 457.144ZM190.049 450.649C191.054 450.649 191.799 451.292 191.915 452.618H188.142C188.271 451.34 189.037 450.649 190.049 450.649ZM195.128 453.705H199.701V452.345H195.128V453.705ZM201.82 457H208.465V455.694H203.905V455.558L205.997 453.473C207.788 451.695 208.308 450.834 208.308 449.713V449.692C208.308 448.065 206.954 446.896 205.115 446.896C203.133 446.896 201.738 448.168 201.731 449.973L201.745 449.986H203.181L203.188 449.966C203.188 448.886 203.926 448.161 205.033 448.161C206.113 448.161 206.776 448.872 206.776 449.836V449.856C206.776 450.656 206.4 451.162 205.095 452.522L201.82 455.961V457ZM211.438 457.103C212.006 457.103 212.437 456.665 212.437 456.111C212.437 455.551 212.006 455.113 211.438 455.113C210.871 455.113 210.434 455.551 210.434 456.111C210.434 456.665 210.871 457.103 211.438 457.103ZM214.713 459.475H216.196V455.824H216.306C216.702 456.624 217.57 457.123 218.589 457.123C220.476 457.123 221.665 455.646 221.665 453.295V453.281C221.665 450.943 220.462 449.446 218.589 449.446C217.55 449.446 216.736 449.932 216.306 450.745H216.196V449.576H214.713V459.475ZM218.172 455.858C216.935 455.858 216.169 454.881 216.169 453.295V453.281C216.169 451.695 216.935 450.718 218.172 450.718C219.409 450.718 220.154 451.682 220.154 453.281V453.295C220.154 454.888 219.409 455.858 218.172 455.858ZM223.449 457H224.933V452.646C224.933 451.449 225.609 450.704 226.696 450.704C227.783 450.704 228.296 451.312 228.296 452.543V457H229.772V452.194C229.772 450.424 228.856 449.433 227.195 449.433C226.115 449.433 225.404 449.911 225.042 450.704H224.933V449.576H223.449V457ZM234.981 459.618C237.087 459.618 238.42 458.538 238.42 456.85V449.576H236.943V450.793H236.854C236.424 449.959 235.617 449.446 234.578 449.446C232.65 449.446 231.468 450.943 231.468 453.062V453.076C231.468 455.168 232.644 456.638 234.551 456.638C235.569 456.638 236.39 456.187 236.841 455.38H236.95V456.843C236.95 457.854 236.226 458.429 235.002 458.429C233.997 458.429 233.396 458.066 233.272 457.554L233.266 457.54H231.769L231.755 457.554C231.933 458.791 233.095 459.618 234.981 459.618ZM234.961 455.414C233.696 455.414 232.985 454.45 232.985 453.069V453.056C232.985 451.675 233.696 450.704 234.961 450.704C236.212 450.704 236.978 451.675 236.978 453.056V453.069C236.978 454.457 236.219 455.414 234.961 455.414Z" fill="#474D66"/>
<path d="M100.805 478H101.836V476.248H103.037V475.305H101.836V469.545H100.307C99.123 471.309 97.8281 473.371 96.6855 475.287V476.248H100.805V478ZM97.7637 475.311V475.24C98.6836 473.688 99.791 471.941 100.74 470.523H100.811V475.311H97.7637ZM105.094 478.059C105.516 478.059 105.855 477.713 105.855 477.297C105.855 476.875 105.516 476.535 105.094 476.535C104.678 476.535 104.332 476.875 104.332 477.297C104.332 477.713 104.678 478.059 105.094 478.059ZM107.76 478H108.867L112.629 470.523V469.545H107.033V470.488H111.557V470.57L107.76 478ZM114.375 478H115.359V471.543H115.424L118.096 478H118.986L121.658 471.543H121.723V478H122.707V469.545H121.482L118.588 476.6H118.494L115.6 469.545H114.375V478ZM124.863 478H128.162C129.961 478 131.027 477.115 131.027 475.633V475.621C131.027 474.508 130.295 473.717 129.141 473.57V473.477C129.955 473.33 130.6 472.533 130.6 471.66V471.648C130.6 470.359 129.65 469.545 128.098 469.545H124.863V478ZM127.875 470.477C128.924 470.477 129.533 470.975 129.533 471.83V471.842C129.533 472.732 128.883 473.189 127.605 473.189H125.918V470.477H127.875ZM127.904 474.098C129.252 474.098 129.943 474.596 129.943 475.568V475.58C129.943 476.553 129.275 477.068 128.004 477.068H125.918V474.098H127.904Z" fill="#696F8C"/>
<path fill-rule="evenodd" clip-rule="evenodd" d="M610.581 458.522H601.405C601.207 458.522 601.052 458.678 601.052 458.875C601.052 459.073 601.207 459.228 601.405 459.228H601.758V466.287C601.758 466.675 602.075 466.993 602.464 466.993H609.522C609.911 466.993 610.228 466.675 610.228 466.287V459.228H610.581C610.779 459.228 610.934 459.073 610.934 458.875C610.934 458.678 610.779 458.522 610.581 458.522ZM604.581 464.875C604.581 465.263 604.264 465.581 603.875 465.581C603.487 465.581 603.169 465.263 603.169 464.875V460.64C603.169 460.252 603.487 459.934 603.875 459.934C604.264 459.934 604.581 460.252 604.581 460.64V464.875ZM606.699 464.875C606.699 465.263 606.381 465.581 605.993 465.581C605.605 465.581 605.287 465.263 605.287 464.875V460.64C605.287 460.252 605.605 459.934 605.993 459.934C606.381 459.934 606.699 460.252 606.699 460.64V464.875ZM608.816 464.875C608.816 465.263 608.499 465.581 608.111 465.581C607.722 465.581 607.405 465.263 607.405 464.875V460.64C607.405 460.252 607.722 459.934 608.111 459.934C608.499 459.934 608.816 460.252 608.816 460.64V464.875ZM610.228 456.405H607.405C607.405 456.016 607.087 455.699 606.699 455.699H605.287C604.899 455.699 604.581 456.016 604.581 456.405H601.758C601.369 456.405 601.052 456.722 601.052 457.11V457.816H610.934V457.11C610.934 456.722 610.616 456.405 610.228 456.405Z" fill="#8F95B2"/>
<rect x="32.5" y="428.5" width="605" height="65" rx="3.5" stroke="#D8DAE5"/>
<rect x="48" y="523" width="40" height="40" rx="4" fill="#F4F6FA"/>
<path fill-rule="evenodd" clip-rule="evenodd" d="M69 535H63C62.45 535 62 535.45 62 536V550C62 550.55 62.45 551 63 551H73C73.55 551 74 550.55 74 550V540L69 535ZM72 549H64V537H68V541H72V549Z" fill="#8F95B2"/>
<path d="M100.573 539.239C102.87 539.239 104.34 538.063 104.34 536.177V536.17C104.34 534.707 103.492 533.873 101.421 533.429L100.348 533.189C99.0693 532.916 98.5498 532.438 98.5498 531.706V531.699C98.5498 530.77 99.4043 530.229 100.56 530.229C101.756 530.223 102.528 530.811 102.658 531.617L102.672 531.706H104.155L104.148 531.61C104.039 530.079 102.672 528.896 100.58 528.896C98.4883 528.896 97.0117 530.072 97.0049 531.774V531.781C97.0049 533.237 97.8662 534.167 99.8691 534.591L100.949 534.823C102.255 535.104 102.788 535.596 102.788 536.354V536.361C102.788 537.277 101.893 537.906 100.635 537.906C99.3154 537.906 98.3652 537.332 98.2832 536.437L98.2764 536.361H96.7725L96.7793 536.45C96.916 538.111 98.3447 539.239 100.573 539.239ZM108.182 539.123C109.166 539.123 109.945 538.699 110.383 537.947H110.499V539H111.969V533.921C111.969 532.362 110.916 531.433 109.05 531.433C107.361 531.433 106.192 532.246 106.015 533.463L106.008 533.511H107.437L107.443 533.483C107.621 532.957 108.161 532.656 108.981 532.656C109.986 532.656 110.499 533.107 110.499 533.921V534.577L108.489 534.693C106.719 534.803 105.721 535.575 105.721 536.901V536.915C105.721 538.262 106.767 539.123 108.182 539.123ZM107.197 536.854V536.84C107.197 536.17 107.662 535.801 108.688 535.739L110.499 535.623V536.259C110.499 537.216 109.686 537.94 108.578 537.94C107.778 537.94 107.197 537.537 107.197 536.854ZM114.061 539H115.544V534.44C115.544 533.47 116.207 532.704 117.103 532.704C117.978 532.704 118.531 533.237 118.531 534.085V539H120.008V534.304C120.008 533.408 120.63 532.704 121.573 532.704C122.544 532.704 123.009 533.21 123.009 534.235V539H124.485V533.88C124.485 532.335 123.61 531.433 122.113 531.433C121.081 531.433 120.227 531.959 119.851 532.759H119.734C119.406 531.959 118.688 531.433 117.677 531.433C116.706 531.433 115.981 531.904 115.653 532.718H115.544V531.576H114.061V539ZM126.557 541.475H128.04V537.824H128.149C128.546 538.624 129.414 539.123 130.433 539.123C132.319 539.123 133.509 537.646 133.509 535.295V535.281C133.509 532.943 132.306 531.446 130.433 531.446C129.394 531.446 128.58 531.932 128.149 532.745H128.04V531.576H126.557V541.475ZM130.016 537.858C128.778 537.858 128.013 536.881 128.013 535.295V535.281C128.013 533.695 128.778 532.718 130.016 532.718C131.253 532.718 131.998 533.682 131.998 535.281V535.295C131.998 536.888 131.253 537.858 130.016 537.858ZM135.361 539H136.845V528.664H135.361V539ZM142.17 539.144C144.07 539.144 145.096 538.05 145.342 537.072L145.355 537.011L143.927 537.018L143.899 537.072C143.722 537.455 143.154 537.927 142.204 537.927C140.98 537.927 140.201 537.1 140.174 535.678H145.438V535.158C145.438 532.93 144.166 531.433 142.095 531.433C140.023 531.433 138.684 532.984 138.684 535.302V535.309C138.684 537.66 139.996 539.144 142.17 539.144ZM142.102 532.649C143.106 532.649 143.852 533.292 143.968 534.618H140.194C140.324 533.34 141.09 532.649 142.102 532.649ZM147.181 535.705H151.754V534.345H147.181V535.705ZM154.044 539H155.575V534.871H159.813V533.579H155.575V530.455H160.203V529.136H154.044V539ZM162.794 530.25C163.3 530.25 163.724 529.833 163.724 529.327C163.724 528.814 163.3 528.397 162.794 528.397C162.281 528.397 161.864 528.814 161.864 529.327C161.864 529.833 162.281 530.25 162.794 530.25ZM162.049 539H163.525V531.576H162.049V539ZM165.754 539H167.237V528.664H165.754V539ZM172.562 539.144C174.463 539.144 175.488 538.05 175.734 537.072L175.748 537.011L174.319 537.018L174.292 537.072C174.114 537.455 173.547 537.927 172.597 537.927C171.373 537.927 170.594 537.1 170.566 535.678H175.83V535.158C175.83 532.93 174.559 531.433 172.487 531.433C170.416 531.433 169.076 532.984 169.076 535.302V535.309C169.076 537.66 170.389 539.144 172.562 539.144ZM172.494 532.649C173.499 532.649 174.244 533.292 174.36 534.618H170.587C170.717 533.34 171.482 532.649 172.494 532.649ZM177.573 535.705H182.146V534.345H177.573V535.705ZM186.679 539H188.21V529.136H186.679L184.081 530.981V532.485L186.562 530.715H186.679V539ZM191.792 539.103C192.359 539.103 192.79 538.665 192.79 538.111C192.79 537.551 192.359 537.113 191.792 537.113C191.225 537.113 190.787 537.551 190.787 538.111C190.787 538.665 191.225 539.103 191.792 539.103ZM195.066 541.475H196.55V537.824H196.659C197.056 538.624 197.924 539.123 198.942 539.123C200.829 539.123 202.019 537.646 202.019 535.295V535.281C202.019 532.943 200.815 531.446 198.942 531.446C197.903 531.446 197.09 531.932 196.659 532.745H196.55V531.576H195.066V541.475ZM198.525 537.858C197.288 537.858 196.522 536.881 196.522 535.295V535.281C196.522 533.695 197.288 532.718 198.525 532.718C199.763 532.718 200.508 533.682 200.508 535.281V535.295C200.508 536.888 199.763 537.858 198.525 537.858ZM206.51 539.123C207.549 539.123 208.362 538.645 208.793 537.831H208.909V539H210.386V528.664H208.909V532.752H208.793C208.396 531.952 207.528 531.446 206.51 531.446C204.623 531.446 203.434 532.93 203.434 535.281V535.295C203.434 537.626 204.644 539.123 206.51 539.123ZM206.934 537.858C205.689 537.858 204.944 536.888 204.944 535.295V535.281C204.944 533.688 205.689 532.718 206.934 532.718C208.164 532.718 208.93 533.695 208.93 535.281V535.295C208.93 536.881 208.171 537.858 206.934 537.858ZM213.12 539H214.597V532.745H216.23V531.576H214.583V530.865C214.583 530.113 214.904 529.717 215.725 529.717C215.957 529.717 216.155 529.73 216.292 529.751V528.664C216.039 528.623 215.752 528.596 215.417 528.596C213.872 528.596 213.12 529.32 213.12 530.797V531.576H211.896V532.745H213.12V539Z" fill="#474D66"/>
<path d="M100.805 560H101.836V558.248H103.037V557.305H101.836V551.545H100.307C99.123 553.309 97.8281 555.371 96.6855 557.287V558.248H100.805V560ZM97.7637 557.311V557.24C98.6836 555.688 99.791 553.941 100.74 552.523H100.811V557.311H97.7637ZM106.617 560H107.672V551.545H106.623L104.373 553.162V554.275L106.523 552.717H106.617V560ZM110.66 560.059C111.082 560.059 111.422 559.713 111.422 559.297C111.422 558.875 111.082 558.535 110.66 558.535C110.244 558.535 109.898 558.875 109.898 559.297C109.898 559.713 110.244 560.059 110.66 560.059ZM113.326 560H114.434L118.195 552.523V551.545H112.6V552.488H117.123V552.57L113.326 560ZM119.941 560H120.926V553.543H120.99L123.662 560H124.553L127.225 553.543H127.289V560H128.273V551.545H127.049L124.154 558.6H124.061L121.166 551.545H119.941V560ZM130.43 560H133.729C135.527 560 136.594 559.115 136.594 557.633V557.621C136.594 556.508 135.861 555.717 134.707 555.57V555.477C135.521 555.33 136.166 554.533 136.166 553.66V553.648C136.166 552.359 135.217 551.545 133.664 551.545H130.43V560ZM133.441 552.477C134.49 552.477 135.1 552.975 135.1 553.83V553.842C135.1 554.732 134.449 555.189 133.172 555.189H131.484V552.477H133.441ZM133.471 556.098C134.818 556.098 135.51 556.596 135.51 557.568V557.58C135.51 558.553 134.842 559.068 133.57 559.068H131.484V556.098H133.471Z" fill="#696F8C"/>
<path fill-rule="evenodd" clip-rule="evenodd" d="M610.581 540.522H601.405C601.207 540.522 601.052 540.678 601.052 540.875C601.052 541.073 601.207 541.228 601.405 541.228H601.758V548.287C601.758 548.675 602.075 548.993 602.464 548.993H609.522C609.911 548.993 610.228 548.675 610.228 548.287V541.228H610.581C610.779 541.228 610.934 541.073 610.934 540.875C610.934 540.678 610.779 540.522 610.581 540.522ZM604.581 546.875C604.581 547.263 604.264 547.581 603.875 547.581C603.487 547.581 603.169 547.263 603.169 546.875V542.64C603.169 542.252 603.487 541.934 603.875 541.934C604.264 541.934 604.581 542.252 604.581 542.64V546.875ZM606.699 546.875C606.699 547.263 606.381 547.581 605.993 547.581C605.605 547.581 605.287 547.263 605.287 546.875V542.64C605.287 542.252 605.605 541.934 605.993 541.934C606.381 541.934 606.699 542.252 606.699 542.64V546.875ZM608.816 546.875C608.816 547.263 608.499 547.581 608.111 547.581C607.722 547.581 607.405 547.263 607.405 546.875V542.64C607.405 542.252 607.722 541.934 608.111 541.934C608.499 541.934 608.816 542.252 608.816 542.64V546.875ZM610.228 538.405H607.405C607.405 538.016 607.087 537.699 606.699 537.699H605.287C604.899 537.699 604.581 538.016 604.581 538.405H601.758C601.369 538.405 601.052 538.722 601.052 539.11V539.816H610.934V539.11C610.934 538.722 610.616 538.405 610.228 538.405Z" fill="#8F95B2"/>
<rect x="32.5" y="510.5" width="605" height="65" rx="3.5" stroke="#D8DAE5"/>
<rect x="8.5" y="6.5" width="653" height="593" rx="3.5" stroke="#EDEFF5"/>
</g>
<defs>
<filter id="filter0_d_542_27282" x="0" y="0" width="670" height="610" filterUnits="userSpaceOnUse" color-interpolation-filters="sRGB">
<feFlood flood-opacity="0" result="BackgroundImageFix"/>
<feColorMatrix in="SourceAlpha" type="matrix" values="0 0 0 0 0 0 0 0 0 0 0 0 0 0 0 0 0 0 127 0" result="hardAlpha"/>
<feOffset dy="2"/>
<feGaussianBlur stdDeviation="4"/>
<feColorMatrix type="matrix" values="0 0 0 0 0 0 0 0 0 0 0 0 0 0 0 0 0 0 0.12 0"/>
<feBlend mode="normal" in2="BackgroundImageFix" result="effect1_dropShadow_542_27282"/>
<feBlend mode="normal" in="SourceGraphic" in2="effect1_dropShadow_542_27282" result="shape"/>
</filter>
</defs>
</svg>
