<svg width="654" height="384" viewBox="0 0 654 384" fill="none" xmlns="http://www.w3.org/2000/svg">
<path d="M1.2373 17H7.38965V15.6807H2.76855V7.13574H1.2373V17ZM11.1973 17.123C12.1816 17.123 12.9609 16.6992 13.3984 15.9473H13.5146V17H14.9844V11.9209C14.9844 10.3623 13.9316 9.43262 12.0654 9.43262C10.377 9.43262 9.20801 10.2461 9.03027 11.4629L9.02344 11.5107H10.4521L10.459 11.4834C10.6367 10.957 11.1768 10.6562 11.9971 10.6562C13.002 10.6562 13.5146 11.1074 13.5146 11.9209V12.5771L11.5049 12.6934C9.73438 12.8027 8.73633 13.5752 8.73633 14.9014V14.915C8.73633 16.2617 9.78223 17.123 11.1973 17.123ZM10.2129 14.8535V14.8398C10.2129 14.1699 10.6777 13.8008 11.7031 13.7393L13.5146 13.623V14.2588C13.5146 15.2158 12.7012 15.9404 11.5938 15.9404C10.7939 15.9404 10.2129 15.5371 10.2129 14.8535ZM21.0205 17.123C22.8936 17.123 24.0967 15.626 24.0967 13.2949V13.2812C24.0967 10.9297 22.9072 9.44629 21.0205 9.44629C20.002 9.44629 19.1338 9.95215 18.7373 10.752H18.6279V6.66406H17.1445V17H18.6279V15.8311H18.7373C19.168 16.6445 19.9814 17.123 21.0205 17.123ZM20.6035 15.8584C19.3662 15.8584 18.6006 14.8809 18.6006 13.2949V13.2812C18.6006 11.6953 19.3662 10.7178 20.6035 10.7178C21.8408 10.7178 22.5859 11.6885 22.5859 13.2812V13.2949C22.5859 14.8877 21.8408 15.8584 20.6035 15.8584ZM28.9844 17.1436C30.8848 17.1436 31.9102 16.0498 32.1562 15.0723L32.1699 15.0107L30.7412 15.0176L30.7139 15.0723C30.5361 15.4551 29.9688 15.9268 29.0186 15.9268C27.7949 15.9268 27.0156 15.0996 26.9883 13.6777H32.252V13.1582C32.252 10.9297 30.9805 9.43262 28.9092 9.43262C26.8379 9.43262 25.498 10.9844 25.498 13.3018V13.3086C25.498 15.6602 26.8105 17.1436 28.9844 17.1436ZM28.916 10.6494C29.9209 10.6494 30.666 11.292 30.7822 12.6182H27.0088C27.1387 11.3398 27.9043 10.6494 28.916 10.6494ZM34.084 17H35.5674V6.66406H34.084V17Z" fill="#474D66"/>
<path d="M3.4043 40H4.45898V36.3613L7.45898 31.5449H6.25781L3.97852 35.3008H3.88477L1.60547 31.5449H0.404297L3.4043 36.3613V40ZM10.4121 40.1113C12.2109 40.1113 13.3242 38.8691 13.3242 36.8477V36.8359C13.3242 34.8086 12.2109 33.5723 10.4121 33.5723C8.61328 33.5723 7.5 34.8086 7.5 36.8359V36.8477C7.5 38.8691 8.61328 40.1113 10.4121 40.1113ZM10.4121 39.209C9.2168 39.209 8.54297 38.3359 8.54297 36.8477V36.8359C8.54297 35.3418 9.2168 34.4746 10.4121 34.4746C11.6074 34.4746 12.2812 35.3418 12.2812 36.8359V36.8477C12.2812 38.3359 11.6074 39.209 10.4121 39.209ZM17.0215 40.1113C17.9473 40.1113 18.5859 39.7305 18.8965 39.0566H18.9902V40H20.0098V33.6836H18.9902V37.4219C18.9902 38.5293 18.3984 39.209 17.2852 39.209C16.2773 39.209 15.8672 38.6641 15.8672 37.5273V33.6836H14.8477V37.7734C14.8477 39.2676 15.5859 40.1113 17.0215 40.1113ZM27.873 40.1113C29.3906 40.1113 30.2402 39.2969 30.498 38.1543L30.5098 38.0898L29.502 38.0957L29.4902 38.1309C29.2559 38.834 28.7168 39.209 27.8672 39.209C26.7422 39.209 26.0156 38.2773 26.0156 36.8242V36.8125C26.0156 35.3887 26.7305 34.4746 27.8672 34.4746C28.7754 34.4746 29.3379 34.9785 29.4961 35.5996L29.502 35.6172H30.5156L30.5098 35.582C30.3223 34.457 29.4023 33.5723 27.8672 33.5723C26.0977 33.5723 24.9727 34.8496 24.9727 36.8125V36.8242C24.9727 38.8281 26.1035 40.1113 27.873 40.1113ZM33.7383 40.1113C34.5879 40.1113 35.25 39.7422 35.6484 39.0684H35.7422V40H36.7617V35.6758C36.7617 34.3633 35.9004 33.5723 34.3594 33.5723C33.0117 33.5723 32.0508 34.2402 31.8867 35.2305L31.8809 35.2656H32.9004L32.9062 35.248C33.0703 34.7559 33.5684 34.4746 34.3242 34.4746C35.2676 34.4746 35.7422 34.8965 35.7422 35.6758V36.25L33.9316 36.3613C32.4609 36.4492 31.6289 37.0996 31.6289 38.2246V38.2363C31.6289 39.3848 32.5371 40.1113 33.7383 40.1113ZM32.6719 38.2129V38.2012C32.6719 37.5742 33.0938 37.2344 34.0547 37.1758L35.7422 37.0703V37.6445C35.7422 38.5469 34.9863 39.2266 33.9492 39.2266C33.2168 39.2266 32.6719 38.8516 32.6719 38.2129ZM38.625 40H39.6445V36.2617C39.6445 35.1543 40.2832 34.4746 41.291 34.4746C42.2988 34.4746 42.7676 35.0195 42.7676 36.1562V40H43.7871V35.9102C43.7871 34.4102 42.9961 33.5723 41.5781 33.5723C40.6465 33.5723 40.0547 33.9648 39.7383 34.6328H39.6445V33.6836H38.625V40ZM51.123 40.1113C52.0488 40.1113 52.6875 39.7305 52.998 39.0566H53.0918V40H54.1113V33.6836H53.0918V37.4219C53.0918 38.5293 52.5 39.209 51.3867 39.209C50.3789 39.209 49.9688 38.6641 49.9688 37.5273V33.6836H48.9492V37.7734C48.9492 39.2676 49.6875 40.1113 51.123 40.1113ZM56.0156 42.1094H57.0352V39.0039H57.1289C57.4746 39.6777 58.2305 40.1113 59.0977 40.1113C60.7031 40.1113 61.7461 38.8281 61.7461 36.8477V36.8359C61.7461 34.8672 60.6973 33.5723 59.0977 33.5723C58.2188 33.5723 57.5156 33.9883 57.1289 34.6914H57.0352V33.6836H56.0156V42.1094ZM58.8633 39.209C57.7148 39.209 57.0117 38.3066 57.0117 36.8477V36.8359C57.0117 35.377 57.7148 34.4746 58.8633 34.4746C60.0176 34.4746 60.7031 35.3652 60.7031 36.8359V36.8477C60.7031 38.3184 60.0176 39.209 58.8633 39.209ZM63.3984 40H64.418V31.1758H63.3984V40ZM68.9707 40.1113C70.7695 40.1113 71.8828 38.8691 71.8828 36.8477V36.8359C71.8828 34.8086 70.7695 33.5723 68.9707 33.5723C67.1719 33.5723 66.0586 34.8086 66.0586 36.8359V36.8477C66.0586 38.8691 67.1719 40.1113 68.9707 40.1113ZM68.9707 39.209C67.7754 39.209 67.1016 38.3359 67.1016 36.8477V36.8359C67.1016 35.3418 67.7754 34.4746 68.9707 34.4746C70.166 34.4746 70.8398 35.3418 70.8398 36.8359V36.8477C70.8398 38.3359 70.166 39.209 68.9707 39.209ZM75.1992 40.1113C76.0488 40.1113 76.7109 39.7422 77.1094 39.0684H77.2031V40H78.2227V35.6758C78.2227 34.3633 77.3613 33.5723 75.8203 33.5723C74.4727 33.5723 73.5117 34.2402 73.3477 35.2305L73.3418 35.2656H74.3613L74.3672 35.248C74.5312 34.7559 75.0293 34.4746 75.7852 34.4746C76.7285 34.4746 77.2031 34.8965 77.2031 35.6758V36.25L75.3926 36.3613C73.9219 36.4492 73.0898 37.0996 73.0898 38.2246V38.2363C73.0898 39.3848 73.998 40.1113 75.1992 40.1113ZM74.1328 38.2129V38.2012C74.1328 37.5742 74.5547 37.2344 75.5156 37.1758L77.2031 37.0703V37.6445C77.2031 38.5469 76.4473 39.2266 75.4102 39.2266C74.6777 39.2266 74.1328 38.8516 74.1328 38.2129ZM82.418 40.1113C83.2969 40.1113 84 39.6953 84.3867 38.9922H84.4805V40H85.5V31.1758H84.4805V34.6797H84.3867C84.041 34.0059 83.2852 33.5723 82.418 33.5723C80.8125 33.5723 79.7695 34.8555 79.7695 36.8359V36.8477C79.7695 38.8164 80.8184 40.1113 82.418 40.1113ZM82.6523 39.209C81.498 39.209 80.8125 38.3184 80.8125 36.8477V36.8359C80.8125 35.3652 81.498 34.4746 82.6523 34.4746C83.8008 34.4746 84.5039 35.377 84.5039 36.8359V36.8477C84.5039 38.3066 83.8008 39.209 82.6523 39.209ZM92.9473 40.1113C93.873 40.1113 94.5117 39.7305 94.8223 39.0566H94.916V40H95.9355V33.6836H94.916V37.4219C94.916 38.5293 94.3242 39.209 93.2109 39.209C92.2031 39.209 91.793 38.6641 91.793 37.5273V33.6836H90.7734V37.7734C90.7734 39.2676 91.5117 40.1113 92.9473 40.1113ZM97.8398 42.1094H98.8594V39.0039H98.9531C99.2988 39.6777 100.055 40.1113 100.922 40.1113C102.527 40.1113 103.57 38.8281 103.57 36.8477V36.8359C103.57 34.8672 102.521 33.5723 100.922 33.5723C100.043 33.5723 99.3398 33.9883 98.9531 34.6914H98.8594V33.6836H97.8398V42.1094ZM100.688 39.209C99.5391 39.209 98.8359 38.3066 98.8359 36.8477V36.8359C98.8359 35.377 99.5391 34.4746 100.688 34.4746C101.842 34.4746 102.527 35.3652 102.527 36.8359V36.8477C102.527 38.3184 101.842 39.209 100.688 39.209ZM110.783 40.0469C110.982 40.0469 111.176 40.0234 111.375 39.9883V39.1211C111.188 39.1387 111.088 39.1445 110.906 39.1445C110.25 39.1445 109.992 38.8457 109.992 38.1016V34.5273H111.375V33.6836H109.992V32.0488H108.938V33.6836H107.941V34.5273H108.938V38.3594C108.938 39.5664 109.482 40.0469 110.783 40.0469ZM115.4 40.1113C117.199 40.1113 118.312 38.8691 118.312 36.8477V36.8359C118.312 34.8086 117.199 33.5723 115.4 33.5723C113.602 33.5723 112.488 34.8086 112.488 36.8359V36.8477C112.488 38.8691 113.602 40.1113 115.4 40.1113ZM115.4 39.209C114.205 39.209 113.531 38.3359 113.531 36.8477V36.8359C113.531 35.3418 114.205 34.4746 115.4 34.4746C116.596 34.4746 117.27 35.3418 117.27 36.8359V36.8477C117.27 38.3359 116.596 39.209 115.4 39.209ZM125.332 40H126.387V31.5449H125.338L123.088 33.1621V34.2754L125.238 32.7168H125.332V40ZM131.66 40.1992C133.529 40.1992 134.654 38.4941 134.654 35.7754V35.7637C134.654 33.0449 133.529 31.3457 131.66 31.3457C129.791 31.3457 128.678 33.0449 128.678 35.7637V35.7754C128.678 38.4941 129.791 40.1992 131.66 40.1992ZM131.66 39.2793C130.447 39.2793 129.738 37.9316 129.738 35.7754V35.7637C129.738 33.6074 130.447 32.2715 131.66 32.2715C132.873 32.2715 133.594 33.6074 133.594 35.7637V35.7754C133.594 37.9316 132.873 39.2793 131.66 39.2793ZM140.191 40H141.211V34.5273H142.646V33.6836H141.211V33.0098C141.211 32.3184 141.504 31.9609 142.23 31.9609C142.412 31.9609 142.582 31.9668 142.705 31.9902V31.1758C142.494 31.1348 142.271 31.1172 142.025 31.1172C140.824 31.1172 140.191 31.7207 140.191 32.9805V33.6836H139.143V34.5273H140.191V40ZM144.656 32.4648C145.043 32.4648 145.359 32.1484 145.359 31.7617C145.359 31.375 145.043 31.0586 144.656 31.0586C144.27 31.0586 143.953 31.375 143.953 31.7617C143.953 32.1484 144.27 32.4648 144.656 32.4648ZM144.141 40H145.16V33.6836H144.141V40ZM147.141 40H148.16V31.1758H147.141V40ZM152.695 40.1113C154.184 40.1113 155.086 39.2676 155.303 38.4121L155.314 38.3652H154.295L154.271 38.418C154.102 38.7988 153.574 39.2031 152.719 39.2031C151.594 39.2031 150.873 38.4414 150.844 37.1348H155.391V36.7363C155.391 34.8496 154.348 33.5723 152.631 33.5723C150.914 33.5723 149.801 34.9082 149.801 36.8594V36.8652C149.801 38.8457 150.891 40.1113 152.695 40.1113ZM152.625 34.4805C153.557 34.4805 154.248 35.0723 154.354 36.3203H150.861C150.973 35.1191 151.688 34.4805 152.625 34.4805ZM159.141 40.1113C160.576 40.1113 161.672 39.332 161.672 38.207V38.1953C161.672 37.293 161.098 36.7773 159.908 36.4902L158.936 36.2559C158.191 36.0742 157.875 35.8047 157.875 35.377V35.3652C157.875 34.8086 158.426 34.4219 159.176 34.4219C159.938 34.4219 160.43 34.7676 160.564 35.2656H161.566C161.426 34.2344 160.506 33.5723 159.182 33.5723C157.84 33.5723 156.832 34.3633 156.832 35.4121V35.418C156.832 36.3262 157.365 36.8418 158.549 37.123L159.527 37.3574C160.307 37.5449 160.629 37.8438 160.629 38.2715V38.2832C160.629 38.8574 160.025 39.2617 159.176 39.2617C158.367 39.2617 157.863 38.916 157.693 38.3887H156.65C156.768 39.4316 157.734 40.1113 159.141 40.1113ZM164.086 40.0586C164.508 40.0586 164.848 39.7129 164.848 39.2969C164.848 38.875 164.508 38.5352 164.086 38.5352C163.67 38.5352 163.324 38.875 163.324 39.2969C163.324 39.7129 163.67 40.0586 164.086 40.0586ZM170.32 40H171.375V36.3379H175.119V35.4004H171.375V32.4941H175.453V31.5449H170.32V40ZM177.598 32.4648C177.984 32.4648 178.301 32.1484 178.301 31.7617C178.301 31.375 177.984 31.0586 177.598 31.0586C177.211 31.0586 176.895 31.375 176.895 31.7617C176.895 32.1484 177.211 32.4648 177.598 32.4648ZM177.082 40H178.102V33.6836H177.082V40ZM180.082 40H181.102V31.1758H180.082V40ZM185.637 40.1113C187.125 40.1113 188.027 39.2676 188.244 38.4121L188.256 38.3652H187.236L187.213 38.418C187.043 38.7988 186.516 39.2031 185.66 39.2031C184.535 39.2031 183.814 38.4414 183.785 37.1348H188.332V36.7363C188.332 34.8496 187.289 33.5723 185.572 33.5723C183.855 33.5723 182.742 34.9082 182.742 36.8594V36.8652C182.742 38.8457 183.832 40.1113 185.637 40.1113ZM185.566 34.4805C186.498 34.4805 187.189 35.0723 187.295 36.3203H183.803C183.914 35.1191 184.629 34.4805 185.566 34.4805ZM192.082 40.1113C193.518 40.1113 194.613 39.332 194.613 38.207V38.1953C194.613 37.293 194.039 36.7773 192.85 36.4902L191.877 36.2559C191.133 36.0742 190.816 35.8047 190.816 35.377V35.3652C190.816 34.8086 191.367 34.4219 192.117 34.4219C192.879 34.4219 193.371 34.7676 193.506 35.2656H194.508C194.367 34.2344 193.447 33.5723 192.123 33.5723C190.781 33.5723 189.773 34.3633 189.773 35.4121V35.418C189.773 36.3262 190.307 36.8418 191.49 37.123L192.469 37.3574C193.248 37.5449 193.57 37.8438 193.57 38.2715V38.2832C193.57 38.8574 192.967 39.2617 192.117 39.2617C191.309 39.2617 190.805 38.916 190.635 38.3887H189.592C189.709 39.4316 190.676 40.1113 192.082 40.1113ZM202.154 40.1113C203.672 40.1113 204.521 39.2969 204.779 38.1543L204.791 38.0898L203.783 38.0957L203.771 38.1309C203.537 38.834 202.998 39.209 202.148 39.209C201.023 39.209 200.297 38.2773 200.297 36.8242V36.8125C200.297 35.3887 201.012 34.4746 202.148 34.4746C203.057 34.4746 203.619 34.9785 203.777 35.5996L203.783 35.6172H204.797L204.791 35.582C204.604 34.457 203.684 33.5723 202.148 33.5723C200.379 33.5723 199.254 34.8496 199.254 36.8125V36.8242C199.254 38.8281 200.385 40.1113 202.154 40.1113ZM208.02 40.1113C208.869 40.1113 209.531 39.7422 209.93 39.0684H210.023V40H211.043V35.6758C211.043 34.3633 210.182 33.5723 208.641 33.5723C207.293 33.5723 206.332 34.2402 206.168 35.2305L206.162 35.2656H207.182L207.188 35.248C207.352 34.7559 207.85 34.4746 208.605 34.4746C209.549 34.4746 210.023 34.8965 210.023 35.6758V36.25L208.213 36.3613C206.742 36.4492 205.91 37.0996 205.91 38.2246V38.2363C205.91 39.3848 206.818 40.1113 208.02 40.1113ZM206.953 38.2129V38.2012C206.953 37.5742 207.375 37.2344 208.336 37.1758L210.023 37.0703V37.6445C210.023 38.5469 209.268 39.2266 208.23 39.2266C207.498 39.2266 206.953 38.8516 206.953 38.2129ZM212.906 40H213.926V36.2617C213.926 35.1543 214.564 34.4746 215.572 34.4746C216.58 34.4746 217.049 35.0195 217.049 36.1562V40H218.068V35.9102C218.068 34.4102 217.277 33.5723 215.859 33.5723C214.928 33.5723 214.336 33.9648 214.02 34.6328H213.926V33.6836H212.906V40ZM226.43 40.1113C228.029 40.1113 229.078 38.8164 229.078 36.8477V36.8359C229.078 34.8555 228.035 33.5723 226.43 33.5723C225.562 33.5723 224.807 34.0059 224.461 34.6797H224.367V31.1758H223.348V40H224.367V38.9922H224.461C224.848 39.6953 225.551 40.1113 226.43 40.1113ZM226.195 39.209C225.047 39.209 224.344 38.3066 224.344 36.8477V36.8359C224.344 35.377 225.047 34.4746 226.195 34.4746C227.35 34.4746 228.035 35.3652 228.035 36.8359V36.8477C228.035 38.3184 227.35 39.209 226.195 39.209ZM233.238 40.1113C234.727 40.1113 235.629 39.2676 235.846 38.4121L235.857 38.3652H234.838L234.814 38.418C234.645 38.7988 234.117 39.2031 233.262 39.2031C232.137 39.2031 231.416 38.4414 231.387 37.1348H235.934V36.7363C235.934 34.8496 234.891 33.5723 233.174 33.5723C231.457 33.5723 230.344 34.9082 230.344 36.8594V36.8652C230.344 38.8457 231.434 40.1113 233.238 40.1113ZM233.168 34.4805C234.1 34.4805 234.791 35.0723 234.896 36.3203H231.404C231.516 35.1191 232.23 34.4805 233.168 34.4805ZM243.006 40.1113C243.932 40.1113 244.57 39.7305 244.881 39.0566H244.975V40H245.994V33.6836H244.975V37.4219C244.975 38.5293 244.383 39.209 243.27 39.209C242.262 39.209 241.852 38.6641 241.852 37.5273V33.6836H240.832V37.7734C240.832 39.2676 241.57 40.1113 243.006 40.1113ZM247.898 42.1094H248.918V39.0039H249.012C249.357 39.6777 250.113 40.1113 250.98 40.1113C252.586 40.1113 253.629 38.8281 253.629 36.8477V36.8359C253.629 34.8672 252.58 33.5723 250.98 33.5723C250.102 33.5723 249.398 33.9883 249.012 34.6914H248.918V33.6836H247.898V42.1094ZM250.746 39.209C249.598 39.209 248.895 38.3066 248.895 36.8477V36.8359C248.895 35.377 249.598 34.4746 250.746 34.4746C251.9 34.4746 252.586 35.3652 252.586 36.8359V36.8477C252.586 38.3184 251.9 39.209 250.746 39.209ZM260.842 40.0469C261.041 40.0469 261.234 40.0234 261.434 39.9883V39.1211C261.246 39.1387 261.146 39.1445 260.965 39.1445C260.309 39.1445 260.051 38.8457 260.051 38.1016V34.5273H261.434V33.6836H260.051V32.0488H258.996V33.6836H258V34.5273H258.996V38.3594C258.996 39.5664 259.541 40.0469 260.842 40.0469ZM265.459 40.1113C267.258 40.1113 268.371 38.8691 268.371 36.8477V36.8359C268.371 34.8086 267.258 33.5723 265.459 33.5723C263.66 33.5723 262.547 34.8086 262.547 36.8359V36.8477C262.547 38.8691 263.66 40.1113 265.459 40.1113ZM265.459 39.209C264.264 39.209 263.59 38.3359 263.59 36.8477V36.8359C263.59 35.3418 264.264 34.4746 265.459 34.4746C266.654 34.4746 267.328 35.3418 267.328 36.8359V36.8477C267.328 38.3359 266.654 39.209 265.459 39.209ZM276.1 40.1992C277.816 40.1992 279.041 39.0098 279.041 37.3047V37.293C279.041 35.6582 277.898 34.4688 276.311 34.4688C275.543 34.4688 274.881 34.7793 274.506 35.3477H274.412L274.699 32.4883H278.572V31.5449H273.867L273.422 36.4023H274.336C274.441 36.2031 274.576 36.0391 274.723 35.8984C275.086 35.5527 275.566 35.3828 276.129 35.3828C277.225 35.3828 278.01 36.1855 278.01 37.3105V37.3223C278.01 38.4648 277.236 39.2676 276.111 39.2676C275.121 39.2676 274.389 38.623 274.289 37.8145L274.283 37.7676H273.27L273.275 37.832C273.398 39.1855 274.523 40.1992 276.1 40.1992ZM283.57 40.1992C285.439 40.1992 286.564 38.4941 286.564 35.7754V35.7637C286.564 33.0449 285.439 31.3457 283.57 31.3457C281.701 31.3457 280.588 33.0449 280.588 35.7637V35.7754C280.588 38.4941 281.701 40.1992 283.57 40.1992ZM283.57 39.2793C282.357 39.2793 281.648 37.9316 281.648 35.7754V35.7637C281.648 33.6074 282.357 32.2715 283.57 32.2715C284.783 32.2715 285.504 33.6074 285.504 35.7637V35.7754C285.504 37.9316 284.783 39.2793 283.57 39.2793ZM288.434 40H289.418V33.543H289.482L292.154 40H293.045L295.717 33.543H295.781V40H296.766V31.5449H295.541L292.646 38.5996H292.553L289.658 31.5449H288.434V40ZM298.922 40H302.221C304.02 40 305.086 39.1152 305.086 37.6328V37.6211C305.086 36.5078 304.354 35.7168 303.199 35.5703V35.4766C304.014 35.3301 304.658 34.5332 304.658 33.6602V33.6484C304.658 32.3594 303.709 31.5449 302.156 31.5449H298.922V40ZM301.934 32.4766C302.982 32.4766 303.592 32.9746 303.592 33.8301V33.8418C303.592 34.7324 302.941 35.1895 301.664 35.1895H299.977V32.4766H301.934ZM301.963 36.0977C303.311 36.0977 304.002 36.5957 304.002 37.5684V37.5801C304.002 38.5527 303.334 39.0684 302.062 39.0684H299.977V36.0977H301.963ZM307.512 40.0586C307.934 40.0586 308.273 39.7129 308.273 39.2969C308.273 38.875 307.934 38.5352 307.512 38.5352C307.096 38.5352 306.75 38.875 306.75 39.2969C306.75 39.7129 307.096 40.0586 307.512 40.0586ZM316.072 40H317.127V36.3613L320.127 31.5449H318.926L316.646 35.3008H316.553L314.273 31.5449H313.072L316.072 36.3613V40ZM323.08 40.1113C324.879 40.1113 325.992 38.8691 325.992 36.8477V36.8359C325.992 34.8086 324.879 33.5723 323.08 33.5723C321.281 33.5723 320.168 34.8086 320.168 36.8359V36.8477C320.168 38.8691 321.281 40.1113 323.08 40.1113ZM323.08 39.209C321.885 39.209 321.211 38.3359 321.211 36.8477V36.8359C321.211 35.3418 321.885 34.4746 323.08 34.4746C324.275 34.4746 324.949 35.3418 324.949 36.8359V36.8477C324.949 38.3359 324.275 39.209 323.08 39.209ZM329.689 40.1113C330.615 40.1113 331.254 39.7305 331.564 39.0566H331.658V40H332.678V33.6836H331.658V37.4219C331.658 38.5293 331.066 39.209 329.953 39.209C328.945 39.209 328.535 38.6641 328.535 37.5273V33.6836H327.516V37.7734C327.516 39.2676 328.254 40.1113 329.689 40.1113ZM340.541 40.1113C342.059 40.1113 342.908 39.2969 343.166 38.1543L343.178 38.0898L342.17 38.0957L342.158 38.1309C341.924 38.834 341.385 39.209 340.535 39.209C339.41 39.209 338.684 38.2773 338.684 36.8242V36.8125C338.684 35.3887 339.398 34.4746 340.535 34.4746C341.443 34.4746 342.006 34.9785 342.164 35.5996L342.17 35.6172H343.184L343.178 35.582C342.99 34.457 342.07 33.5723 340.535 33.5723C338.766 33.5723 337.641 34.8496 337.641 36.8125V36.8242C337.641 38.8281 338.771 40.1113 340.541 40.1113ZM346.406 40.1113C347.256 40.1113 347.918 39.7422 348.316 39.0684H348.41V40H349.43V35.6758C349.43 34.3633 348.568 33.5723 347.027 33.5723C345.68 33.5723 344.719 34.2402 344.555 35.2305L344.549 35.2656H345.568L345.574 35.248C345.738 34.7559 346.236 34.4746 346.992 34.4746C347.936 34.4746 348.41 34.8965 348.41 35.6758V36.25L346.6 36.3613C345.129 36.4492 344.297 37.0996 344.297 38.2246V38.2363C344.297 39.3848 345.205 40.1113 346.406 40.1113ZM345.34 38.2129V38.2012C345.34 37.5742 345.762 37.2344 346.723 37.1758L348.41 37.0703V37.6445C348.41 38.5469 347.654 39.2266 346.617 39.2266C345.885 39.2266 345.34 38.8516 345.34 38.2129ZM351.293 40H352.312V36.2617C352.312 35.1543 352.951 34.4746 353.959 34.4746C354.967 34.4746 355.436 35.0195 355.436 36.1562V40H356.455V35.9102C356.455 34.4102 355.664 33.5723 354.246 33.5723C353.314 33.5723 352.723 33.9648 352.406 34.6328H352.312V33.6836H351.293V40ZM363.791 40.1113C364.717 40.1113 365.355 39.7305 365.666 39.0566H365.76V40H366.779V33.6836H365.76V37.4219C365.76 38.5293 365.168 39.209 364.055 39.209C363.047 39.209 362.637 38.6641 362.637 37.5273V33.6836H361.617V37.7734C361.617 39.2676 362.355 40.1113 363.791 40.1113ZM368.684 42.1094H369.703V39.0039H369.797C370.143 39.6777 370.898 40.1113 371.766 40.1113C373.371 40.1113 374.414 38.8281 374.414 36.8477V36.8359C374.414 34.8672 373.365 33.5723 371.766 33.5723C370.887 33.5723 370.184 33.9883 369.797 34.6914H369.703V33.6836H368.684V42.1094ZM371.531 39.209C370.383 39.209 369.68 38.3066 369.68 36.8477V36.8359C369.68 35.377 370.383 34.4746 371.531 34.4746C372.686 34.4746 373.371 35.3652 373.371 36.8359V36.8477C373.371 38.3184 372.686 39.209 371.531 39.209ZM376.066 40H377.086V31.1758H376.066V40ZM381.639 40.1113C383.438 40.1113 384.551 38.8691 384.551 36.8477V36.8359C384.551 34.8086 383.438 33.5723 381.639 33.5723C379.84 33.5723 378.727 34.8086 378.727 36.8359V36.8477C378.727 38.8691 379.84 40.1113 381.639 40.1113ZM381.639 39.209C380.443 39.209 379.77 38.3359 379.77 36.8477V36.8359C379.77 35.3418 380.443 34.4746 381.639 34.4746C382.834 34.4746 383.508 35.3418 383.508 36.8359V36.8477C383.508 38.3359 382.834 39.209 381.639 39.209ZM387.867 40.1113C388.717 40.1113 389.379 39.7422 389.777 39.0684H389.871V40H390.891V35.6758C390.891 34.3633 390.029 33.5723 388.488 33.5723C387.141 33.5723 386.18 34.2402 386.016 35.2305L386.01 35.2656H387.029L387.035 35.248C387.199 34.7559 387.697 34.4746 388.453 34.4746C389.396 34.4746 389.871 34.8965 389.871 35.6758V36.25L388.061 36.3613C386.59 36.4492 385.758 37.0996 385.758 38.2246V38.2363C385.758 39.3848 386.666 40.1113 387.867 40.1113ZM386.801 38.2129V38.2012C386.801 37.5742 387.223 37.2344 388.184 37.1758L389.871 37.0703V37.6445C389.871 38.5469 389.115 39.2266 388.078 39.2266C387.346 39.2266 386.801 38.8516 386.801 38.2129ZM395.086 40.1113C395.965 40.1113 396.668 39.6953 397.055 38.9922H397.148V40H398.168V31.1758H397.148V34.6797H397.055C396.709 34.0059 395.953 33.5723 395.086 33.5723C393.48 33.5723 392.438 34.8555 392.438 36.8359V36.8477C392.438 38.8164 393.486 40.1113 395.086 40.1113ZM395.32 39.209C394.166 39.209 393.48 38.3184 393.48 36.8477V36.8359C393.48 35.3652 394.166 34.4746 395.32 34.4746C396.469 34.4746 397.172 35.377 397.172 36.8359V36.8477C397.172 38.3066 396.469 39.209 395.32 39.209ZM404.332 40.0586C404.754 40.0586 405.094 39.7129 405.094 39.2969C405.094 38.875 404.754 38.5352 404.332 38.5352C403.916 38.5352 403.57 38.875 403.57 39.2969C403.57 39.7129 403.916 40.0586 404.332 40.0586ZM407.59 32.4648C407.977 32.4648 408.293 32.1484 408.293 31.7617C408.293 31.375 407.977 31.0586 407.59 31.0586C407.203 31.0586 406.887 31.375 406.887 31.7617C406.887 32.1484 407.203 32.4648 407.59 32.4648ZM406.16 42.168C407.484 42.168 408.1 41.6113 408.1 40.3105V33.6836H407.08V40.3281C407.08 41.0254 406.822 41.2656 406.137 41.2656H405.984V42.168H406.16ZM410.027 42.1094H411.047V39.0039H411.141C411.486 39.6777 412.242 40.1113 413.109 40.1113C414.715 40.1113 415.758 38.8281 415.758 36.8477V36.8359C415.758 34.8672 414.709 33.5723 413.109 33.5723C412.23 33.5723 411.527 33.9883 411.141 34.6914H411.047V33.6836H410.027V42.1094ZM412.875 39.209C411.727 39.209 411.023 38.3066 411.023 36.8477V36.8359C411.023 35.377 411.727 34.4746 412.875 34.4746C414.029 34.4746 414.715 35.3652 414.715 36.8359V36.8477C414.715 38.3184 414.029 39.209 412.875 39.209ZM419.953 42.2266C421.676 42.2266 422.766 41.3242 422.766 39.9121V33.6836H421.746V34.7266H421.676C421.289 34.0117 420.598 33.5723 419.707 33.5723C418.055 33.5723 417.035 34.8555 417.035 36.625V36.6367C417.035 38.4062 418.049 39.6719 419.684 39.6719C420.551 39.6719 421.266 39.2793 421.664 38.582H421.758V39.8594C421.758 40.791 421.084 41.3242 419.953 41.3242C419.045 41.3242 418.482 40.9844 418.371 40.5039L418.365 40.498H417.311L417.299 40.5039C417.457 41.541 418.43 42.2266 419.953 42.2266ZM419.906 38.7695C418.734 38.7695 418.078 37.8906 418.078 36.6367V36.625C418.078 35.3711 418.734 34.4746 419.906 34.4746C421.072 34.4746 421.781 35.3711 421.781 36.625V36.6367C421.781 37.8906 421.078 38.7695 419.906 38.7695ZM429.773 40.1113C430.623 40.1113 431.285 39.7422 431.684 39.0684H431.777V40H432.797V35.6758C432.797 34.3633 431.936 33.5723 430.395 33.5723C429.047 33.5723 428.086 34.2402 427.922 35.2305L427.916 35.2656H428.936L428.941 35.248C429.105 34.7559 429.604 34.4746 430.359 34.4746C431.303 34.4746 431.777 34.8965 431.777 35.6758V36.25L429.967 36.3613C428.496 36.4492 427.664 37.0996 427.664 38.2246V38.2363C427.664 39.3848 428.572 40.1113 429.773 40.1113ZM428.707 38.2129V38.2012C428.707 37.5742 429.129 37.2344 430.09 37.1758L431.777 37.0703V37.6445C431.777 38.5469 431.021 39.2266 429.984 39.2266C429.252 39.2266 428.707 38.8516 428.707 38.2129ZM434.66 40H435.68V36.2617C435.68 35.1543 436.318 34.4746 437.326 34.4746C438.334 34.4746 438.803 35.0195 438.803 36.1562V40H439.822V35.9102C439.822 34.4102 439.031 33.5723 437.613 33.5723C436.682 33.5723 436.09 33.9648 435.773 34.6328H435.68V33.6836H434.66V40ZM444 40.1113C444.879 40.1113 445.582 39.6953 445.969 38.9922H446.062V40H447.082V31.1758H446.062V34.6797H445.969C445.623 34.0059 444.867 33.5723 444 33.5723C442.395 33.5723 441.352 34.8555 441.352 36.8359V36.8477C441.352 38.8164 442.4 40.1113 444 40.1113ZM444.234 39.209C443.08 39.209 442.395 38.3184 442.395 36.8477V36.8359C442.395 35.3652 443.08 34.4746 444.234 34.4746C445.383 34.4746 446.086 35.377 446.086 36.8359V36.8477C446.086 38.3066 445.383 39.209 444.234 39.209ZM453.246 40.0586C453.668 40.0586 454.008 39.7129 454.008 39.2969C454.008 38.875 453.668 38.5352 453.246 38.5352C452.83 38.5352 452.484 38.875 452.484 39.2969C452.484 39.7129 452.83 40.0586 453.246 40.0586ZM455.977 42.1094H456.996V39.0039H457.09C457.436 39.6777 458.191 40.1113 459.059 40.1113C460.664 40.1113 461.707 38.8281 461.707 36.8477V36.8359C461.707 34.8672 460.658 33.5723 459.059 33.5723C458.18 33.5723 457.477 33.9883 457.09 34.6914H456.996V33.6836H455.977V42.1094ZM458.824 39.209C457.676 39.209 456.973 38.3066 456.973 36.8477V36.8359C456.973 35.377 457.676 34.4746 458.824 34.4746C459.979 34.4746 460.664 35.3652 460.664 36.8359V36.8477C460.664 38.3184 459.979 39.209 458.824 39.209ZM465.633 40.1113C466.512 40.1113 467.215 39.6953 467.602 38.9922H467.695V40H468.715V31.1758H467.695V34.6797H467.602C467.256 34.0059 466.5 33.5723 465.633 33.5723C464.027 33.5723 462.984 34.8555 462.984 36.8359V36.8477C462.984 38.8164 464.033 40.1113 465.633 40.1113ZM465.867 39.209C464.713 39.209 464.027 38.3184 464.027 36.8477V36.8359C464.027 35.3652 464.713 34.4746 465.867 34.4746C467.016 34.4746 467.719 35.377 467.719 36.8359V36.8477C467.719 38.3066 467.016 39.209 465.867 39.209ZM471.094 40H472.113V34.5273H473.549V33.6836H472.113V33.0098C472.113 32.3184 472.406 31.9609 473.133 31.9609C473.314 31.9609 473.484 31.9668 473.607 31.9902V31.1758C473.396 31.1348 473.174 31.1172 472.928 31.1172C471.727 31.1172 471.094 31.7207 471.094 32.9805V33.6836H470.045V34.5273H471.094V40ZM478.816 40H479.836V34.5273H481.271V33.6836H479.836V33.0098C479.836 32.3184 480.129 31.9609 480.855 31.9609C481.037 31.9609 481.207 31.9668 481.33 31.9902V31.1758C481.119 31.1348 480.896 31.1172 480.65 31.1172C479.449 31.1172 478.816 31.7207 478.816 32.9805V33.6836H477.768V34.5273H478.816V40ZM483.281 32.4648C483.668 32.4648 483.984 32.1484 483.984 31.7617C483.984 31.375 483.668 31.0586 483.281 31.0586C482.895 31.0586 482.578 31.375 482.578 31.7617C482.578 32.1484 482.895 32.4648 483.281 32.4648ZM482.766 40H483.785V33.6836H482.766V40ZM485.766 40H486.785V31.1758H485.766V40ZM491.32 40.1113C492.809 40.1113 493.711 39.2676 493.928 38.4121L493.939 38.3652H492.92L492.896 38.418C492.727 38.7988 492.199 39.2031 491.344 39.2031C490.219 39.2031 489.498 38.4414 489.469 37.1348H494.016V36.7363C494.016 34.8496 492.973 33.5723 491.256 33.5723C489.539 33.5723 488.426 34.9082 488.426 36.8594V36.8652C488.426 38.8457 489.516 40.1113 491.32 40.1113ZM491.25 34.4805C492.182 34.4805 492.873 35.0723 492.979 36.3203H489.486C489.598 35.1191 490.312 34.4805 491.25 34.4805ZM499.395 40H500.414V34.5273H501.85V33.6836H500.414V33.0098C500.414 32.3184 500.707 31.9609 501.434 31.9609C501.615 31.9609 501.785 31.9668 501.908 31.9902V31.1758C501.697 31.1348 501.475 31.1172 501.229 31.1172C500.027 31.1172 499.395 31.7207 499.395 32.9805V33.6836H498.346V34.5273H499.395V40ZM505.646 40.1113C507.445 40.1113 508.559 38.8691 508.559 36.8477V36.8359C508.559 34.8086 507.445 33.5723 505.646 33.5723C503.848 33.5723 502.734 34.8086 502.734 36.8359V36.8477C502.734 38.8691 503.848 40.1113 505.646 40.1113ZM505.646 39.209C504.451 39.209 503.777 38.3359 503.777 36.8477V36.8359C503.777 35.3418 504.451 34.4746 505.646 34.4746C506.842 34.4746 507.516 35.3418 507.516 36.8359V36.8477C507.516 38.3359 506.842 39.209 505.646 39.209ZM510.141 40H511.16V36.0859C511.16 35.1602 511.852 34.5449 512.824 34.5449C513.047 34.5449 513.24 34.5684 513.451 34.6035V33.6133C513.352 33.5957 513.135 33.5723 512.941 33.5723C512.086 33.5723 511.494 33.959 511.254 34.6211H511.16V33.6836H510.141V40ZM514.828 40H515.848V36.0859C515.848 35.1953 516.475 34.4746 517.301 34.4746C518.098 34.4746 518.613 34.9609 518.613 35.7109V40H519.633V35.9395C519.633 35.1367 520.213 34.4746 521.092 34.4746C521.982 34.4746 522.41 34.9375 522.41 35.8691V40H523.43V35.6348C523.43 34.3105 522.709 33.5723 521.42 33.5723C520.547 33.5723 519.826 34.0117 519.486 34.6797H519.393C519.1 34.0234 518.502 33.5723 517.646 33.5723C516.82 33.5723 516.223 33.9648 515.941 34.6445H515.848V33.6836H514.828V40ZM527.004 40.1113C527.854 40.1113 528.516 39.7422 528.914 39.0684H529.008V40H530.027V35.6758C530.027 34.3633 529.166 33.5723 527.625 33.5723C526.277 33.5723 525.316 34.2402 525.152 35.2305L525.146 35.2656H526.166L526.172 35.248C526.336 34.7559 526.834 34.4746 527.59 34.4746C528.533 34.4746 529.008 34.8965 529.008 35.6758V36.25L527.197 36.3613C525.727 36.4492 524.895 37.0996 524.895 38.2246V38.2363C524.895 39.3848 525.803 40.1113 527.004 40.1113ZM525.938 38.2129V38.2012C525.938 37.5742 526.359 37.2344 527.32 37.1758L529.008 37.0703V37.6445C529.008 38.5469 528.252 39.2266 527.215 39.2266C526.482 39.2266 525.938 38.8516 525.938 38.2129ZM534.135 40.0469C534.334 40.0469 534.527 40.0234 534.727 39.9883V39.1211C534.539 39.1387 534.439 39.1445 534.258 39.1445C533.602 39.1445 533.344 38.8457 533.344 38.1016V34.5273H534.727V33.6836H533.344V32.0488H532.289V33.6836H531.293V34.5273H532.289V38.3594C532.289 39.5664 532.834 40.0469 534.135 40.0469ZM538.301 40.1113C539.736 40.1113 540.832 39.332 540.832 38.207V38.1953C540.832 37.293 540.258 36.7773 539.068 36.4902L538.096 36.2559C537.352 36.0742 537.035 35.8047 537.035 35.377V35.3652C537.035 34.8086 537.586 34.4219 538.336 34.4219C539.098 34.4219 539.59 34.7676 539.725 35.2656H540.727C540.586 34.2344 539.666 33.5723 538.342 33.5723C537 33.5723 535.992 34.3633 535.992 35.4121V35.418C535.992 36.3262 536.525 36.8418 537.709 37.123L538.688 37.3574C539.467 37.5449 539.789 37.8438 539.789 38.2715V38.2832C539.789 38.8574 539.186 39.2617 538.336 39.2617C537.527 39.2617 537.023 38.916 536.854 38.3887H535.811C535.928 39.4316 536.895 40.1113 538.301 40.1113ZM543.246 40.0586C543.668 40.0586 544.008 39.7129 544.008 39.2969C544.008 38.875 543.668 38.5352 543.246 38.5352C542.83 38.5352 542.484 38.875 542.484 39.2969C542.484 39.7129 542.83 40.0586 543.246 40.0586Z" fill="#696F8C"/>
<rect x="0.5" y="52.5" width="653" height="183" rx="3.5" fill="#FAFBFF"/>
<rect x="299" y="92" width="56" height="56" rx="28" fill="#EDEFF5"/>
<path fill-rule="evenodd" clip-rule="evenodd" d="M327 108C320.37 108 315 113.37 315 120C315 126.63 320.37 132 327 132C333.63 132 339 126.63 339 120C339 113.37 333.63 108 327 108ZM331.5 120C331.08 120 330.705 119.835 330.435 119.565L328.5 117.615V126C328.5 126.825 327.825 127.5 327 127.5C326.175 127.5 325.5 126.825 325.5 126V117.615L323.565 119.565C323.295 119.835 322.92 120 322.5 120C321.675 120 321 119.325 321 118.5C321 118.08 321.165 117.705 321.435 117.435L325.935 112.935C326.205 112.665 326.58 112.5 327 112.5C327.42 112.5 327.795 112.665 328.065 112.935L332.565 117.435C332.835 117.705 333 118.08 333 118.5C333 119.325 332.325 120 331.5 120Z" fill="#C1C4D6"/>
<path d="M260.237 189H264.291C266.396 189 267.661 187.947 267.661 186.218V186.204C267.661 184.919 266.772 183.976 265.439 183.832V183.716C266.41 183.552 267.169 182.629 267.169 181.604V181.59C267.169 180.079 266.055 179.136 264.202 179.136H260.237V189ZM263.847 180.387C264.981 180.387 265.645 180.927 265.645 181.856V181.87C265.645 182.827 264.94 183.333 263.587 183.333H261.769V180.387H263.847ZM263.895 184.502C265.337 184.502 266.096 185.049 266.096 186.108V186.122C266.096 187.182 265.364 187.749 263.983 187.749H261.769V184.502H263.895ZM269.459 189H270.942V184.563C270.942 183.49 271.715 182.793 272.85 182.793C273.13 182.793 273.383 182.827 273.649 182.882V181.515C273.499 181.48 273.239 181.446 273 181.446C272.009 181.446 271.318 181.911 271.052 182.697H270.942V181.576H269.459V189ZM278.018 189.144C280.191 189.144 281.524 187.688 281.524 185.295V185.281C281.524 182.889 280.185 181.433 278.018 181.433C275.844 181.433 274.504 182.896 274.504 185.281V185.295C274.504 187.688 275.837 189.144 278.018 189.144ZM278.018 187.906C276.739 187.906 276.021 186.942 276.021 185.295V185.281C276.021 183.634 276.739 182.67 278.018 182.67C279.289 182.67 280.014 183.634 280.014 185.281V185.295C280.014 186.936 279.289 187.906 278.018 187.906ZM284.437 189H285.947L287.479 183.463H287.595L289.133 189H290.657L292.701 181.576H291.231L289.905 187.305H289.789L288.258 181.576H286.85L285.318 187.305H285.209L283.876 181.576H282.386L284.437 189ZM296.714 189.144C298.478 189.144 299.79 188.207 299.79 186.833V186.819C299.79 185.746 299.106 185.138 297.678 184.803L296.502 184.536C295.668 184.338 295.326 184.051 295.326 183.586V183.572C295.326 182.978 295.914 182.574 296.728 182.574C297.562 182.574 298.088 182.964 298.231 183.483V183.497H299.646V183.49C299.517 182.28 298.43 181.433 296.734 181.433C295.053 181.433 293.85 182.362 293.85 183.654V183.661C293.85 184.748 294.499 185.384 295.9 185.705L297.083 185.979C297.944 186.177 298.293 186.491 298.293 186.956V186.97C298.293 187.578 297.657 187.995 296.741 187.995C295.859 187.995 295.319 187.619 295.135 187.059L295.128 187.052H293.645V187.059C293.788 188.303 294.923 189.144 296.714 189.144ZM304.678 189.144C306.578 189.144 307.604 188.05 307.85 187.072L307.863 187.011L306.435 187.018L306.407 187.072C306.229 187.455 305.662 187.927 304.712 187.927C303.488 187.927 302.709 187.1 302.682 185.678H307.945V185.158C307.945 182.93 306.674 181.433 304.603 181.433C302.531 181.433 301.191 182.984 301.191 185.302V185.309C301.191 187.66 302.504 189.144 304.678 189.144ZM304.609 182.649C305.614 182.649 306.359 183.292 306.476 184.618H302.702C302.832 183.34 303.598 182.649 304.609 182.649Z" fill="#3366FF"/>
<path d="M317.211 189.144C319.385 189.144 320.718 187.688 320.718 185.295V185.281C320.718 182.889 319.378 181.433 317.211 181.433C315.037 181.433 313.697 182.896 313.697 185.281V185.295C313.697 187.688 315.03 189.144 317.211 189.144ZM317.211 187.906C315.933 187.906 315.215 186.942 315.215 185.295V185.281C315.215 183.634 315.933 182.67 317.211 182.67C318.482 182.67 319.207 183.634 319.207 185.281V185.295C319.207 186.936 318.482 187.906 317.211 187.906ZM322.488 189H323.972V184.563C323.972 183.49 324.744 182.793 325.879 182.793C326.159 182.793 326.412 182.827 326.679 182.882V181.515C326.528 181.48 326.269 181.446 326.029 181.446C325.038 181.446 324.348 181.911 324.081 182.697H323.972V181.576H322.488V189ZM334.629 189.123C335.668 189.123 336.481 188.645 336.912 187.831H337.028V189H338.505V178.664H337.028V182.752H336.912C336.516 181.952 335.647 181.446 334.629 181.446C332.742 181.446 331.553 182.93 331.553 185.281V185.295C331.553 187.626 332.763 189.123 334.629 189.123ZM335.053 187.858C333.809 187.858 333.063 186.888 333.063 185.295V185.281C333.063 183.688 333.809 182.718 335.053 182.718C336.283 182.718 337.049 183.695 337.049 185.281V185.295C337.049 186.881 336.29 187.858 335.053 187.858ZM340.713 189H342.196V184.563C342.196 183.49 342.969 182.793 344.104 182.793C344.384 182.793 344.637 182.827 344.903 182.882V181.515C344.753 181.48 344.493 181.446 344.254 181.446C343.263 181.446 342.572 181.911 342.306 182.697H342.196V181.576H340.713V189ZM348.301 189.123C349.285 189.123 350.064 188.699 350.502 187.947H350.618V189H352.088V183.921C352.088 182.362 351.035 181.433 349.169 181.433C347.48 181.433 346.312 182.246 346.134 183.463L346.127 183.511H347.556L347.562 183.483C347.74 182.957 348.28 182.656 349.101 182.656C350.105 182.656 350.618 183.107 350.618 183.921V184.577L348.608 184.693C346.838 184.803 345.84 185.575 345.84 186.901V186.915C345.84 188.262 346.886 189.123 348.301 189.123ZM347.316 186.854V186.84C347.316 186.17 347.781 185.801 348.807 185.739L350.618 185.623V186.259C350.618 187.216 349.805 187.94 348.697 187.94C347.897 187.94 347.316 187.537 347.316 186.854ZM357.317 191.618C359.423 191.618 360.756 190.538 360.756 188.85V181.576H359.279V182.793H359.19C358.76 181.959 357.953 181.446 356.914 181.446C354.986 181.446 353.804 182.943 353.804 185.062V185.076C353.804 187.168 354.979 188.638 356.887 188.638C357.905 188.638 358.726 188.187 359.177 187.38H359.286V188.843C359.286 189.854 358.562 190.429 357.338 190.429C356.333 190.429 355.731 190.066 355.608 189.554L355.602 189.54H354.104L354.091 189.554C354.269 190.791 355.431 191.618 357.317 191.618ZM357.297 187.414C356.032 187.414 355.321 186.45 355.321 185.069V185.056C355.321 183.675 356.032 182.704 357.297 182.704C358.548 182.704 359.313 183.675 359.313 185.056V185.069C359.313 186.457 358.555 187.414 357.297 187.414ZM367.243 189H368.72V182.745H370.354V181.576H368.706V180.865C368.706 180.113 369.027 179.717 369.848 179.717C370.08 179.717 370.278 179.73 370.415 179.751V178.664C370.162 178.623 369.875 178.596 369.54 178.596C367.995 178.596 367.243 179.32 367.243 180.797V181.576H366.02V182.745H367.243V189ZM372.794 180.25C373.3 180.25 373.724 179.833 373.724 179.327C373.724 178.814 373.3 178.397 372.794 178.397C372.281 178.397 371.864 178.814 371.864 179.327C371.864 179.833 372.281 180.25 372.794 180.25ZM372.049 189H373.525V181.576H372.049V189ZM375.754 189H377.237V178.664H375.754V189ZM382.562 189.144C384.463 189.144 385.488 188.05 385.734 187.072L385.748 187.011L384.319 187.018L384.292 187.072C384.114 187.455 383.547 187.927 382.597 187.927C381.373 187.927 380.594 187.1 380.566 185.678H385.83V185.158C385.83 182.93 384.559 181.433 382.487 181.433C380.416 181.433 379.076 182.984 379.076 185.302V185.309C379.076 187.66 380.389 189.144 382.562 189.144ZM382.494 182.649C383.499 182.649 384.244 183.292 384.36 184.618H380.587C380.717 183.34 381.482 182.649 382.494 182.649ZM390.294 189.144C392.058 189.144 393.37 188.207 393.37 186.833V186.819C393.37 185.746 392.687 185.138 391.258 184.803L390.082 184.536C389.248 184.338 388.906 184.051 388.906 183.586V183.572C388.906 182.978 389.494 182.574 390.308 182.574C391.142 182.574 391.668 182.964 391.812 183.483V183.497H393.227V183.49C393.097 182.28 392.01 181.433 390.314 181.433C388.633 181.433 387.43 182.362 387.43 183.654V183.661C387.43 184.748 388.079 185.384 389.48 185.705L390.663 185.979C391.524 186.177 391.873 186.491 391.873 186.956V186.97C391.873 187.578 391.237 187.995 390.321 187.995C389.439 187.995 388.899 187.619 388.715 187.059L388.708 187.052H387.225V187.059C387.368 188.303 388.503 189.144 390.294 189.144Z" fill="#696F8C"/>
<rect x="0.5" y="52.5" width="653" height="183" rx="3.5" stroke="#D8DAE5" stroke-dasharray="4 4"/>
<rect x="16" y="257" width="40" height="40" rx="4" fill="#F4F6FA"/>
<path fill-rule="evenodd" clip-rule="evenodd" d="M40.226 276.049C40.7436 276.049 41.1672 275.626 41.1672 275.108C41.1672 274.591 40.7436 274.167 40.226 274.167C39.7084 274.167 39.2848 274.591 39.2848 275.108C39.2848 275.626 39.7084 276.049 40.226 276.049ZM43.0495 271.344H29.8731C29.3554 271.344 28.9319 271.767 28.9319 272.285V281.696C28.9319 282.214 29.3554 282.638 29.8731 282.638H43.0495C43.5672 282.638 43.9907 282.214 43.9907 281.696V272.285C43.9907 271.767 43.5672 271.344 43.0495 271.344ZM42.1084 279.814L37.4025 276.991L36.4613 278.873L33.6378 275.108L30.8142 279.814V273.226H42.1084V279.814Z" fill="#8F95B2"/>
<path d="M68.5732 273.239C70.8701 273.239 72.3398 272.063 72.3398 270.177V270.17C72.3398 268.707 71.4922 267.873 69.4209 267.429L68.3477 267.189C67.0693 266.916 66.5498 266.438 66.5498 265.706V265.699C66.5498 264.77 67.4043 264.229 68.5596 264.229C69.7559 264.223 70.5283 264.811 70.6582 265.617L70.6719 265.706H72.1553L72.1484 265.61C72.0391 264.079 70.6719 262.896 68.5801 262.896C66.4883 262.896 65.0117 264.072 65.0049 265.774V265.781C65.0049 267.237 65.8662 268.167 67.8691 268.591L68.9492 268.823C70.2549 269.104 70.7881 269.596 70.7881 270.354V270.361C70.7881 271.277 69.8926 271.906 68.6348 271.906C67.3154 271.906 66.3652 271.332 66.2832 270.437L66.2764 270.361H64.7725L64.7793 270.45C64.916 272.111 66.3447 273.239 68.5732 273.239ZM76.1816 273.123C77.166 273.123 77.9453 272.699 78.3828 271.947H78.499V273H79.9688V267.921C79.9688 266.362 78.916 265.433 77.0498 265.433C75.3613 265.433 74.1924 266.246 74.0146 267.463L74.0078 267.511H75.4365L75.4434 267.483C75.6211 266.957 76.1611 266.656 76.9814 266.656C77.9863 266.656 78.499 267.107 78.499 267.921V268.577L76.4893 268.693C74.7188 268.803 73.7207 269.575 73.7207 270.901V270.915C73.7207 272.262 74.7666 273.123 76.1816 273.123ZM75.1973 270.854V270.84C75.1973 270.17 75.6621 269.801 76.6875 269.739L78.499 269.623V270.259C78.499 271.216 77.6855 271.94 76.5781 271.94C75.7783 271.94 75.1973 271.537 75.1973 270.854ZM82.0605 273H83.5439V268.44C83.5439 267.47 84.207 266.704 85.1025 266.704C85.9775 266.704 86.5312 267.237 86.5312 268.085V273H88.0078V268.304C88.0078 267.408 88.6299 266.704 89.5732 266.704C90.5439 266.704 91.0088 267.21 91.0088 268.235V273H92.4854V267.88C92.4854 266.335 91.6104 265.433 90.1133 265.433C89.0811 265.433 88.2266 265.959 87.8506 266.759H87.7344C87.4062 265.959 86.6885 265.433 85.6768 265.433C84.7061 265.433 83.9814 265.904 83.6533 266.718H83.5439V265.576H82.0605V273ZM94.5566 275.475H96.04V271.824H96.1494C96.5459 272.624 97.4141 273.123 98.4326 273.123C100.319 273.123 101.509 271.646 101.509 269.295V269.281C101.509 266.943 100.306 265.446 98.4326 265.446C97.3936 265.446 96.5801 265.932 96.1494 266.745H96.04V265.576H94.5566V275.475ZM98.0156 271.858C96.7783 271.858 96.0127 270.881 96.0127 269.295V269.281C96.0127 267.695 96.7783 266.718 98.0156 266.718C99.2529 266.718 99.998 267.682 99.998 269.281V269.295C99.998 270.888 99.2529 271.858 98.0156 271.858ZM103.361 273H104.845V262.664H103.361V273ZM110.17 273.144C112.07 273.144 113.096 272.05 113.342 271.072L113.355 271.011L111.927 271.018L111.899 271.072C111.722 271.455 111.154 271.927 110.204 271.927C108.98 271.927 108.201 271.1 108.174 269.678H113.438V269.158C113.438 266.93 112.166 265.433 110.095 265.433C108.023 265.433 106.684 266.984 106.684 269.302V269.309C106.684 271.66 107.996 273.144 110.17 273.144ZM110.102 266.649C111.106 266.649 111.852 267.292 111.968 268.618H108.194C108.324 267.34 109.09 266.649 110.102 266.649ZM115.181 269.705H119.754V268.345H115.181V269.705ZM122.044 273H123.575V263.136H122.044V273ZM125.879 273H127.362V268.44C127.362 267.47 128.025 266.704 128.921 266.704C129.796 266.704 130.35 267.237 130.35 268.085V273H131.826V268.304C131.826 267.408 132.448 266.704 133.392 266.704C134.362 266.704 134.827 267.21 134.827 268.235V273H136.304V267.88C136.304 266.335 135.429 265.433 133.932 265.433C132.899 265.433 132.045 265.959 131.669 266.759H131.553C131.225 265.959 130.507 265.433 129.495 265.433C128.524 265.433 127.8 265.904 127.472 266.718H127.362V265.576H125.879V273ZM140.412 273.123C141.396 273.123 142.176 272.699 142.613 271.947H142.729V273H144.199V267.921C144.199 266.362 143.146 265.433 141.28 265.433C139.592 265.433 138.423 266.246 138.245 267.463L138.238 267.511H139.667L139.674 267.483C139.852 266.957 140.392 266.656 141.212 266.656C142.217 266.656 142.729 267.107 142.729 267.921V268.577L140.72 268.693C138.949 268.803 137.951 269.575 137.951 270.901V270.915C137.951 272.262 138.997 273.123 140.412 273.123ZM139.428 270.854V270.84C139.428 270.17 139.893 269.801 140.918 269.739L142.729 269.623V270.259C142.729 271.216 141.916 271.94 140.809 271.94C140.009 271.94 139.428 271.537 139.428 270.854ZM149.429 275.618C151.534 275.618 152.867 274.538 152.867 272.85V265.576H151.391V266.793H151.302C150.871 265.959 150.064 265.446 149.025 265.446C147.098 265.446 145.915 266.943 145.915 269.062V269.076C145.915 271.168 147.091 272.638 148.998 272.638C150.017 272.638 150.837 272.187 151.288 271.38H151.397V272.843C151.397 273.854 150.673 274.429 149.449 274.429C148.444 274.429 147.843 274.066 147.72 273.554L147.713 273.54H146.216L146.202 273.554C146.38 274.791 147.542 275.618 149.429 275.618ZM149.408 271.414C148.144 271.414 147.433 270.45 147.433 269.069V269.056C147.433 267.675 148.144 266.704 149.408 266.704C150.659 266.704 151.425 267.675 151.425 269.056V269.069C151.425 270.457 150.666 271.414 149.408 271.414ZM158.117 273.144C160.018 273.144 161.043 272.05 161.289 271.072L161.303 271.011L159.874 271.018L159.847 271.072C159.669 271.455 159.102 271.927 158.151 271.927C156.928 271.927 156.148 271.1 156.121 269.678H161.385V269.158C161.385 266.93 160.113 265.433 158.042 265.433C155.971 265.433 154.631 266.984 154.631 269.302V269.309C154.631 271.66 155.943 273.144 158.117 273.144ZM158.049 266.649C159.054 266.649 159.799 267.292 159.915 268.618H156.142C156.271 267.34 157.037 266.649 158.049 266.649ZM164.29 273.103C164.857 273.103 165.288 272.665 165.288 272.111C165.288 271.551 164.857 271.113 164.29 271.113C163.723 271.113 163.285 271.551 163.285 272.111C163.285 272.665 163.723 273.103 164.29 273.103ZM167.564 275.475H169.048V271.824H169.157C169.554 272.624 170.422 273.123 171.44 273.123C173.327 273.123 174.517 271.646 174.517 269.295V269.281C174.517 266.943 173.313 265.446 171.44 265.446C170.401 265.446 169.588 265.932 169.157 266.745H169.048V265.576H167.564V275.475ZM171.023 271.858C169.786 271.858 169.021 270.881 169.021 269.295V269.281C169.021 267.695 169.786 266.718 171.023 266.718C172.261 266.718 173.006 267.682 173.006 269.281V269.295C173.006 270.888 172.261 271.858 171.023 271.858ZM176.301 273H177.784V268.646C177.784 267.449 178.461 266.704 179.548 266.704C180.635 266.704 181.147 267.312 181.147 268.543V273H182.624V268.194C182.624 266.424 181.708 265.433 180.047 265.433C178.967 265.433 178.256 265.911 177.894 266.704H177.784V265.576H176.301V273ZM187.833 275.618C189.938 275.618 191.271 274.538 191.271 272.85V265.576H189.795V266.793H189.706C189.275 265.959 188.469 265.446 187.43 265.446C185.502 265.446 184.319 266.943 184.319 269.062V269.076C184.319 271.168 185.495 272.638 187.402 272.638C188.421 272.638 189.241 272.187 189.692 271.38H189.802V272.843C189.802 273.854 189.077 274.429 187.854 274.429C186.849 274.429 186.247 274.066 186.124 273.554L186.117 273.54H184.62L184.606 273.554C184.784 274.791 185.946 275.618 187.833 275.618ZM187.812 271.414C186.548 271.414 185.837 270.45 185.837 269.069V269.056C185.837 267.675 186.548 266.704 187.812 266.704C189.063 266.704 189.829 267.675 189.829 269.056V269.069C189.829 270.457 189.07 271.414 187.812 271.414Z" fill="#474D66"/>
<path d="M67.709 285.346C66.0039 285.346 64.75 286.57 64.75 288.258V288.27C64.75 289.893 65.9336 291.1 67.5215 291.1C68.6641 291.1 69.4609 290.484 69.7715 289.793H69.8828C69.8828 289.857 69.8828 289.928 69.877 289.992C69.8125 291.756 69.1855 293.256 67.6504 293.256C66.7949 293.256 66.2031 292.816 65.9453 292.107L65.9219 292.043H64.8613L64.8789 292.119C65.166 293.367 66.2207 294.199 67.6387 294.199C69.6895 294.199 70.8906 292.512 70.8906 289.629V289.617C70.8906 286.436 69.2559 285.346 67.709 285.346ZM67.7031 290.18C66.6074 290.18 65.8105 289.371 65.8105 288.246V288.234C65.8105 287.139 66.6602 286.277 67.7207 286.277C68.793 286.277 69.6309 287.156 69.6309 288.27V288.275C69.6309 289.377 68.7988 290.18 67.7031 290.18ZM72.9531 294.059C73.375 294.059 73.7148 293.713 73.7148 293.297C73.7148 292.875 73.375 292.535 72.9531 292.535C72.5371 292.535 72.1914 292.875 72.1914 293.297C72.1914 293.713 72.5371 294.059 72.9531 294.059ZM75.4434 294H80.916V293.051H76.9082V292.957L78.8301 290.971C80.3594 289.395 80.7754 288.691 80.7754 287.725V287.713C80.7754 286.348 79.6445 285.346 78.168 285.346C76.5508 285.346 75.3906 286.424 75.3848 287.924L75.3965 287.93L76.4043 287.936L76.4102 287.924C76.4102 286.928 77.084 286.266 78.0977 286.266C79.0938 286.266 79.6973 286.934 79.6973 287.824V287.836C79.6973 288.574 79.3809 289.014 78.3027 290.18L75.4434 293.273V294ZM82.8203 294H83.8047V287.543H83.8691L86.541 294H87.4316L90.1035 287.543H90.168V294H91.1523V285.545H89.9277L87.0332 292.6H86.9395L84.0449 285.545H82.8203V294ZM93.3086 294H96.6074C98.4062 294 99.4727 293.115 99.4727 291.633V291.621C99.4727 290.508 98.7402 289.717 97.5859 289.57V289.477C98.4004 289.33 99.0449 288.533 99.0449 287.66V287.648C99.0449 286.359 98.0957 285.545 96.543 285.545H93.3086V294ZM96.3203 286.477C97.3691 286.477 97.9785 286.975 97.9785 287.83V287.842C97.9785 288.732 97.3281 289.189 96.0508 289.189H94.3633V286.477H96.3203ZM96.3496 290.098C97.6973 290.098 98.3887 290.596 98.3887 291.568V291.58C98.3887 292.553 97.7207 293.068 96.4492 293.068H94.3633V290.098H96.3496Z" fill="#696F8C"/>
<path fill-rule="evenodd" clip-rule="evenodd" d="M626.581 274.522H617.405C617.207 274.522 617.052 274.678 617.052 274.875C617.052 275.073 617.207 275.228 617.405 275.228H617.758V282.287C617.758 282.675 618.075 282.993 618.464 282.993H625.522C625.911 282.993 626.228 282.675 626.228 282.287V275.228H626.581C626.779 275.228 626.934 275.073 626.934 274.875C626.934 274.678 626.779 274.522 626.581 274.522ZM620.581 280.875C620.581 281.264 620.264 281.581 619.875 281.581C619.487 281.581 619.169 281.264 619.169 280.875V276.64C619.169 276.252 619.487 275.934 619.875 275.934C620.264 275.934 620.581 276.252 620.581 276.64V280.875ZM622.699 280.875C622.699 281.264 622.381 281.581 621.993 281.581C621.605 281.581 621.287 281.264 621.287 280.875V276.64C621.287 276.252 621.605 275.934 621.993 275.934C622.381 275.934 622.699 276.252 622.699 276.64V280.875ZM624.816 280.875C624.816 281.264 624.499 281.581 624.111 281.581C623.722 281.581 623.405 281.264 623.405 280.875V276.64C623.405 276.252 623.722 275.934 624.111 275.934C624.499 275.934 624.816 276.252 624.816 276.64V280.875ZM626.228 272.405H623.405C623.405 272.016 623.087 271.699 622.699 271.699H621.287C620.899 271.699 620.581 272.016 620.581 272.405H617.758C617.369 272.405 617.052 272.722 617.052 273.111V273.816H626.934V273.111C626.934 272.722 626.616 272.405 626.228 272.405Z" fill="#8F95B2"/>
<rect x="0.5" y="244.5" width="653" height="65" rx="3.5" stroke="#D8DAE5"/>
<rect x="16" y="331" width="40" height="40" rx="4" fill="#F4F6FA"/>
<path fill-rule="evenodd" clip-rule="evenodd" d="M40.226 350.049C40.7436 350.049 41.1672 349.626 41.1672 349.108C41.1672 348.591 40.7436 348.167 40.226 348.167C39.7084 348.167 39.2848 348.591 39.2848 349.108C39.2848 349.626 39.7084 350.049 40.226 350.049ZM43.0495 345.344H29.8731C29.3554 345.344 28.9319 345.767 28.9319 346.285V355.696C28.9319 356.214 29.3554 356.638 29.8731 356.638H43.0495C43.5672 356.638 43.9907 356.214 43.9907 355.696V346.285C43.9907 345.767 43.5672 345.344 43.0495 345.344ZM42.1084 353.814L37.4025 350.991L36.4613 352.873L33.6378 349.108L30.8142 353.814V347.226H42.1084V353.814Z" fill="#8F95B2"/>
<path d="M68.5732 347.239C70.8701 347.239 72.3398 346.063 72.3398 344.177V344.17C72.3398 342.707 71.4922 341.873 69.4209 341.429L68.3477 341.189C67.0693 340.916 66.5498 340.438 66.5498 339.706V339.699C66.5498 338.77 67.4043 338.229 68.5596 338.229C69.7559 338.223 70.5283 338.811 70.6582 339.617L70.6719 339.706H72.1553L72.1484 339.61C72.0391 338.079 70.6719 336.896 68.5801 336.896C66.4883 336.896 65.0117 338.072 65.0049 339.774V339.781C65.0049 341.237 65.8662 342.167 67.8691 342.591L68.9492 342.823C70.2549 343.104 70.7881 343.596 70.7881 344.354V344.361C70.7881 345.277 69.8926 345.906 68.6348 345.906C67.3154 345.906 66.3652 345.332 66.2832 344.437L66.2764 344.361H64.7725L64.7793 344.45C64.916 346.111 66.3447 347.239 68.5732 347.239ZM76.1816 347.123C77.166 347.123 77.9453 346.699 78.3828 345.947H78.499V347H79.9688V341.921C79.9688 340.362 78.916 339.433 77.0498 339.433C75.3613 339.433 74.1924 340.246 74.0146 341.463L74.0078 341.511H75.4365L75.4434 341.483C75.6211 340.957 76.1611 340.656 76.9814 340.656C77.9863 340.656 78.499 341.107 78.499 341.921V342.577L76.4893 342.693C74.7188 342.803 73.7207 343.575 73.7207 344.901V344.915C73.7207 346.262 74.7666 347.123 76.1816 347.123ZM75.1973 344.854V344.84C75.1973 344.17 75.6621 343.801 76.6875 343.739L78.499 343.623V344.259C78.499 345.216 77.6855 345.94 76.5781 345.94C75.7783 345.94 75.1973 345.537 75.1973 344.854ZM82.0605 347H83.5439V342.44C83.5439 341.47 84.207 340.704 85.1025 340.704C85.9775 340.704 86.5312 341.237 86.5312 342.085V347H88.0078V342.304C88.0078 341.408 88.6299 340.704 89.5732 340.704C90.5439 340.704 91.0088 341.21 91.0088 342.235V347H92.4854V341.88C92.4854 340.335 91.6104 339.433 90.1133 339.433C89.0811 339.433 88.2266 339.959 87.8506 340.759H87.7344C87.4062 339.959 86.6885 339.433 85.6768 339.433C84.7061 339.433 83.9814 339.904 83.6533 340.718H83.5439V339.576H82.0605V347ZM94.5566 349.475H96.04V345.824H96.1494C96.5459 346.624 97.4141 347.123 98.4326 347.123C100.319 347.123 101.509 345.646 101.509 343.295V343.281C101.509 340.943 100.306 339.446 98.4326 339.446C97.3936 339.446 96.5801 339.932 96.1494 340.745H96.04V339.576H94.5566V349.475ZM98.0156 345.858C96.7783 345.858 96.0127 344.881 96.0127 343.295V343.281C96.0127 341.695 96.7783 340.718 98.0156 340.718C99.2529 340.718 99.998 341.682 99.998 343.281V343.295C99.998 344.888 99.2529 345.858 98.0156 345.858ZM103.361 347H104.845V336.664H103.361V347ZM110.17 347.144C112.07 347.144 113.096 346.05 113.342 345.072L113.355 345.011L111.927 345.018L111.899 345.072C111.722 345.455 111.154 345.927 110.204 345.927C108.98 345.927 108.201 345.1 108.174 343.678H113.438V343.158C113.438 340.93 112.166 339.433 110.095 339.433C108.023 339.433 106.684 340.984 106.684 343.302V343.309C106.684 345.66 107.996 347.144 110.17 347.144ZM110.102 340.649C111.106 340.649 111.852 341.292 111.968 342.618H108.194C108.324 341.34 109.09 340.649 110.102 340.649ZM115.181 343.705H119.754V342.345H115.181V343.705ZM122.044 347H123.575V337.136H122.044V347ZM125.879 347H127.362V342.44C127.362 341.47 128.025 340.704 128.921 340.704C129.796 340.704 130.35 341.237 130.35 342.085V347H131.826V342.304C131.826 341.408 132.448 340.704 133.392 340.704C134.362 340.704 134.827 341.21 134.827 342.235V347H136.304V341.88C136.304 340.335 135.429 339.433 133.932 339.433C132.899 339.433 132.045 339.959 131.669 340.759H131.553C131.225 339.959 130.507 339.433 129.495 339.433C128.524 339.433 127.8 339.904 127.472 340.718H127.362V339.576H125.879V347ZM140.412 347.123C141.396 347.123 142.176 346.699 142.613 345.947H142.729V347H144.199V341.921C144.199 340.362 143.146 339.433 141.28 339.433C139.592 339.433 138.423 340.246 138.245 341.463L138.238 341.511H139.667L139.674 341.483C139.852 340.957 140.392 340.656 141.212 340.656C142.217 340.656 142.729 341.107 142.729 341.921V342.577L140.72 342.693C138.949 342.803 137.951 343.575 137.951 344.901V344.915C137.951 346.262 138.997 347.123 140.412 347.123ZM139.428 344.854V344.84C139.428 344.17 139.893 343.801 140.918 343.739L142.729 343.623V344.259C142.729 345.216 141.916 345.94 140.809 345.94C140.009 345.94 139.428 345.537 139.428 344.854ZM149.429 349.618C151.534 349.618 152.867 348.538 152.867 346.85V339.576H151.391V340.793H151.302C150.871 339.959 150.064 339.446 149.025 339.446C147.098 339.446 145.915 340.943 145.915 343.062V343.076C145.915 345.168 147.091 346.638 148.998 346.638C150.017 346.638 150.837 346.187 151.288 345.38H151.397V346.843C151.397 347.854 150.673 348.429 149.449 348.429C148.444 348.429 147.843 348.066 147.72 347.554L147.713 347.54H146.216L146.202 347.554C146.38 348.791 147.542 349.618 149.429 349.618ZM149.408 345.414C148.144 345.414 147.433 344.45 147.433 343.069V343.056C147.433 341.675 148.144 340.704 149.408 340.704C150.659 340.704 151.425 341.675 151.425 343.056V343.069C151.425 344.457 150.666 345.414 149.408 345.414ZM158.117 347.144C160.018 347.144 161.043 346.05 161.289 345.072L161.303 345.011L159.874 345.018L159.847 345.072C159.669 345.455 159.102 345.927 158.151 345.927C156.928 345.927 156.148 345.1 156.121 343.678H161.385V343.158C161.385 340.93 160.113 339.433 158.042 339.433C155.971 339.433 154.631 340.984 154.631 343.302V343.309C154.631 345.66 155.943 347.144 158.117 347.144ZM158.049 340.649C159.054 340.649 159.799 341.292 159.915 342.618H156.142C156.271 341.34 157.037 340.649 158.049 340.649ZM163.128 343.705H167.701V342.345H163.128V343.705ZM169.82 347H176.465V345.694H171.905V345.558L173.997 343.473C175.788 341.695 176.308 340.834 176.308 339.713V339.692C176.308 338.065 174.954 336.896 173.115 336.896C171.133 336.896 169.738 338.168 169.731 339.973L169.745 339.986H171.181L171.188 339.966C171.188 338.886 171.926 338.161 173.033 338.161C174.113 338.161 174.776 338.872 174.776 339.836V339.856C174.776 340.656 174.4 341.162 173.095 342.522L169.82 345.961V347ZM179.438 347.103C180.006 347.103 180.437 346.665 180.437 346.111C180.437 345.551 180.006 345.113 179.438 345.113C178.871 345.113 178.434 345.551 178.434 346.111C178.434 346.665 178.871 347.103 179.438 347.103ZM182.713 349.475H184.196V345.824H184.306C184.702 346.624 185.57 347.123 186.589 347.123C188.476 347.123 189.665 345.646 189.665 343.295V343.281C189.665 340.943 188.462 339.446 186.589 339.446C185.55 339.446 184.736 339.932 184.306 340.745H184.196V339.576H182.713V349.475ZM186.172 345.858C184.935 345.858 184.169 344.881 184.169 343.295V343.281C184.169 341.695 184.935 340.718 186.172 340.718C187.409 340.718 188.154 341.682 188.154 343.281V343.295C188.154 344.888 187.409 345.858 186.172 345.858ZM191.449 347H192.933V342.646C192.933 341.449 193.609 340.704 194.696 340.704C195.783 340.704 196.296 341.312 196.296 342.543V347H197.772V342.194C197.772 340.424 196.856 339.433 195.195 339.433C194.115 339.433 193.404 339.911 193.042 340.704H192.933V339.576H191.449V347ZM202.981 349.618C205.087 349.618 206.42 348.538 206.42 346.85V339.576H204.943V340.793H204.854C204.424 339.959 203.617 339.446 202.578 339.446C200.65 339.446 199.468 340.943 199.468 343.062V343.076C199.468 345.168 200.644 346.638 202.551 346.638C203.569 346.638 204.39 346.187 204.841 345.38H204.95V346.843C204.95 347.854 204.226 348.429 203.002 348.429C201.997 348.429 201.396 348.066 201.272 347.554L201.266 347.54H199.769L199.755 347.554C199.933 348.791 201.095 349.618 202.981 349.618ZM202.961 345.414C201.696 345.414 200.985 344.45 200.985 343.069V343.056C200.985 341.675 201.696 340.704 202.961 340.704C204.212 340.704 204.978 341.675 204.978 343.056V343.069C204.978 344.457 204.219 345.414 202.961 345.414Z" fill="#474D66"/>
<path d="M68.8047 368H69.8359V366.248H71.0371V365.305H69.8359V359.545H68.3066C67.123 361.309 65.8281 363.371 64.6855 365.287V366.248H68.8047V368ZM65.7637 365.311V365.24C66.6836 363.688 67.791 361.941 68.7402 360.523H68.8105V365.311H65.7637ZM73.0938 368.059C73.5156 368.059 73.8555 367.713 73.8555 367.297C73.8555 366.875 73.5156 366.535 73.0938 366.535C72.6777 366.535 72.332 366.875 72.332 367.297C72.332 367.713 72.6777 368.059 73.0938 368.059ZM75.7598 368H76.8672L80.6289 360.523V359.545H75.0332V360.488H79.5566V360.57L75.7598 368ZM82.375 368H83.3594V361.543H83.4238L86.0957 368H86.9863L89.6582 361.543H89.7227V368H90.707V359.545H89.4824L86.5879 366.6H86.4941L83.5996 359.545H82.375V368ZM92.8633 368H96.1621C97.9609 368 99.0273 367.115 99.0273 365.633V365.621C99.0273 364.508 98.2949 363.717 97.1406 363.57V363.477C97.9551 363.33 98.5996 362.533 98.5996 361.66V361.648C98.5996 360.359 97.6504 359.545 96.0977 359.545H92.8633V368ZM95.875 360.477C96.9238 360.477 97.5332 360.975 97.5332 361.83V361.842C97.5332 362.732 96.8828 363.189 95.6055 363.189H93.918V360.477H95.875ZM95.9043 364.098C97.252 364.098 97.9434 364.596 97.9434 365.568V365.58C97.9434 366.553 97.2754 367.068 96.0039 367.068H93.918V364.098H95.9043Z" fill="#696F8C"/>
<path fill-rule="evenodd" clip-rule="evenodd" d="M626.581 348.522H617.405C617.207 348.522 617.052 348.678 617.052 348.875C617.052 349.073 617.207 349.228 617.405 349.228H617.758V356.287C617.758 356.675 618.075 356.993 618.464 356.993H625.522C625.911 356.993 626.228 356.675 626.228 356.287V349.228H626.581C626.779 349.228 626.934 349.073 626.934 348.875C626.934 348.678 626.779 348.522 626.581 348.522ZM620.581 354.875C620.581 355.264 620.264 355.581 619.875 355.581C619.487 355.581 619.169 355.264 619.169 354.875V350.64C619.169 350.252 619.487 349.934 619.875 349.934C620.264 349.934 620.581 350.252 620.581 350.64V354.875ZM622.699 354.875C622.699 355.264 622.381 355.581 621.993 355.581C621.605 355.581 621.287 355.264 621.287 354.875V350.64C621.287 350.252 621.605 349.934 621.993 349.934C622.381 349.934 622.699 350.252 622.699 350.64V354.875ZM624.816 354.875C624.816 355.264 624.499 355.581 624.111 355.581C623.722 355.581 623.405 355.264 623.405 354.875V350.64C623.405 350.252 623.722 349.934 624.111 349.934C624.499 349.934 624.816 350.252 624.816 350.64V354.875ZM626.228 346.405H623.405C623.405 346.016 623.087 345.699 622.699 345.699H621.287C620.899 345.699 620.581 346.016 620.581 346.405H617.758C617.369 346.405 617.052 346.722 617.052 347.111V347.816H626.934V347.111C626.934 346.722 626.616 346.405 626.228 346.405Z" fill="#8F95B2"/>
<rect x="0.5" y="318.5" width="653" height="65" rx="3.5" stroke="#D8DAE5"/>
</svg>
