<svg width="670" height="382" viewBox="0 0 670 382" fill="none" xmlns="http://www.w3.org/2000/svg">
<g filter="url(#filter0_d_542_25504)">
<rect x="8" y="6" width="654" height="366" rx="4" fill="white"/>
<path d="M33.2373 47H39.3896V45.6807H34.7686V37.1357H33.2373V47ZM43.1973 47.123C44.1816 47.123 44.9609 46.6992 45.3984 45.9473H45.5146V47H46.9844V41.9209C46.9844 40.3623 45.9316 39.4326 44.0654 39.4326C42.377 39.4326 41.208 40.2461 41.0303 41.4629L41.0234 41.5107H42.4521L42.459 41.4834C42.6367 40.957 43.1768 40.6562 43.9971 40.6562C45.002 40.6562 45.5146 41.1074 45.5146 41.9209V42.5771L43.5049 42.6934C41.7344 42.8027 40.7363 43.5752 40.7363 44.9014V44.915C40.7363 46.2617 41.7822 47.123 43.1973 47.123ZM42.2129 44.8535V44.8398C42.2129 44.1699 42.6777 43.8008 43.7031 43.7393L45.5146 43.623V44.2588C45.5146 45.2158 44.7012 45.9404 43.5938 45.9404C42.7939 45.9404 42.2129 45.5371 42.2129 44.8535ZM53.0205 47.123C54.8936 47.123 56.0967 45.626 56.0967 43.2949V43.2812C56.0967 40.9297 54.9072 39.4463 53.0205 39.4463C52.002 39.4463 51.1338 39.9521 50.7373 40.752H50.6279V36.6641H49.1445V47H50.6279V45.8311H50.7373C51.168 46.6445 51.9814 47.123 53.0205 47.123ZM52.6035 45.8584C51.3662 45.8584 50.6006 44.8809 50.6006 43.2949V43.2812C50.6006 41.6953 51.3662 40.7178 52.6035 40.7178C53.8408 40.7178 54.5859 41.6885 54.5859 43.2812V43.2949C54.5859 44.8877 53.8408 45.8584 52.6035 45.8584ZM60.9844 47.1436C62.8848 47.1436 63.9102 46.0498 64.1562 45.0723L64.1699 45.0107L62.7412 45.0176L62.7139 45.0723C62.5361 45.4551 61.9688 45.9268 61.0186 45.9268C59.7949 45.9268 59.0156 45.0996 58.9883 43.6777H64.252V43.1582C64.252 40.9297 62.9805 39.4326 60.9092 39.4326C58.8379 39.4326 57.498 40.9844 57.498 43.3018V43.3086C57.498 45.6602 58.8105 47.1436 60.9844 47.1436ZM60.916 40.6494C61.9209 40.6494 62.666 41.292 62.7822 42.6182H59.0088C59.1387 41.3398 59.9043 40.6494 60.916 40.6494ZM66.084 47H67.5674V36.6641H66.084V47Z" fill="#474D66"/>
<path d="M35.4043 70H36.459V66.3613L39.459 61.5449H38.2578L35.9785 65.3008H35.8848L33.6055 61.5449H32.4043L35.4043 66.3613V70ZM42.4121 70.1113C44.2109 70.1113 45.3242 68.8691 45.3242 66.8477V66.8359C45.3242 64.8086 44.2109 63.5723 42.4121 63.5723C40.6133 63.5723 39.5 64.8086 39.5 66.8359V66.8477C39.5 68.8691 40.6133 70.1113 42.4121 70.1113ZM42.4121 69.209C41.2168 69.209 40.543 68.3359 40.543 66.8477V66.8359C40.543 65.3418 41.2168 64.4746 42.4121 64.4746C43.6074 64.4746 44.2812 65.3418 44.2812 66.8359V66.8477C44.2812 68.3359 43.6074 69.209 42.4121 69.209ZM49.0215 70.1113C49.9473 70.1113 50.5859 69.7305 50.8965 69.0566H50.9902V70H52.0098V63.6836H50.9902V67.4219C50.9902 68.5293 50.3984 69.209 49.2852 69.209C48.2773 69.209 47.8672 68.6641 47.8672 67.5273V63.6836H46.8477V67.7734C46.8477 69.2676 47.5859 70.1113 49.0215 70.1113ZM59.873 70.1113C61.3906 70.1113 62.2402 69.2969 62.498 68.1543L62.5098 68.0898L61.502 68.0957L61.4902 68.1309C61.2559 68.834 60.7168 69.209 59.8672 69.209C58.7422 69.209 58.0156 68.2773 58.0156 66.8242V66.8125C58.0156 65.3887 58.7305 64.4746 59.8672 64.4746C60.7754 64.4746 61.3379 64.9785 61.4961 65.5996L61.502 65.6172H62.5156L62.5098 65.582C62.3223 64.457 61.4023 63.5723 59.8672 63.5723C58.0977 63.5723 56.9727 64.8496 56.9727 66.8125V66.8242C56.9727 68.8281 58.1035 70.1113 59.873 70.1113ZM65.7383 70.1113C66.5879 70.1113 67.25 69.7422 67.6484 69.0684H67.7422V70H68.7617V65.6758C68.7617 64.3633 67.9004 63.5723 66.3594 63.5723C65.0117 63.5723 64.0508 64.2402 63.8867 65.2305L63.8809 65.2656H64.9004L64.9062 65.248C65.0703 64.7559 65.5684 64.4746 66.3242 64.4746C67.2676 64.4746 67.7422 64.8965 67.7422 65.6758V66.25L65.9316 66.3613C64.4609 66.4492 63.6289 67.0996 63.6289 68.2246V68.2363C63.6289 69.3848 64.5371 70.1113 65.7383 70.1113ZM64.6719 68.2129V68.2012C64.6719 67.5742 65.0938 67.2344 66.0547 67.1758L67.7422 67.0703V67.6445C67.7422 68.5469 66.9863 69.2266 65.9492 69.2266C65.2168 69.2266 64.6719 68.8516 64.6719 68.2129ZM70.625 70H71.6445V66.2617C71.6445 65.1543 72.2832 64.4746 73.291 64.4746C74.2988 64.4746 74.7676 65.0195 74.7676 66.1562V70H75.7871V65.9102C75.7871 64.4102 74.9961 63.5723 73.5781 63.5723C72.6465 63.5723 72.0547 63.9648 71.7383 64.6328H71.6445V63.6836H70.625V70ZM83.123 70.1113C84.0488 70.1113 84.6875 69.7305 84.998 69.0566H85.0918V70H86.1113V63.6836H85.0918V67.4219C85.0918 68.5293 84.5 69.209 83.3867 69.209C82.3789 69.209 81.9688 68.6641 81.9688 67.5273V63.6836H80.9492V67.7734C80.9492 69.2676 81.6875 70.1113 83.123 70.1113ZM88.0156 72.1094H89.0352V69.0039H89.1289C89.4746 69.6777 90.2305 70.1113 91.0977 70.1113C92.7031 70.1113 93.7461 68.8281 93.7461 66.8477V66.8359C93.7461 64.8672 92.6973 63.5723 91.0977 63.5723C90.2188 63.5723 89.5156 63.9883 89.1289 64.6914H89.0352V63.6836H88.0156V72.1094ZM90.8633 69.209C89.7148 69.209 89.0117 68.3066 89.0117 66.8477V66.8359C89.0117 65.377 89.7148 64.4746 90.8633 64.4746C92.0176 64.4746 92.7031 65.3652 92.7031 66.8359V66.8477C92.7031 68.3184 92.0176 69.209 90.8633 69.209ZM95.3984 70H96.418V61.1758H95.3984V70ZM100.971 70.1113C102.77 70.1113 103.883 68.8691 103.883 66.8477V66.8359C103.883 64.8086 102.77 63.5723 100.971 63.5723C99.1719 63.5723 98.0586 64.8086 98.0586 66.8359V66.8477C98.0586 68.8691 99.1719 70.1113 100.971 70.1113ZM100.971 69.209C99.7754 69.209 99.1016 68.3359 99.1016 66.8477V66.8359C99.1016 65.3418 99.7754 64.4746 100.971 64.4746C102.166 64.4746 102.84 65.3418 102.84 66.8359V66.8477C102.84 68.3359 102.166 69.209 100.971 69.209ZM107.199 70.1113C108.049 70.1113 108.711 69.7422 109.109 69.0684H109.203V70H110.223V65.6758C110.223 64.3633 109.361 63.5723 107.82 63.5723C106.473 63.5723 105.512 64.2402 105.348 65.2305L105.342 65.2656H106.361L106.367 65.248C106.531 64.7559 107.029 64.4746 107.785 64.4746C108.729 64.4746 109.203 64.8965 109.203 65.6758V66.25L107.393 66.3613C105.922 66.4492 105.09 67.0996 105.09 68.2246V68.2363C105.09 69.3848 105.998 70.1113 107.199 70.1113ZM106.133 68.2129V68.2012C106.133 67.5742 106.555 67.2344 107.516 67.1758L109.203 67.0703V67.6445C109.203 68.5469 108.447 69.2266 107.41 69.2266C106.678 69.2266 106.133 68.8516 106.133 68.2129ZM114.418 70.1113C115.297 70.1113 116 69.6953 116.387 68.9922H116.48V70H117.5V61.1758H116.48V64.6797H116.387C116.041 64.0059 115.285 63.5723 114.418 63.5723C112.812 63.5723 111.77 64.8555 111.77 66.8359V66.8477C111.77 68.8164 112.818 70.1113 114.418 70.1113ZM114.652 69.209C113.498 69.209 112.812 68.3184 112.812 66.8477V66.8359C112.812 65.3652 113.498 64.4746 114.652 64.4746C115.801 64.4746 116.504 65.377 116.504 66.8359V66.8477C116.504 68.3066 115.801 69.209 114.652 69.209ZM124.947 70.1113C125.873 70.1113 126.512 69.7305 126.822 69.0566H126.916V70H127.936V63.6836H126.916V67.4219C126.916 68.5293 126.324 69.209 125.211 69.209C124.203 69.209 123.793 68.6641 123.793 67.5273V63.6836H122.773V67.7734C122.773 69.2676 123.512 70.1113 124.947 70.1113ZM129.84 72.1094H130.859V69.0039H130.953C131.299 69.6777 132.055 70.1113 132.922 70.1113C134.527 70.1113 135.57 68.8281 135.57 66.8477V66.8359C135.57 64.8672 134.521 63.5723 132.922 63.5723C132.043 63.5723 131.34 63.9883 130.953 64.6914H130.859V63.6836H129.84V72.1094ZM132.688 69.209C131.539 69.209 130.836 68.3066 130.836 66.8477V66.8359C130.836 65.377 131.539 64.4746 132.688 64.4746C133.842 64.4746 134.527 65.3652 134.527 66.8359V66.8477C134.527 68.3184 133.842 69.209 132.688 69.209ZM142.783 70.0469C142.982 70.0469 143.176 70.0234 143.375 69.9883V69.1211C143.188 69.1387 143.088 69.1445 142.906 69.1445C142.25 69.1445 141.992 68.8457 141.992 68.1016V64.5273H143.375V63.6836H141.992V62.0488H140.938V63.6836H139.941V64.5273H140.938V68.3594C140.938 69.5664 141.482 70.0469 142.783 70.0469ZM147.4 70.1113C149.199 70.1113 150.312 68.8691 150.312 66.8477V66.8359C150.312 64.8086 149.199 63.5723 147.4 63.5723C145.602 63.5723 144.488 64.8086 144.488 66.8359V66.8477C144.488 68.8691 145.602 70.1113 147.4 70.1113ZM147.4 69.209C146.205 69.209 145.531 68.3359 145.531 66.8477V66.8359C145.531 65.3418 146.205 64.4746 147.4 64.4746C148.596 64.4746 149.27 65.3418 149.27 66.8359V66.8477C149.27 68.3359 148.596 69.209 147.4 69.209ZM157.332 70H158.387V61.5449H157.338L155.088 63.1621V64.2754L157.238 62.7168H157.332V70ZM163.66 70.1992C165.529 70.1992 166.654 68.4941 166.654 65.7754V65.7637C166.654 63.0449 165.529 61.3457 163.66 61.3457C161.791 61.3457 160.678 63.0449 160.678 65.7637V65.7754C160.678 68.4941 161.791 70.1992 163.66 70.1992ZM163.66 69.2793C162.447 69.2793 161.738 67.9316 161.738 65.7754V65.7637C161.738 63.6074 162.447 62.2715 163.66 62.2715C164.873 62.2715 165.594 63.6074 165.594 65.7637V65.7754C165.594 67.9316 164.873 69.2793 163.66 69.2793ZM172.191 70H173.211V64.5273H174.646V63.6836H173.211V63.0098C173.211 62.3184 173.504 61.9609 174.23 61.9609C174.412 61.9609 174.582 61.9668 174.705 61.9902V61.1758C174.494 61.1348 174.271 61.1172 174.025 61.1172C172.824 61.1172 172.191 61.7207 172.191 62.9805V63.6836H171.143V64.5273H172.191V70ZM176.656 62.4648C177.043 62.4648 177.359 62.1484 177.359 61.7617C177.359 61.375 177.043 61.0586 176.656 61.0586C176.27 61.0586 175.953 61.375 175.953 61.7617C175.953 62.1484 176.27 62.4648 176.656 62.4648ZM176.141 70H177.16V63.6836H176.141V70ZM179.141 70H180.16V61.1758H179.141V70ZM184.695 70.1113C186.184 70.1113 187.086 69.2676 187.303 68.4121L187.314 68.3652H186.295L186.271 68.418C186.102 68.7988 185.574 69.2031 184.719 69.2031C183.594 69.2031 182.873 68.4414 182.844 67.1348H187.391V66.7363C187.391 64.8496 186.348 63.5723 184.631 63.5723C182.914 63.5723 181.801 64.9082 181.801 66.8594V66.8652C181.801 68.8457 182.891 70.1113 184.695 70.1113ZM184.625 64.4805C185.557 64.4805 186.248 65.0723 186.354 66.3203H182.861C182.973 65.1191 183.688 64.4805 184.625 64.4805ZM191.141 70.1113C192.576 70.1113 193.672 69.332 193.672 68.207V68.1953C193.672 67.293 193.098 66.7773 191.908 66.4902L190.936 66.2559C190.191 66.0742 189.875 65.8047 189.875 65.377V65.3652C189.875 64.8086 190.426 64.4219 191.176 64.4219C191.938 64.4219 192.43 64.7676 192.564 65.2656H193.566C193.426 64.2344 192.506 63.5723 191.182 63.5723C189.84 63.5723 188.832 64.3633 188.832 65.4121V65.418C188.832 66.3262 189.365 66.8418 190.549 67.123L191.527 67.3574C192.307 67.5449 192.629 67.8438 192.629 68.2715V68.2832C192.629 68.8574 192.025 69.2617 191.176 69.2617C190.367 69.2617 189.863 68.916 189.693 68.3887H188.65C188.768 69.4316 189.734 70.1113 191.141 70.1113ZM196.086 70.0586C196.508 70.0586 196.848 69.7129 196.848 69.2969C196.848 68.875 196.508 68.5352 196.086 68.5352C195.67 68.5352 195.324 68.875 195.324 69.2969C195.324 69.7129 195.67 70.0586 196.086 70.0586ZM202.32 70H203.375V66.3379H207.119V65.4004H203.375V62.4941H207.453V61.5449H202.32V70ZM209.598 62.4648C209.984 62.4648 210.301 62.1484 210.301 61.7617C210.301 61.375 209.984 61.0586 209.598 61.0586C209.211 61.0586 208.895 61.375 208.895 61.7617C208.895 62.1484 209.211 62.4648 209.598 62.4648ZM209.082 70H210.102V63.6836H209.082V70ZM212.082 70H213.102V61.1758H212.082V70ZM217.637 70.1113C219.125 70.1113 220.027 69.2676 220.244 68.4121L220.256 68.3652H219.236L219.213 68.418C219.043 68.7988 218.516 69.2031 217.66 69.2031C216.535 69.2031 215.814 68.4414 215.785 67.1348H220.332V66.7363C220.332 64.8496 219.289 63.5723 217.572 63.5723C215.855 63.5723 214.742 64.9082 214.742 66.8594V66.8652C214.742 68.8457 215.832 70.1113 217.637 70.1113ZM217.566 64.4805C218.498 64.4805 219.189 65.0723 219.295 66.3203H215.803C215.914 65.1191 216.629 64.4805 217.566 64.4805ZM224.082 70.1113C225.518 70.1113 226.613 69.332 226.613 68.207V68.1953C226.613 67.293 226.039 66.7773 224.85 66.4902L223.877 66.2559C223.133 66.0742 222.816 65.8047 222.816 65.377V65.3652C222.816 64.8086 223.367 64.4219 224.117 64.4219C224.879 64.4219 225.371 64.7676 225.506 65.2656H226.508C226.367 64.2344 225.447 63.5723 224.123 63.5723C222.781 63.5723 221.773 64.3633 221.773 65.4121V65.418C221.773 66.3262 222.307 66.8418 223.49 67.123L224.469 67.3574C225.248 67.5449 225.57 67.8438 225.57 68.2715V68.2832C225.57 68.8574 224.967 69.2617 224.117 69.2617C223.309 69.2617 222.805 68.916 222.635 68.3887H221.592C221.709 69.4316 222.676 70.1113 224.082 70.1113ZM234.154 70.1113C235.672 70.1113 236.521 69.2969 236.779 68.1543L236.791 68.0898L235.783 68.0957L235.771 68.1309C235.537 68.834 234.998 69.209 234.148 69.209C233.023 69.209 232.297 68.2773 232.297 66.8242V66.8125C232.297 65.3887 233.012 64.4746 234.148 64.4746C235.057 64.4746 235.619 64.9785 235.777 65.5996L235.783 65.6172H236.797L236.791 65.582C236.604 64.457 235.684 63.5723 234.148 63.5723C232.379 63.5723 231.254 64.8496 231.254 66.8125V66.8242C231.254 68.8281 232.385 70.1113 234.154 70.1113ZM240.02 70.1113C240.869 70.1113 241.531 69.7422 241.93 69.0684H242.023V70H243.043V65.6758C243.043 64.3633 242.182 63.5723 240.641 63.5723C239.293 63.5723 238.332 64.2402 238.168 65.2305L238.162 65.2656H239.182L239.188 65.248C239.352 64.7559 239.85 64.4746 240.605 64.4746C241.549 64.4746 242.023 64.8965 242.023 65.6758V66.25L240.213 66.3613C238.742 66.4492 237.91 67.0996 237.91 68.2246V68.2363C237.91 69.3848 238.818 70.1113 240.02 70.1113ZM238.953 68.2129V68.2012C238.953 67.5742 239.375 67.2344 240.336 67.1758L242.023 67.0703V67.6445C242.023 68.5469 241.268 69.2266 240.23 69.2266C239.498 69.2266 238.953 68.8516 238.953 68.2129ZM244.906 70H245.926V66.2617C245.926 65.1543 246.564 64.4746 247.572 64.4746C248.58 64.4746 249.049 65.0195 249.049 66.1562V70H250.068V65.9102C250.068 64.4102 249.277 63.5723 247.859 63.5723C246.928 63.5723 246.336 63.9648 246.02 64.6328H245.926V63.6836H244.906V70ZM258.43 70.1113C260.029 70.1113 261.078 68.8164 261.078 66.8477V66.8359C261.078 64.8555 260.035 63.5723 258.43 63.5723C257.562 63.5723 256.807 64.0059 256.461 64.6797H256.367V61.1758H255.348V70H256.367V68.9922H256.461C256.848 69.6953 257.551 70.1113 258.43 70.1113ZM258.195 69.209C257.047 69.209 256.344 68.3066 256.344 66.8477V66.8359C256.344 65.377 257.047 64.4746 258.195 64.4746C259.35 64.4746 260.035 65.3652 260.035 66.8359V66.8477C260.035 68.3184 259.35 69.209 258.195 69.209ZM265.238 70.1113C266.727 70.1113 267.629 69.2676 267.846 68.4121L267.857 68.3652H266.838L266.814 68.418C266.645 68.7988 266.117 69.2031 265.262 69.2031C264.137 69.2031 263.416 68.4414 263.387 67.1348H267.934V66.7363C267.934 64.8496 266.891 63.5723 265.174 63.5723C263.457 63.5723 262.344 64.9082 262.344 66.8594V66.8652C262.344 68.8457 263.434 70.1113 265.238 70.1113ZM265.168 64.4805C266.1 64.4805 266.791 65.0723 266.896 66.3203H263.404C263.516 65.1191 264.23 64.4805 265.168 64.4805ZM275.006 70.1113C275.932 70.1113 276.57 69.7305 276.881 69.0566H276.975V70H277.994V63.6836H276.975V67.4219C276.975 68.5293 276.383 69.209 275.27 69.209C274.262 69.209 273.852 68.6641 273.852 67.5273V63.6836H272.832V67.7734C272.832 69.2676 273.57 70.1113 275.006 70.1113ZM279.898 72.1094H280.918V69.0039H281.012C281.357 69.6777 282.113 70.1113 282.98 70.1113C284.586 70.1113 285.629 68.8281 285.629 66.8477V66.8359C285.629 64.8672 284.58 63.5723 282.98 63.5723C282.102 63.5723 281.398 63.9883 281.012 64.6914H280.918V63.6836H279.898V72.1094ZM282.746 69.209C281.598 69.209 280.895 68.3066 280.895 66.8477V66.8359C280.895 65.377 281.598 64.4746 282.746 64.4746C283.9 64.4746 284.586 65.3652 284.586 66.8359V66.8477C284.586 68.3184 283.9 69.209 282.746 69.209ZM292.842 70.0469C293.041 70.0469 293.234 70.0234 293.434 69.9883V69.1211C293.246 69.1387 293.146 69.1445 292.965 69.1445C292.309 69.1445 292.051 68.8457 292.051 68.1016V64.5273H293.434V63.6836H292.051V62.0488H290.996V63.6836H290V64.5273H290.996V68.3594C290.996 69.5664 291.541 70.0469 292.842 70.0469ZM297.459 70.1113C299.258 70.1113 300.371 68.8691 300.371 66.8477V66.8359C300.371 64.8086 299.258 63.5723 297.459 63.5723C295.66 63.5723 294.547 64.8086 294.547 66.8359V66.8477C294.547 68.8691 295.66 70.1113 297.459 70.1113ZM297.459 69.209C296.264 69.209 295.59 68.3359 295.59 66.8477V66.8359C295.59 65.3418 296.264 64.4746 297.459 64.4746C298.654 64.4746 299.328 65.3418 299.328 66.8359V66.8477C299.328 68.3359 298.654 69.209 297.459 69.209ZM308.1 70.1992C309.816 70.1992 311.041 69.0098 311.041 67.3047V67.293C311.041 65.6582 309.898 64.4688 308.311 64.4688C307.543 64.4688 306.881 64.7793 306.506 65.3477H306.412L306.699 62.4883H310.572V61.5449H305.867L305.422 66.4023H306.336C306.441 66.2031 306.576 66.0391 306.723 65.8984C307.086 65.5527 307.566 65.3828 308.129 65.3828C309.225 65.3828 310.01 66.1855 310.01 67.3105V67.3223C310.01 68.4648 309.236 69.2676 308.111 69.2676C307.121 69.2676 306.389 68.623 306.289 67.8145L306.283 67.7676H305.27L305.275 67.832C305.398 69.1855 306.523 70.1992 308.1 70.1992ZM315.57 70.1992C317.439 70.1992 318.564 68.4941 318.564 65.7754V65.7637C318.564 63.0449 317.439 61.3457 315.57 61.3457C313.701 61.3457 312.588 63.0449 312.588 65.7637V65.7754C312.588 68.4941 313.701 70.1992 315.57 70.1992ZM315.57 69.2793C314.357 69.2793 313.648 67.9316 313.648 65.7754V65.7637C313.648 63.6074 314.357 62.2715 315.57 62.2715C316.783 62.2715 317.504 63.6074 317.504 65.7637V65.7754C317.504 67.9316 316.783 69.2793 315.57 69.2793ZM320.434 70H321.418V63.543H321.482L324.154 70H325.045L327.717 63.543H327.781V70H328.766V61.5449H327.541L324.646 68.5996H324.553L321.658 61.5449H320.434V70ZM330.922 70H334.221C336.02 70 337.086 69.1152 337.086 67.6328V67.6211C337.086 66.5078 336.354 65.7168 335.199 65.5703V65.4766C336.014 65.3301 336.658 64.5332 336.658 63.6602V63.6484C336.658 62.3594 335.709 61.5449 334.156 61.5449H330.922V70ZM333.934 62.4766C334.982 62.4766 335.592 62.9746 335.592 63.8301V63.8418C335.592 64.7324 334.941 65.1895 333.664 65.1895H331.977V62.4766H333.934ZM333.963 66.0977C335.311 66.0977 336.002 66.5957 336.002 67.5684V67.5801C336.002 68.5527 335.334 69.0684 334.062 69.0684H331.977V66.0977H333.963ZM339.512 70.0586C339.934 70.0586 340.273 69.7129 340.273 69.2969C340.273 68.875 339.934 68.5352 339.512 68.5352C339.096 68.5352 338.75 68.875 338.75 69.2969C338.75 69.7129 339.096 70.0586 339.512 70.0586ZM348.072 70H349.127V66.3613L352.127 61.5449H350.926L348.646 65.3008H348.553L346.273 61.5449H345.072L348.072 66.3613V70ZM355.08 70.1113C356.879 70.1113 357.992 68.8691 357.992 66.8477V66.8359C357.992 64.8086 356.879 63.5723 355.08 63.5723C353.281 63.5723 352.168 64.8086 352.168 66.8359V66.8477C352.168 68.8691 353.281 70.1113 355.08 70.1113ZM355.08 69.209C353.885 69.209 353.211 68.3359 353.211 66.8477V66.8359C353.211 65.3418 353.885 64.4746 355.08 64.4746C356.275 64.4746 356.949 65.3418 356.949 66.8359V66.8477C356.949 68.3359 356.275 69.209 355.08 69.209ZM361.689 70.1113C362.615 70.1113 363.254 69.7305 363.564 69.0566H363.658V70H364.678V63.6836H363.658V67.4219C363.658 68.5293 363.066 69.209 361.953 69.209C360.945 69.209 360.535 68.6641 360.535 67.5273V63.6836H359.516V67.7734C359.516 69.2676 360.254 70.1113 361.689 70.1113ZM372.541 70.1113C374.059 70.1113 374.908 69.2969 375.166 68.1543L375.178 68.0898L374.17 68.0957L374.158 68.1309C373.924 68.834 373.385 69.209 372.535 69.209C371.41 69.209 370.684 68.2773 370.684 66.8242V66.8125C370.684 65.3887 371.398 64.4746 372.535 64.4746C373.443 64.4746 374.006 64.9785 374.164 65.5996L374.17 65.6172H375.184L375.178 65.582C374.99 64.457 374.07 63.5723 372.535 63.5723C370.766 63.5723 369.641 64.8496 369.641 66.8125V66.8242C369.641 68.8281 370.771 70.1113 372.541 70.1113ZM378.406 70.1113C379.256 70.1113 379.918 69.7422 380.316 69.0684H380.41V70H381.43V65.6758C381.43 64.3633 380.568 63.5723 379.027 63.5723C377.68 63.5723 376.719 64.2402 376.555 65.2305L376.549 65.2656H377.568L377.574 65.248C377.738 64.7559 378.236 64.4746 378.992 64.4746C379.936 64.4746 380.41 64.8965 380.41 65.6758V66.25L378.6 66.3613C377.129 66.4492 376.297 67.0996 376.297 68.2246V68.2363C376.297 69.3848 377.205 70.1113 378.406 70.1113ZM377.34 68.2129V68.2012C377.34 67.5742 377.762 67.2344 378.723 67.1758L380.41 67.0703V67.6445C380.41 68.5469 379.654 69.2266 378.617 69.2266C377.885 69.2266 377.34 68.8516 377.34 68.2129ZM383.293 70H384.312V66.2617C384.312 65.1543 384.951 64.4746 385.959 64.4746C386.967 64.4746 387.436 65.0195 387.436 66.1562V70H388.455V65.9102C388.455 64.4102 387.664 63.5723 386.246 63.5723C385.314 63.5723 384.723 63.9648 384.406 64.6328H384.312V63.6836H383.293V70ZM395.791 70.1113C396.717 70.1113 397.355 69.7305 397.666 69.0566H397.76V70H398.779V63.6836H397.76V67.4219C397.76 68.5293 397.168 69.209 396.055 69.209C395.047 69.209 394.637 68.6641 394.637 67.5273V63.6836H393.617V67.7734C393.617 69.2676 394.355 70.1113 395.791 70.1113ZM400.684 72.1094H401.703V69.0039H401.797C402.143 69.6777 402.898 70.1113 403.766 70.1113C405.371 70.1113 406.414 68.8281 406.414 66.8477V66.8359C406.414 64.8672 405.365 63.5723 403.766 63.5723C402.887 63.5723 402.184 63.9883 401.797 64.6914H401.703V63.6836H400.684V72.1094ZM403.531 69.209C402.383 69.209 401.68 68.3066 401.68 66.8477V66.8359C401.68 65.377 402.383 64.4746 403.531 64.4746C404.686 64.4746 405.371 65.3652 405.371 66.8359V66.8477C405.371 68.3184 404.686 69.209 403.531 69.209ZM408.066 70H409.086V61.1758H408.066V70ZM413.639 70.1113C415.438 70.1113 416.551 68.8691 416.551 66.8477V66.8359C416.551 64.8086 415.438 63.5723 413.639 63.5723C411.84 63.5723 410.727 64.8086 410.727 66.8359V66.8477C410.727 68.8691 411.84 70.1113 413.639 70.1113ZM413.639 69.209C412.443 69.209 411.77 68.3359 411.77 66.8477V66.8359C411.77 65.3418 412.443 64.4746 413.639 64.4746C414.834 64.4746 415.508 65.3418 415.508 66.8359V66.8477C415.508 68.3359 414.834 69.209 413.639 69.209ZM419.867 70.1113C420.717 70.1113 421.379 69.7422 421.777 69.0684H421.871V70H422.891V65.6758C422.891 64.3633 422.029 63.5723 420.488 63.5723C419.141 63.5723 418.18 64.2402 418.016 65.2305L418.01 65.2656H419.029L419.035 65.248C419.199 64.7559 419.697 64.4746 420.453 64.4746C421.396 64.4746 421.871 64.8965 421.871 65.6758V66.25L420.061 66.3613C418.59 66.4492 417.758 67.0996 417.758 68.2246V68.2363C417.758 69.3848 418.666 70.1113 419.867 70.1113ZM418.801 68.2129V68.2012C418.801 67.5742 419.223 67.2344 420.184 67.1758L421.871 67.0703V67.6445C421.871 68.5469 421.115 69.2266 420.078 69.2266C419.346 69.2266 418.801 68.8516 418.801 68.2129ZM427.086 70.1113C427.965 70.1113 428.668 69.6953 429.055 68.9922H429.148V70H430.168V61.1758H429.148V64.6797H429.055C428.709 64.0059 427.953 63.5723 427.086 63.5723C425.48 63.5723 424.438 64.8555 424.438 66.8359V66.8477C424.438 68.8164 425.486 70.1113 427.086 70.1113ZM427.32 69.209C426.166 69.209 425.48 68.3184 425.48 66.8477V66.8359C425.48 65.3652 426.166 64.4746 427.32 64.4746C428.469 64.4746 429.172 65.377 429.172 66.8359V66.8477C429.172 68.3066 428.469 69.209 427.32 69.209ZM436.332 70.0586C436.754 70.0586 437.094 69.7129 437.094 69.2969C437.094 68.875 436.754 68.5352 436.332 68.5352C435.916 68.5352 435.57 68.875 435.57 69.2969C435.57 69.7129 435.916 70.0586 436.332 70.0586ZM439.59 62.4648C439.977 62.4648 440.293 62.1484 440.293 61.7617C440.293 61.375 439.977 61.0586 439.59 61.0586C439.203 61.0586 438.887 61.375 438.887 61.7617C438.887 62.1484 439.203 62.4648 439.59 62.4648ZM438.16 72.168C439.484 72.168 440.1 71.6113 440.1 70.3105V63.6836H439.08V70.3281C439.08 71.0254 438.822 71.2656 438.137 71.2656H437.984V72.168H438.16ZM442.027 72.1094H443.047V69.0039H443.141C443.486 69.6777 444.242 70.1113 445.109 70.1113C446.715 70.1113 447.758 68.8281 447.758 66.8477V66.8359C447.758 64.8672 446.709 63.5723 445.109 63.5723C444.23 63.5723 443.527 63.9883 443.141 64.6914H443.047V63.6836H442.027V72.1094ZM444.875 69.209C443.727 69.209 443.023 68.3066 443.023 66.8477V66.8359C443.023 65.377 443.727 64.4746 444.875 64.4746C446.029 64.4746 446.715 65.3652 446.715 66.8359V66.8477C446.715 68.3184 446.029 69.209 444.875 69.209ZM451.953 72.2266C453.676 72.2266 454.766 71.3242 454.766 69.9121V63.6836H453.746V64.7266H453.676C453.289 64.0117 452.598 63.5723 451.707 63.5723C450.055 63.5723 449.035 64.8555 449.035 66.625V66.6367C449.035 68.4062 450.049 69.6719 451.684 69.6719C452.551 69.6719 453.266 69.2793 453.664 68.582H453.758V69.8594C453.758 70.791 453.084 71.3242 451.953 71.3242C451.045 71.3242 450.482 70.9844 450.371 70.5039L450.365 70.498H449.311L449.299 70.5039C449.457 71.541 450.43 72.2266 451.953 72.2266ZM451.906 68.7695C450.734 68.7695 450.078 67.8906 450.078 66.6367V66.625C450.078 65.3711 450.734 64.4746 451.906 64.4746C453.072 64.4746 453.781 65.3711 453.781 66.625V66.6367C453.781 67.8906 453.078 68.7695 451.906 68.7695ZM461.773 70.1113C462.623 70.1113 463.285 69.7422 463.684 69.0684H463.777V70H464.797V65.6758C464.797 64.3633 463.936 63.5723 462.395 63.5723C461.047 63.5723 460.086 64.2402 459.922 65.2305L459.916 65.2656H460.936L460.941 65.248C461.105 64.7559 461.604 64.4746 462.359 64.4746C463.303 64.4746 463.777 64.8965 463.777 65.6758V66.25L461.967 66.3613C460.496 66.4492 459.664 67.0996 459.664 68.2246V68.2363C459.664 69.3848 460.572 70.1113 461.773 70.1113ZM460.707 68.2129V68.2012C460.707 67.5742 461.129 67.2344 462.09 67.1758L463.777 67.0703V67.6445C463.777 68.5469 463.021 69.2266 461.984 69.2266C461.252 69.2266 460.707 68.8516 460.707 68.2129ZM466.66 70H467.68V66.2617C467.68 65.1543 468.318 64.4746 469.326 64.4746C470.334 64.4746 470.803 65.0195 470.803 66.1562V70H471.822V65.9102C471.822 64.4102 471.031 63.5723 469.613 63.5723C468.682 63.5723 468.09 63.9648 467.773 64.6328H467.68V63.6836H466.66V70ZM476 70.1113C476.879 70.1113 477.582 69.6953 477.969 68.9922H478.062V70H479.082V61.1758H478.062V64.6797H477.969C477.623 64.0059 476.867 63.5723 476 63.5723C474.395 63.5723 473.352 64.8555 473.352 66.8359V66.8477C473.352 68.8164 474.4 70.1113 476 70.1113ZM476.234 69.209C475.08 69.209 474.395 68.3184 474.395 66.8477V66.8359C474.395 65.3652 475.08 64.4746 476.234 64.4746C477.383 64.4746 478.086 65.377 478.086 66.8359V66.8477C478.086 68.3066 477.383 69.209 476.234 69.209ZM485.246 70.0586C485.668 70.0586 486.008 69.7129 486.008 69.2969C486.008 68.875 485.668 68.5352 485.246 68.5352C484.83 68.5352 484.484 68.875 484.484 69.2969C484.484 69.7129 484.83 70.0586 485.246 70.0586ZM487.977 72.1094H488.996V69.0039H489.09C489.436 69.6777 490.191 70.1113 491.059 70.1113C492.664 70.1113 493.707 68.8281 493.707 66.8477V66.8359C493.707 64.8672 492.658 63.5723 491.059 63.5723C490.18 63.5723 489.477 63.9883 489.09 64.6914H488.996V63.6836H487.977V72.1094ZM490.824 69.209C489.676 69.209 488.973 68.3066 488.973 66.8477V66.8359C488.973 65.377 489.676 64.4746 490.824 64.4746C491.979 64.4746 492.664 65.3652 492.664 66.8359V66.8477C492.664 68.3184 491.979 69.209 490.824 69.209ZM497.633 70.1113C498.512 70.1113 499.215 69.6953 499.602 68.9922H499.695V70H500.715V61.1758H499.695V64.6797H499.602C499.256 64.0059 498.5 63.5723 497.633 63.5723C496.027 63.5723 494.984 64.8555 494.984 66.8359V66.8477C494.984 68.8164 496.033 70.1113 497.633 70.1113ZM497.867 69.209C496.713 69.209 496.027 68.3184 496.027 66.8477V66.8359C496.027 65.3652 496.713 64.4746 497.867 64.4746C499.016 64.4746 499.719 65.377 499.719 66.8359V66.8477C499.719 68.3066 499.016 69.209 497.867 69.209ZM503.094 70H504.113V64.5273H505.549V63.6836H504.113V63.0098C504.113 62.3184 504.406 61.9609 505.133 61.9609C505.314 61.9609 505.484 61.9668 505.607 61.9902V61.1758C505.396 61.1348 505.174 61.1172 504.928 61.1172C503.727 61.1172 503.094 61.7207 503.094 62.9805V63.6836H502.045V64.5273H503.094V70ZM510.816 70H511.836V64.5273H513.271V63.6836H511.836V63.0098C511.836 62.3184 512.129 61.9609 512.855 61.9609C513.037 61.9609 513.207 61.9668 513.33 61.9902V61.1758C513.119 61.1348 512.896 61.1172 512.65 61.1172C511.449 61.1172 510.816 61.7207 510.816 62.9805V63.6836H509.768V64.5273H510.816V70ZM515.281 62.4648C515.668 62.4648 515.984 62.1484 515.984 61.7617C515.984 61.375 515.668 61.0586 515.281 61.0586C514.895 61.0586 514.578 61.375 514.578 61.7617C514.578 62.1484 514.895 62.4648 515.281 62.4648ZM514.766 70H515.785V63.6836H514.766V70ZM517.766 70H518.785V61.1758H517.766V70ZM523.32 70.1113C524.809 70.1113 525.711 69.2676 525.928 68.4121L525.939 68.3652H524.92L524.896 68.418C524.727 68.7988 524.199 69.2031 523.344 69.2031C522.219 69.2031 521.498 68.4414 521.469 67.1348H526.016V66.7363C526.016 64.8496 524.973 63.5723 523.256 63.5723C521.539 63.5723 520.426 64.9082 520.426 66.8594V66.8652C520.426 68.8457 521.516 70.1113 523.32 70.1113ZM523.25 64.4805C524.182 64.4805 524.873 65.0723 524.979 66.3203H521.486C521.598 65.1191 522.312 64.4805 523.25 64.4805ZM531.395 70H532.414V64.5273H533.85V63.6836H532.414V63.0098C532.414 62.3184 532.707 61.9609 533.434 61.9609C533.615 61.9609 533.785 61.9668 533.908 61.9902V61.1758C533.697 61.1348 533.475 61.1172 533.229 61.1172C532.027 61.1172 531.395 61.7207 531.395 62.9805V63.6836H530.346V64.5273H531.395V70ZM537.646 70.1113C539.445 70.1113 540.559 68.8691 540.559 66.8477V66.8359C540.559 64.8086 539.445 63.5723 537.646 63.5723C535.848 63.5723 534.734 64.8086 534.734 66.8359V66.8477C534.734 68.8691 535.848 70.1113 537.646 70.1113ZM537.646 69.209C536.451 69.209 535.777 68.3359 535.777 66.8477V66.8359C535.777 65.3418 536.451 64.4746 537.646 64.4746C538.842 64.4746 539.516 65.3418 539.516 66.8359V66.8477C539.516 68.3359 538.842 69.209 537.646 69.209ZM542.141 70H543.16V66.0859C543.16 65.1602 543.852 64.5449 544.824 64.5449C545.047 64.5449 545.24 64.5684 545.451 64.6035V63.6133C545.352 63.5957 545.135 63.5723 544.941 63.5723C544.086 63.5723 543.494 63.959 543.254 64.6211H543.16V63.6836H542.141V70ZM546.828 70H547.848V66.0859C547.848 65.1953 548.475 64.4746 549.301 64.4746C550.098 64.4746 550.613 64.9609 550.613 65.7109V70H551.633V65.9395C551.633 65.1367 552.213 64.4746 553.092 64.4746C553.982 64.4746 554.41 64.9375 554.41 65.8691V70H555.43V65.6348C555.43 64.3105 554.709 63.5723 553.42 63.5723C552.547 63.5723 551.826 64.0117 551.486 64.6797H551.393C551.1 64.0234 550.502 63.5723 549.646 63.5723C548.82 63.5723 548.223 63.9648 547.941 64.6445H547.848V63.6836H546.828V70ZM559.004 70.1113C559.854 70.1113 560.516 69.7422 560.914 69.0684H561.008V70H562.027V65.6758C562.027 64.3633 561.166 63.5723 559.625 63.5723C558.277 63.5723 557.316 64.2402 557.152 65.2305L557.146 65.2656H558.166L558.172 65.248C558.336 64.7559 558.834 64.4746 559.59 64.4746C560.533 64.4746 561.008 64.8965 561.008 65.6758V66.25L559.197 66.3613C557.727 66.4492 556.895 67.0996 556.895 68.2246V68.2363C556.895 69.3848 557.803 70.1113 559.004 70.1113ZM557.938 68.2129V68.2012C557.938 67.5742 558.359 67.2344 559.32 67.1758L561.008 67.0703V67.6445C561.008 68.5469 560.252 69.2266 559.215 69.2266C558.482 69.2266 557.938 68.8516 557.938 68.2129ZM566.135 70.0469C566.334 70.0469 566.527 70.0234 566.727 69.9883V69.1211C566.539 69.1387 566.439 69.1445 566.258 69.1445C565.602 69.1445 565.344 68.8457 565.344 68.1016V64.5273H566.727V63.6836H565.344V62.0488H564.289V63.6836H563.293V64.5273H564.289V68.3594C564.289 69.5664 564.834 70.0469 566.135 70.0469ZM570.301 70.1113C571.736 70.1113 572.832 69.332 572.832 68.207V68.1953C572.832 67.293 572.258 66.7773 571.068 66.4902L570.096 66.2559C569.352 66.0742 569.035 65.8047 569.035 65.377V65.3652C569.035 64.8086 569.586 64.4219 570.336 64.4219C571.098 64.4219 571.59 64.7676 571.725 65.2656H572.727C572.586 64.2344 571.666 63.5723 570.342 63.5723C569 63.5723 567.992 64.3633 567.992 65.4121V65.418C567.992 66.3262 568.525 66.8418 569.709 67.123L570.688 67.3574C571.467 67.5449 571.789 67.8438 571.789 68.2715V68.2832C571.789 68.8574 571.186 69.2617 570.336 69.2617C569.527 69.2617 569.023 68.916 568.854 68.3887H567.811C567.928 69.4316 568.895 70.1113 570.301 70.1113ZM575.246 70.0586C575.668 70.0586 576.008 69.7129 576.008 69.2969C576.008 68.875 575.668 68.5352 575.246 68.5352C574.83 68.5352 574.484 68.875 574.484 69.2969C574.484 69.7129 574.83 70.0586 575.246 70.0586Z" fill="#696F8C"/>
<rect x="32.5" y="82.5" width="605" height="183" rx="3.5" fill="#FAFBFF"/>
<rect x="307" y="122" width="56" height="56" rx="28" fill="#EDEFF5"/>
<path fill-rule="evenodd" clip-rule="evenodd" d="M335 138C328.37 138 323 143.37 323 150C323 156.63 328.37 162 335 162C341.63 162 347 156.63 347 150C347 143.37 341.63 138 335 138ZM339.5 150C339.08 150 338.705 149.835 338.435 149.565L336.5 147.615V156C336.5 156.825 335.825 157.5 335 157.5C334.175 157.5 333.5 156.825 333.5 156V147.615L331.565 149.565C331.295 149.835 330.92 150 330.5 150C329.675 150 329 149.325 329 148.5C329 148.08 329.165 147.705 329.435 147.435L333.935 142.935C334.205 142.665 334.58 142.5 335 142.5C335.42 142.5 335.795 142.665 336.065 142.935L340.565 147.435C340.835 147.705 341 148.08 341 148.5C341 149.325 340.325 150 339.5 150Z" fill="#C1C4D6"/>
<path d="M251.237 219H255.291C257.396 219 258.661 217.947 258.661 216.218V216.204C258.661 214.919 257.772 213.976 256.439 213.832V213.716C257.41 213.552 258.169 212.629 258.169 211.604V211.59C258.169 210.079 257.055 209.136 255.202 209.136H251.237V219ZM254.847 210.387C255.981 210.387 256.645 210.927 256.645 211.856V211.87C256.645 212.827 255.94 213.333 254.587 213.333H252.769V210.387H254.847ZM254.895 214.502C256.337 214.502 257.096 215.049 257.096 216.108V216.122C257.096 217.182 256.364 217.749 254.983 217.749H252.769V214.502H254.895ZM260.459 219H261.942V214.563C261.942 213.49 262.715 212.793 263.85 212.793C264.13 212.793 264.383 212.827 264.649 212.882V211.515C264.499 211.48 264.239 211.446 264 211.446C263.009 211.446 262.318 211.911 262.052 212.697H261.942V211.576H260.459V219ZM269.018 219.144C271.191 219.144 272.524 217.688 272.524 215.295V215.281C272.524 212.889 271.185 211.433 269.018 211.433C266.844 211.433 265.504 212.896 265.504 215.281V215.295C265.504 217.688 266.837 219.144 269.018 219.144ZM269.018 217.906C267.739 217.906 267.021 216.942 267.021 215.295V215.281C267.021 213.634 267.739 212.67 269.018 212.67C270.289 212.67 271.014 213.634 271.014 215.281V215.295C271.014 216.936 270.289 217.906 269.018 217.906ZM275.437 219H276.947L278.479 213.463H278.595L280.133 219H281.657L283.701 211.576H282.231L280.905 217.305H280.789L279.258 211.576H277.85L276.318 217.305H276.209L274.876 211.576H273.386L275.437 219ZM287.714 219.144C289.478 219.144 290.79 218.207 290.79 216.833V216.819C290.79 215.746 290.106 215.138 288.678 214.803L287.502 214.536C286.668 214.338 286.326 214.051 286.326 213.586V213.572C286.326 212.978 286.914 212.574 287.728 212.574C288.562 212.574 289.088 212.964 289.231 213.483V213.497H290.646V213.49C290.517 212.28 289.43 211.433 287.734 211.433C286.053 211.433 284.85 212.362 284.85 213.654V213.661C284.85 214.748 285.499 215.384 286.9 215.705L288.083 215.979C288.944 216.177 289.293 216.491 289.293 216.956V216.97C289.293 217.578 288.657 217.995 287.741 217.995C286.859 217.995 286.319 217.619 286.135 217.059L286.128 217.052H284.645V217.059C284.788 218.303 285.923 219.144 287.714 219.144ZM295.678 219.144C297.578 219.144 298.604 218.05 298.85 217.072L298.863 217.011L297.435 217.018L297.407 217.072C297.229 217.455 296.662 217.927 295.712 217.927C294.488 217.927 293.709 217.1 293.682 215.678H298.945V215.158C298.945 212.93 297.674 211.433 295.603 211.433C293.531 211.433 292.191 212.984 292.191 215.302V215.309C292.191 217.66 293.504 219.144 295.678 219.144ZM295.609 212.649C296.614 212.649 297.359 213.292 297.476 214.618H293.702C293.832 213.34 294.598 212.649 295.609 212.649Z" fill="#3366FF"/>
<path d="M308.211 219.144C310.385 219.144 311.718 217.688 311.718 215.295V215.281C311.718 212.889 310.378 211.433 308.211 211.433C306.037 211.433 304.697 212.896 304.697 215.281V215.295C304.697 217.688 306.03 219.144 308.211 219.144ZM308.211 217.906C306.933 217.906 306.215 216.942 306.215 215.295V215.281C306.215 213.634 306.933 212.67 308.211 212.67C309.482 212.67 310.207 213.634 310.207 215.281V215.295C310.207 216.936 309.482 217.906 308.211 217.906ZM313.488 219H314.972V214.563C314.972 213.49 315.744 212.793 316.879 212.793C317.159 212.793 317.412 212.827 317.679 212.882V211.515C317.528 211.48 317.269 211.446 317.029 211.446C316.038 211.446 315.348 211.911 315.081 212.697H314.972V211.576H313.488V219ZM325.629 219.123C326.668 219.123 327.481 218.645 327.912 217.831H328.028V219H329.505V208.664H328.028V212.752H327.912C327.516 211.952 326.647 211.446 325.629 211.446C323.742 211.446 322.553 212.93 322.553 215.281V215.295C322.553 217.626 323.763 219.123 325.629 219.123ZM326.053 217.858C324.809 217.858 324.063 216.888 324.063 215.295V215.281C324.063 213.688 324.809 212.718 326.053 212.718C327.283 212.718 328.049 213.695 328.049 215.281V215.295C328.049 216.881 327.29 217.858 326.053 217.858ZM331.713 219H333.196V214.563C333.196 213.49 333.969 212.793 335.104 212.793C335.384 212.793 335.637 212.827 335.903 212.882V211.515C335.753 211.48 335.493 211.446 335.254 211.446C334.263 211.446 333.572 211.911 333.306 212.697H333.196V211.576H331.713V219ZM339.301 219.123C340.285 219.123 341.064 218.699 341.502 217.947H341.618V219H343.088V213.921C343.088 212.362 342.035 211.433 340.169 211.433C338.48 211.433 337.312 212.246 337.134 213.463L337.127 213.511H338.556L338.562 213.483C338.74 212.957 339.28 212.656 340.101 212.656C341.105 212.656 341.618 213.107 341.618 213.921V214.577L339.608 214.693C337.838 214.803 336.84 215.575 336.84 216.901V216.915C336.84 218.262 337.886 219.123 339.301 219.123ZM338.316 216.854V216.84C338.316 216.17 338.781 215.801 339.807 215.739L341.618 215.623V216.259C341.618 217.216 340.805 217.94 339.697 217.94C338.897 217.94 338.316 217.537 338.316 216.854ZM348.317 221.618C350.423 221.618 351.756 220.538 351.756 218.85V211.576H350.279V212.793H350.19C349.76 211.959 348.953 211.446 347.914 211.446C345.986 211.446 344.804 212.943 344.804 215.062V215.076C344.804 217.168 345.979 218.638 347.887 218.638C348.905 218.638 349.726 218.187 350.177 217.38H350.286V218.843C350.286 219.854 349.562 220.429 348.338 220.429C347.333 220.429 346.731 220.066 346.608 219.554L346.602 219.54H345.104L345.091 219.554C345.269 220.791 346.431 221.618 348.317 221.618ZM348.297 217.414C347.032 217.414 346.321 216.45 346.321 215.069V215.056C346.321 213.675 347.032 212.704 348.297 212.704C349.548 212.704 350.313 213.675 350.313 215.056V215.069C350.313 216.457 349.555 217.414 348.297 217.414ZM358.243 219H359.72V212.745H361.354V211.576H359.706V210.865C359.706 210.113 360.027 209.717 360.848 209.717C361.08 209.717 361.278 209.73 361.415 209.751V208.664C361.162 208.623 360.875 208.596 360.54 208.596C358.995 208.596 358.243 209.32 358.243 210.797V211.576H357.02V212.745H358.243V219ZM363.794 210.25C364.3 210.25 364.724 209.833 364.724 209.327C364.724 208.814 364.3 208.397 363.794 208.397C363.281 208.397 362.864 208.814 362.864 209.327C362.864 209.833 363.281 210.25 363.794 210.25ZM363.049 219H364.525V211.576H363.049V219ZM366.754 219H368.237V208.664H366.754V219ZM373.562 219.144C375.463 219.144 376.488 218.05 376.734 217.072L376.748 217.011L375.319 217.018L375.292 217.072C375.114 217.455 374.547 217.927 373.597 217.927C372.373 217.927 371.594 217.1 371.566 215.678H376.83V215.158C376.83 212.93 375.559 211.433 373.487 211.433C371.416 211.433 370.076 212.984 370.076 215.302V215.309C370.076 217.66 371.389 219.144 373.562 219.144ZM373.494 212.649C374.499 212.649 375.244 213.292 375.36 214.618H371.587C371.717 213.34 372.482 212.649 373.494 212.649ZM381.294 219.144C383.058 219.144 384.37 218.207 384.37 216.833V216.819C384.37 215.746 383.687 215.138 382.258 214.803L381.082 214.536C380.248 214.338 379.906 214.051 379.906 213.586V213.572C379.906 212.978 380.494 212.574 381.308 212.574C382.142 212.574 382.668 212.964 382.812 213.483V213.497H384.227V213.49C384.097 212.28 383.01 211.433 381.314 211.433C379.633 211.433 378.43 212.362 378.43 213.654V213.661C378.43 214.748 379.079 215.384 380.48 215.705L381.663 215.979C382.524 216.177 382.873 216.491 382.873 216.956V216.97C382.873 217.578 382.237 217.995 381.321 217.995C380.439 217.995 379.899 217.619 379.715 217.059L379.708 217.052H378.225V217.059C378.368 218.303 379.503 219.144 381.294 219.144ZM390.037 219H391.521V214.646C391.521 213.449 392.197 212.704 393.284 212.704C394.371 212.704 394.884 213.312 394.884 214.543V219H396.36V214.194C396.36 212.424 395.444 211.433 393.783 211.433C392.703 211.433 391.992 211.911 391.63 212.704H391.521V208.664H390.037V219ZM401.549 219.144C403.449 219.144 404.475 218.05 404.721 217.072L404.734 217.011L403.306 217.018L403.278 217.072C403.101 217.455 402.533 217.927 401.583 217.927C400.359 217.927 399.58 217.1 399.553 215.678H404.816V215.158C404.816 212.93 403.545 211.433 401.474 211.433C399.402 211.433 398.062 212.984 398.062 215.302V215.309C398.062 217.66 399.375 219.144 401.549 219.144ZM401.48 212.649C402.485 212.649 403.23 213.292 403.347 214.618H399.573C399.703 213.34 400.469 212.649 401.48 212.649ZM406.58 219H408.063V214.563C408.063 213.49 408.836 212.793 409.971 212.793C410.251 212.793 410.504 212.827 410.771 212.882V211.515C410.62 211.48 410.36 211.446 410.121 211.446C409.13 211.446 408.439 211.911 408.173 212.697H408.063V211.576H406.58V219ZM415.111 219.144C417.012 219.144 418.037 218.05 418.283 217.072L418.297 217.011L416.868 217.018L416.841 217.072C416.663 217.455 416.096 217.927 415.146 217.927C413.922 217.927 413.143 217.1 413.115 215.678H418.379V215.158C418.379 212.93 417.107 211.433 415.036 211.433C412.965 211.433 411.625 212.984 411.625 215.302V215.309C411.625 217.66 412.938 219.144 415.111 219.144ZM415.043 212.649C416.048 212.649 416.793 213.292 416.909 214.618H413.136C413.266 213.34 414.031 212.649 415.043 212.649Z" fill="#696F8C"/>
<rect x="32.5" y="82.5" width="605" height="183" rx="3.5" stroke="#D8DAE5" stroke-dasharray="4 4"/>
<rect x="48" y="295" width="40" height="40" rx="4" fill="#F4F6FA"/>
<path fill-rule="evenodd" clip-rule="evenodd" d="M69 307H63C62.45 307 62 307.45 62 308V322C62 322.55 62.45 323 63 323H73C73.55 323 74 322.55 74 322V312L69 307ZM72 321H64V309H68V313H72V321Z" fill="#8F95B2"/>
<path d="M100.573 311.239C102.87 311.239 104.34 310.063 104.34 308.177V308.17C104.34 306.707 103.492 305.873 101.421 305.429L100.348 305.189C99.0693 304.916 98.5498 304.438 98.5498 303.706V303.699C98.5498 302.77 99.4043 302.229 100.56 302.229C101.756 302.223 102.528 302.811 102.658 303.617L102.672 303.706H104.155L104.148 303.61C104.039 302.079 102.672 300.896 100.58 300.896C98.4883 300.896 97.0117 302.072 97.0049 303.774V303.781C97.0049 305.237 97.8662 306.167 99.8691 306.591L100.949 306.823C102.255 307.104 102.788 307.596 102.788 308.354V308.361C102.788 309.277 101.893 309.906 100.635 309.906C99.3154 309.906 98.3652 309.332 98.2832 308.437L98.2764 308.361H96.7725L96.7793 308.45C96.916 310.111 98.3447 311.239 100.573 311.239ZM108.182 311.123C109.166 311.123 109.945 310.699 110.383 309.947H110.499V311H111.969V305.921C111.969 304.362 110.916 303.433 109.05 303.433C107.361 303.433 106.192 304.246 106.015 305.463L106.008 305.511H107.437L107.443 305.483C107.621 304.957 108.161 304.656 108.981 304.656C109.986 304.656 110.499 305.107 110.499 305.921V306.577L108.489 306.693C106.719 306.803 105.721 307.575 105.721 308.901V308.915C105.721 310.262 106.767 311.123 108.182 311.123ZM107.197 308.854V308.84C107.197 308.17 107.662 307.801 108.688 307.739L110.499 307.623V308.259C110.499 309.216 109.686 309.94 108.578 309.94C107.778 309.94 107.197 309.537 107.197 308.854ZM114.061 311H115.544V306.44C115.544 305.47 116.207 304.704 117.103 304.704C117.978 304.704 118.531 305.237 118.531 306.085V311H120.008V306.304C120.008 305.408 120.63 304.704 121.573 304.704C122.544 304.704 123.009 305.21 123.009 306.235V311H124.485V305.88C124.485 304.335 123.61 303.433 122.113 303.433C121.081 303.433 120.227 303.959 119.851 304.759H119.734C119.406 303.959 118.688 303.433 117.677 303.433C116.706 303.433 115.981 303.904 115.653 304.718H115.544V303.576H114.061V311ZM126.557 313.475H128.04V309.824H128.149C128.546 310.624 129.414 311.123 130.433 311.123C132.319 311.123 133.509 309.646 133.509 307.295V307.281C133.509 304.943 132.306 303.446 130.433 303.446C129.394 303.446 128.58 303.932 128.149 304.745H128.04V303.576H126.557V313.475ZM130.016 309.858C128.778 309.858 128.013 308.881 128.013 307.295V307.281C128.013 305.695 128.778 304.718 130.016 304.718C131.253 304.718 131.998 305.682 131.998 307.281V307.295C131.998 308.888 131.253 309.858 130.016 309.858ZM135.361 311H136.845V300.664H135.361V311ZM142.17 311.144C144.07 311.144 145.096 310.05 145.342 309.072L145.355 309.011L143.927 309.018L143.899 309.072C143.722 309.455 143.154 309.927 142.204 309.927C140.98 309.927 140.201 309.1 140.174 307.678H145.438V307.158C145.438 304.93 144.166 303.433 142.095 303.433C140.023 303.433 138.684 304.984 138.684 307.302V307.309C138.684 309.66 139.996 311.144 142.17 311.144ZM142.102 304.649C143.106 304.649 143.852 305.292 143.968 306.618H140.194C140.324 305.34 141.09 304.649 142.102 304.649ZM147.181 307.705H151.754V306.345H147.181V307.705ZM154.044 311H155.575V306.871H159.813V305.579H155.575V302.455H160.203V301.136H154.044V311ZM162.794 302.25C163.3 302.25 163.724 301.833 163.724 301.327C163.724 300.814 163.3 300.397 162.794 300.397C162.281 300.397 161.864 300.814 161.864 301.327C161.864 301.833 162.281 302.25 162.794 302.25ZM162.049 311H163.525V303.576H162.049V311ZM165.754 311H167.237V300.664H165.754V311ZM172.562 311.144C174.463 311.144 175.488 310.05 175.734 309.072L175.748 309.011L174.319 309.018L174.292 309.072C174.114 309.455 173.547 309.927 172.597 309.927C171.373 309.927 170.594 309.1 170.566 307.678H175.83V307.158C175.83 304.93 174.559 303.433 172.487 303.433C170.416 303.433 169.076 304.984 169.076 307.302V307.309C169.076 309.66 170.389 311.144 172.562 311.144ZM172.494 304.649C173.499 304.649 174.244 305.292 174.36 306.618H170.587C170.717 305.34 171.482 304.649 172.494 304.649ZM177.573 307.705H182.146V306.345H177.573V307.705ZM186.679 311H188.21V301.136H186.679L184.081 302.981V304.485L186.562 302.715H186.679V311ZM191.792 311.103C192.359 311.103 192.79 310.665 192.79 310.111C192.79 309.551 192.359 309.113 191.792 309.113C191.225 309.113 190.787 309.551 190.787 310.111C190.787 310.665 191.225 311.103 191.792 311.103ZM195.066 313.475H196.55V309.824H196.659C197.056 310.624 197.924 311.123 198.942 311.123C200.829 311.123 202.019 309.646 202.019 307.295V307.281C202.019 304.943 200.815 303.446 198.942 303.446C197.903 303.446 197.09 303.932 196.659 304.745H196.55V303.576H195.066V313.475ZM198.525 309.858C197.288 309.858 196.522 308.881 196.522 307.295V307.281C196.522 305.695 197.288 304.718 198.525 304.718C199.763 304.718 200.508 305.682 200.508 307.281V307.295C200.508 308.888 199.763 309.858 198.525 309.858ZM206.51 311.123C207.549 311.123 208.362 310.645 208.793 309.831H208.909V311H210.386V300.664H208.909V304.752H208.793C208.396 303.952 207.528 303.446 206.51 303.446C204.623 303.446 203.434 304.93 203.434 307.281V307.295C203.434 309.626 204.644 311.123 206.51 311.123ZM206.934 309.858C205.689 309.858 204.944 308.888 204.944 307.295V307.281C204.944 305.688 205.689 304.718 206.934 304.718C208.164 304.718 208.93 305.695 208.93 307.281V307.295C208.93 308.881 208.171 309.858 206.934 309.858ZM213.12 311H214.597V304.745H216.23V303.576H214.583V302.865C214.583 302.113 214.904 301.717 215.725 301.717C215.957 301.717 216.155 301.73 216.292 301.751V300.664C216.039 300.623 215.752 300.596 215.417 300.596C213.872 300.596 213.12 301.32 213.12 302.797V303.576H211.896V304.745H213.12V311Z" fill="#474D66"/>
<path d="M96.9434 332H102.416V331.051H98.4082V330.957L100.33 328.971C101.859 327.395 102.275 326.691 102.275 325.725V325.713C102.275 324.348 101.145 323.346 99.668 323.346C98.0508 323.346 96.8906 324.424 96.8848 325.924L96.8965 325.93L97.9043 325.936L97.9102 325.924C97.9102 324.928 98.584 324.266 99.5977 324.266C100.594 324.266 101.197 324.934 101.197 325.824V325.836C101.197 326.574 100.881 327.014 99.8027 328.18L96.9434 331.273V332ZM107.016 332.199C108.885 332.199 110.01 330.494 110.01 327.775V327.764C110.01 325.045 108.885 323.346 107.016 323.346C105.146 323.346 104.033 325.045 104.033 327.764V327.775C104.033 330.494 105.146 332.199 107.016 332.199ZM107.016 331.279C105.803 331.279 105.094 329.932 105.094 327.775V327.764C105.094 325.607 105.803 324.271 107.016 324.271C108.229 324.271 108.949 325.607 108.949 327.764V327.775C108.949 329.932 108.229 331.279 107.016 331.279ZM111.879 332H112.863V325.543H112.928L115.6 332H116.49L119.162 325.543H119.227V332H120.211V323.545H118.986L116.092 330.6H115.998L113.104 323.545H111.879V332ZM122.367 332H125.666C127.465 332 128.531 331.115 128.531 329.633V329.621C128.531 328.508 127.799 327.717 126.645 327.57V327.477C127.459 327.33 128.104 326.533 128.104 325.66V325.648C128.104 324.359 127.154 323.545 125.602 323.545H122.367V332ZM125.379 324.477C126.428 324.477 127.037 324.975 127.037 325.83V325.842C127.037 326.732 126.387 327.189 125.109 327.189H123.422V324.477H125.379ZM125.408 328.098C126.756 328.098 127.447 328.596 127.447 329.568V329.58C127.447 330.553 126.779 331.068 125.508 331.068H123.422V328.098H125.408Z" fill="#696F8C"/>
<path fill-rule="evenodd" clip-rule="evenodd" d="M610.581 312.522H601.405C601.207 312.522 601.052 312.678 601.052 312.875C601.052 313.073 601.207 313.228 601.405 313.228H601.758V320.287C601.758 320.675 602.075 320.993 602.464 320.993H609.522C609.911 320.993 610.228 320.675 610.228 320.287V313.228H610.581C610.779 313.228 610.934 313.073 610.934 312.875C610.934 312.678 610.779 312.522 610.581 312.522ZM604.581 318.875C604.581 319.263 604.264 319.581 603.875 319.581C603.487 319.581 603.169 319.263 603.169 318.875V314.64C603.169 314.252 603.487 313.934 603.875 313.934C604.264 313.934 604.581 314.252 604.581 314.64V318.875ZM606.699 318.875C606.699 319.263 606.381 319.581 605.993 319.581C605.605 319.581 605.287 319.263 605.287 318.875V314.64C605.287 314.252 605.605 313.934 605.993 313.934C606.381 313.934 606.699 314.252 606.699 314.64V318.875ZM608.816 318.875C608.816 319.263 608.499 319.581 608.111 319.581C607.722 319.581 607.405 319.263 607.405 318.875V314.64C607.405 314.252 607.722 313.934 608.111 313.934C608.499 313.934 608.816 314.252 608.816 314.64V318.875ZM610.228 310.405H607.405C607.405 310.016 607.087 309.699 606.699 309.699H605.287C604.899 309.699 604.581 310.016 604.581 310.405H601.758C601.369 310.405 601.052 310.722 601.052 311.11V311.816H610.934V311.11C610.934 310.722 610.616 310.405 610.228 310.405Z" fill="#8F95B2"/>
<rect x="32.5" y="282.5" width="605" height="65" rx="3.5" stroke="#D8DAE5"/>
<rect x="8.5" y="6.5" width="653" height="365" rx="3.5" stroke="#EDEFF5"/>
</g>
<path d="M16.4795 45H18.0107V35.1357H16.4795L13.8818 36.9814V38.4854L16.3633 36.7148H16.4795V45Z" fill="#D14343"/>
<path d="M14.0664 71H20.7109V69.6943H16.1514V69.5576L18.2432 67.4727C20.0342 65.6953 20.5537 64.834 20.5537 63.7129V63.6924C20.5537 62.0654 19.2002 60.8965 17.3613 60.8965C15.3789 60.8965 13.9844 62.168 13.9775 63.9727L13.9912 63.9863H15.4268L15.4336 63.9658C15.4336 62.8857 16.1719 62.1611 17.2793 62.1611C18.3594 62.1611 19.0225 62.8721 19.0225 63.8359V63.8564C19.0225 64.6562 18.6465 65.1621 17.3408 66.5225L14.0664 69.9609V71Z" fill="#D14343"/>
<path d="M54.5391 117.185C56.6309 117.185 58.1143 115.968 58.1143 114.272V114.259C58.1143 112.878 57.1436 112.003 55.6943 111.873V111.839C56.8975 111.586 57.7725 110.766 57.7725 109.542V109.528C57.7725 108.004 56.4873 106.951 54.5254 106.951C52.5977 106.951 51.2852 108.052 51.1348 109.713L51.1279 109.788H52.5635L52.5703 109.72C52.666 108.79 53.4316 108.209 54.5254 108.209C55.6396 108.209 56.2822 108.77 56.2822 109.727V109.74C56.2822 110.656 55.5166 111.319 54.3887 111.319H53.2334V112.509H54.4365C55.749 112.509 56.5557 113.131 56.5557 114.245V114.259C56.5557 115.229 55.7422 115.906 54.5391 115.906C53.3154 115.906 52.4883 115.277 52.3926 114.382L52.3857 114.313H50.9229L50.9297 114.396C51.0596 116.029 52.4336 117.185 54.5391 117.185Z" fill="#D14343"/>
<path d="M18.5918 317H20.0684V315.038H21.4287V313.739H20.0684V307.136H17.8877C16.5273 309.18 15.0781 311.511 13.7793 313.739V315.038H18.5918V317ZM15.249 313.767V313.671C16.2607 311.941 17.4639 310.021 18.5234 308.428H18.6123V313.767H15.249Z" fill="#D14343"/>
<defs>
<filter id="filter0_d_542_25504" x="0" y="0" width="670" height="382" filterUnits="userSpaceOnUse" color-interpolation-filters="sRGB">
<feFlood flood-opacity="0" result="BackgroundImageFix"/>
<feColorMatrix in="SourceAlpha" type="matrix" values="0 0 0 0 0 0 0 0 0 0 0 0 0 0 0 0 0 0 127 0" result="hardAlpha"/>
<feOffset dy="2"/>
<feGaussianBlur stdDeviation="4"/>
<feColorMatrix type="matrix" values="0 0 0 0 0 0 0 0 0 0 0 0 0 0 0 0 0 0 0.12 0"/>
<feBlend mode="normal" in2="BackgroundImageFix" result="effect1_dropShadow_542_25504"/>
<feBlend mode="normal" in="SourceGraphic" in2="effect1_dropShadow_542_25504" result="shape"/>
</filter>
</defs>
</svg>
