<svg width="80" height="16" viewBox="0 0 80 16" fill="none" xmlns="http://www.w3.org/2000/svg">
<path d="M0.108291 6.24766C0.0866367 6.21306 0.072435 6.17449 0.0665544 6.13434C0.0606738 6.09418 0.0632381 6.05328 0.0740904 6.01412C0.503445 4.35293 1.464 2.86899 2.81597 1.77827C3.8729 0.92779 5.13659 0.35841 6.4847 0.125251C7.83281 -0.107907 9.21968 0.0030538 10.5111 0.447392C10.5498 0.460958 10.5853 0.482008 10.6156 0.509286C10.6458 0.536564 10.6701 0.569512 10.687 0.606165C10.7184 0.680991 10.7184 0.764881 10.687 0.839707L10.2932 1.86535C10.2671 1.9384 10.2124 1.99832 10.1411 2.03196C10.0698 2.06561 9.98777 2.07023 9.91299 2.0448C8.89909 1.6992 7.81118 1.61478 6.75418 1.79967C5.69718 1.98455 4.70676 2.43252 3.87843 3.10035C2.82874 3.95911 2.08321 5.1198 1.74811 6.41699C1.73146 6.48091 1.69357 6.53761 1.64039 6.57821C1.58721 6.61881 1.52174 6.641 1.45425 6.6413H1.38585L0.305843 6.38752C0.266022 6.3783 0.228535 6.36127 0.195658 6.33745C0.162781 6.31364 0.1352 6.28354 0.114591 6.24898" fill="#52BD95"/>
<path d="M15.7847 8.7963C15.7597 8.76488 15.7285 8.73872 15.6929 8.71937C15.6574 8.70002 15.6182 8.68789 15.5777 8.68371L14.4729 8.57068C14.3946 8.56339 14.3164 8.58601 14.2547 8.63381C14.1931 8.68161 14.1527 8.75087 14.1422 8.82709C13.9454 10.2942 13.2266 11.6467 12.1117 12.6478C11.2534 13.4262 10.1885 13.9533 9.03854 14.1691C7.88856 14.3849 6.69969 14.2807 5.60738 13.8682C5.57083 13.8542 5.53181 13.8474 5.49256 13.8481C5.4533 13.8488 5.41457 13.8571 5.37859 13.8724C5.3426 13.8878 5.31007 13.9099 5.28285 13.9376C5.25562 13.9653 5.23424 13.9979 5.21993 14.0336L4.78927 15.0597C4.77303 15.0965 4.76465 15.1362 4.76465 15.1763C4.76465 15.2163 4.77303 15.256 4.78927 15.2928C4.80416 15.3304 4.82707 15.3645 4.85648 15.3928C4.88588 15.4211 4.92111 15.4429 4.95983 15.4569C5.88309 15.8125 6.86681 15.9944 7.8592 15.993C9.86567 15.993 11.798 15.2519 13.2692 13.9184C14.6871 12.6333 15.5965 10.9011 15.8378 9.02588C15.8434 8.98607 15.8408 8.94554 15.8299 8.90676C15.8191 8.86798 15.8003 8.83175 15.7748 8.80026" fill="#52BD95"/>
<path d="M9.68493 10.2887V9.18345C9.68541 9.10389 9.65363 9.02739 9.59653 8.97068C9.53943 8.91397 9.46168 8.88167 9.38028 8.88086H0.347337C0.266329 8.88225 0.189148 8.9148 0.132536 8.97144C0.0759245 9.02809 0.0444476 9.10427 0.0449338 9.18345V10.2887C0.0445778 10.3281 0.0521789 10.3672 0.0673022 10.4038C0.0824255 10.4404 0.104774 10.4736 0.13307 10.5017C0.161366 10.5298 0.195053 10.5522 0.232205 10.5676C0.269358 10.583 0.309245 10.591 0.349587 10.5913H9.38028C9.42062 10.591 9.46051 10.583 9.49766 10.5676C9.53481 10.5522 9.5685 10.5298 9.59679 10.5017C9.62509 10.4736 9.64744 10.4404 9.66256 10.4038C9.67769 10.3672 9.68529 10.3281 9.68493 10.2887Z" fill="#52BD95"/>
<path d="M6.20986 5.17041V6.27566C6.20913 6.35476 6.24041 6.43094 6.29688 6.48761C6.35335 6.54428 6.43044 6.57686 6.51136 6.57825H15.5434C15.5837 6.5779 15.6235 6.5698 15.6606 6.55441C15.6977 6.53901 15.7314 6.51663 15.7596 6.48853C15.7879 6.46043 15.8102 6.42717 15.8253 6.39064C15.8404 6.35412 15.848 6.31505 15.8476 6.27566V5.17041C15.8457 5.09257 15.8129 5.01851 15.7561 4.96392C15.6994 4.90932 15.6231 4.87848 15.5434 4.87793H6.51001C6.42909 4.87932 6.352 4.91189 6.29553 4.96857C6.23906 5.02524 6.20778 5.10142 6.20851 5.18052" fill="#52BD95"/>
<path d="M12.8118 1.50648C12.6287 1.50346 12.4487 1.55359 12.2948 1.65053C12.1408 1.74747 12.0196 1.88687 11.9467 2.05109C11.8738 2.21531 11.8523 2.39699 11.885 2.57314C11.9177 2.74929 12.0031 2.912 12.1305 3.04069C12.2578 3.16939 12.4213 3.25829 12.6004 3.29615C12.7794 3.33401 12.9659 3.31913 13.1363 3.25339C13.3067 3.18766 13.4533 3.07402 13.5576 2.92684C13.6619 2.77967 13.7192 2.60557 13.7222 2.42657C13.7222 2.42173 13.7222 2.41645 13.7222 2.41161C13.7237 2.17371 13.6286 1.94493 13.458 1.77531C13.2873 1.60569 13.0548 1.50903 12.8114 1.50648" fill="#52BD95"/>
<path d="M2.75863 12.4503C2.57548 12.4473 2.39552 12.4974 2.24153 12.5944C2.08753 12.6913 1.96641 12.8307 1.89347 12.9949C1.82054 13.1592 1.79907 13.3408 1.83178 13.517C1.8645 13.6931 1.94992 13.8558 2.07726 13.9845C2.20459 14.1132 2.36812 14.2021 2.54715 14.24C2.72618 14.2779 2.91268 14.263 3.08306 14.1972C3.25344 14.1315 3.40005 14.0179 3.50434 13.8707C3.60864 13.7235 3.66593 13.5494 3.66899 13.3704V13.355C3.67007 13.1173 3.57499 12.8889 3.40447 12.7194C3.23395 12.5499 3.0018 12.4532 2.75863 12.4503Z" fill="#52BD95"/>
<path d="M34.0009 7.21684H30.2658C30.3167 6.77305 30.535 6.36371 30.878 6.06875C31.2211 5.77379 31.6643 5.61438 32.1212 5.62164C33.1913 5.62164 33.9077 6.2321 33.9995 7.21684H34.0009ZM32.1068 4.0625C30.2937 4.0625 28.4167 5.57062 28.4167 8.09603C28.3967 8.64696 28.4891 9.19627 28.6887 9.71188C28.8883 10.2275 29.191 10.6991 29.5791 11.0991C29.9359 11.4449 30.3594 11.7179 30.8251 11.9024C31.2908 12.0868 31.7893 12.179 32.2917 12.1735C33.0441 12.1952 33.7837 11.9801 34.4016 11.56C35.0195 11.1398 35.4831 10.5369 35.7239 9.83989C35.7362 9.81103 35.7425 9.7801 35.7425 9.74885C35.7425 9.71761 35.7362 9.68667 35.7239 9.65781C35.7109 9.6289 35.6918 9.60299 35.6678 9.58177C35.6439 9.56056 35.6156 9.5445 35.5849 9.53466L34.5193 9.16786C34.459 9.14813 34.3933 9.15211 34.336 9.17896C34.2787 9.2058 34.2343 9.25341 34.2124 9.31168C34.092 9.70807 33.8375 10.0528 33.4905 10.2894C33.1436 10.5261 32.7248 10.6407 32.3025 10.6144C31.7624 10.624 31.2402 10.4251 30.8492 10.0607C30.4582 9.69635 30.23 9.196 30.2141 8.66823H35.5502C35.6108 8.66845 35.6692 8.64641 35.7139 8.60648C35.7585 8.56656 35.7862 8.51167 35.7914 8.45272C35.8052 8.324 35.8123 8.19467 35.8126 8.06524C35.8126 5.59613 34.3933 4.06294 32.1077 4.06294" fill="#52BD95"/>
<path d="M42.761 7.93736C42.761 9.27835 41.9582 10.1804 40.767 10.1804C39.5182 10.1804 38.742 9.32145 38.742 7.93736C38.742 6.55326 39.529 5.69123 40.767 5.69123C41.9582 5.69123 42.761 6.59373 42.761 7.93736ZM44.2172 4.29614H42.9608C42.8961 4.29976 42.835 4.32665 42.7894 4.37164C42.7438 4.41663 42.7168 4.47653 42.7137 4.5398V4.99632C42.2444 4.4448 41.5019 4.1576 40.5492 4.1576C40.0589 4.15051 39.5726 4.24538 39.1226 4.43593C38.6726 4.62648 38.2692 4.90835 37.9392 5.26285C37.2824 6.00416 36.9297 6.95692 36.9492 7.93736C36.9492 10.1171 38.4634 11.7017 40.5514 11.7017C40.9552 11.7148 41.357 11.6409 41.7284 11.4853C42.0997 11.3297 42.4315 11.0963 42.7002 10.8014V11.3991C42.7002 12.9385 42.0185 13.6734 40.5514 13.6734C40.0887 13.6845 39.6384 13.5263 39.2888 13.2299C38.9392 12.9334 38.7155 12.52 38.6614 12.0707C38.6519 12.0075 38.617 11.9506 38.5645 11.9125C38.512 11.8744 38.4462 11.8582 38.3815 11.8675C38.375 11.8683 38.3685 11.8695 38.3622 11.8711L37.1341 12.153C37.075 12.1695 37.0238 12.2057 36.9892 12.2554C36.9547 12.3051 36.9391 12.365 36.9451 12.4248C37.189 14.0838 38.6713 15.2453 40.5496 15.2453C41.8997 15.2453 42.9297 14.8376 43.6065 14.0327C44.2001 13.2651 44.5023 12.3196 44.4615 11.3582V4.54111C44.4586 4.47832 44.4321 4.41877 44.3871 4.37384C44.3421 4.3289 44.2818 4.30171 44.2176 4.29746" fill="#52BD95"/>
<path d="M54.6856 4.06273C54.193 4.04161 53.7032 4.1461 53.2644 4.36594C52.8256 4.58578 52.4528 4.91341 52.1827 5.31664C51.9585 4.92541 51.6289 4.6017 51.2297 4.38064C50.8305 4.15958 50.3769 4.04963 49.9183 4.06273C49.5191 4.05752 49.1234 4.13506 48.7571 4.29024C48.3908 4.44543 48.0624 4.67473 47.7934 4.96303V4.52321C47.7904 4.45999 47.7635 4.40009 47.718 4.3551C47.6724 4.3101 47.6114 4.28319 47.5468 4.27956H46.3372C46.273 4.28381 46.2127 4.311 46.1677 4.35593C46.1227 4.40087 46.0962 4.46041 46.0933 4.52321V11.8017C46.0962 11.8645 46.1227 11.924 46.1677 11.969C46.2127 12.0139 46.273 12.0411 46.3372 12.0454H47.594C47.6586 12.0416 47.7196 12.0147 47.7651 11.9697C47.8106 11.9247 47.8375 11.8649 47.8406 11.8017V7.39388C47.8406 6.34756 48.4859 5.64518 49.4435 5.64518C50.7036 5.64518 50.8894 6.62464 50.8894 7.20652V11.8017C50.8924 11.8649 50.9193 11.9248 50.9648 11.9698C51.0104 12.0148 51.0714 12.0417 51.136 12.0454H52.4082C52.4728 12.0417 52.5338 12.0148 52.5794 11.9698C52.6249 11.9248 52.6518 11.8649 52.6548 11.8017V7.37849C52.6548 6.35284 53.3082 5.64518 54.2298 5.64518C55.4898 5.64518 55.6752 6.62464 55.6752 7.20652V11.8017C55.6783 11.8649 55.7052 11.9247 55.7507 11.9697C55.7963 12.0147 55.8572 12.0416 55.9218 12.0454H57.1787C57.2433 12.0417 57.3043 12.0148 57.3499 11.9698C57.3954 11.9248 57.4223 11.8649 57.4253 11.8017V7.0517C57.4253 5.00041 56.0478 4.06097 54.6834 4.06097" fill="#52BD95"/>
<path d="M60.4682 7.21685C60.519 6.7727 60.7375 6.36306 61.081 6.06804C61.4245 5.77301 61.8682 5.61384 62.3254 5.62164C63.396 5.62164 64.1124 6.2321 64.2042 7.21685H60.4682ZM62.3047 4.0625C60.4921 4.0625 58.6147 5.57062 58.6147 8.09604C58.594 8.64703 58.6861 9.19653 58.8857 9.71223C59.0853 10.2279 59.3884 10.6995 59.777 11.0991C60.1332 11.4443 60.556 11.717 61.0207 11.9014C61.4855 12.0859 61.9831 12.1784 62.4847 12.1736C63.2374 12.1956 63.9775 11.9808 64.5957 11.5606C65.214 11.1404 65.6778 10.5372 65.9187 9.8399C65.9291 9.81024 65.9333 9.77884 65.9311 9.74756C65.9288 9.71629 65.9202 9.68577 65.9057 9.65781C65.8927 9.62883 65.8737 9.60285 65.8497 9.58162C65.8257 9.56039 65.7974 9.54438 65.7666 9.53467L64.7014 9.16786C64.6412 9.14881 64.5757 9.15311 64.5186 9.17988C64.4615 9.20664 64.4171 9.25383 64.3945 9.31168C64.2737 9.70782 64.0191 10.0523 63.6723 10.2889C63.3254 10.5254 62.9068 10.6402 62.4847 10.6144C61.9459 10.622 61.4256 10.4222 61.0363 10.058C60.6469 9.6939 60.4198 9.19469 60.4039 8.66823H65.7405C65.8009 8.66785 65.8589 8.64561 65.9035 8.6058C65.948 8.56599 65.9759 8.51145 65.9817 8.45272C65.9957 8.32402 66.0028 8.19468 66.0029 8.06525C66.0029 5.59613 64.5835 4.06294 62.2984 4.06294" fill="#52BD95"/>
<path d="M71.3437 4.0627C70.9311 4.05357 70.5218 4.13588 70.1465 4.30346C69.7711 4.47104 69.4395 4.71953 69.1764 5.03029V4.51922C69.1733 4.45649 69.1467 4.39705 69.1018 4.35215C69.0569 4.30725 68.9966 4.28001 68.9325 4.27557H67.6914C67.6268 4.27939 67.566 4.30636 67.5205 4.35132C67.475 4.39628 67.448 4.45606 67.4448 4.51922V11.8017C67.4478 11.8649 67.4747 11.9248 67.5202 11.9698C67.5658 12.0148 67.6268 12.0417 67.6914 12.0453H68.9613C69.026 12.0416 69.0869 12.0146 69.1324 11.9697C69.1779 11.9247 69.2048 11.8648 69.2079 11.8017V7.57945C69.19 7.09371 69.3335 6.61536 69.617 6.21602C69.7584 6.04021 69.9401 5.8994 70.1475 5.80496C70.3549 5.71052 70.5822 5.66512 70.8109 5.67241C71.8603 5.67241 72.4138 6.25693 72.4138 7.40572V11.7981C72.4169 11.8614 72.4439 11.9213 72.4895 11.9663C72.5351 12.0113 72.5961 12.0382 72.6608 12.0418H73.933C73.9972 12.0375 74.0575 12.0104 74.1025 11.9654C74.1474 11.9205 74.1739 11.8609 74.1769 11.7981V7.1603C74.2101 6.37257 73.9615 5.59812 73.474 4.97003C73.2123 4.67123 72.8845 4.43448 72.5155 4.27768C72.1464 4.12087 71.7457 4.04811 71.3437 4.06489" fill="#52BD95"/>
<path d="M79.7126 5.90375C79.745 5.90347 79.777 5.89695 79.8068 5.88457C79.8366 5.87219 79.8636 5.8542 79.8863 5.83161C79.909 5.80903 79.9269 5.78229 79.939 5.75294C79.9511 5.72359 79.9572 5.69219 79.9569 5.66054V4.54253C79.957 4.4775 79.9318 4.41487 79.8864 4.36728C79.8411 4.31969 79.779 4.29068 79.7126 4.28612H78.3329V2.18073C78.333 2.11531 78.3075 2.05232 78.2617 2.00465C78.2159 1.95698 78.1531 1.92824 78.0863 1.92432H76.9397C76.8728 1.92814 76.81 1.95685 76.7642 2.00454C76.7183 2.05223 76.6929 2.11528 76.6931 2.18073V3.29346C76.6931 4.16781 76.0631 4.29623 75.6856 4.29623H75.3755C75.3087 4.30006 75.2458 4.32876 75.2 4.37645C75.1541 4.42414 75.1287 4.4872 75.1289 4.55265V5.67593C75.132 5.73908 75.1589 5.79887 75.2045 5.84377C75.25 5.88868 75.3109 5.91553 75.3755 5.91915H76.5694V9.86296C76.5694 11.266 77.427 12.135 78.8099 12.135C79.1378 12.1399 79.4648 12.0985 79.7805 12.0119C79.8318 11.9969 79.8766 11.9661 79.9083 11.9241C79.9401 11.882 79.957 11.831 79.9565 11.7788V10.7232C79.956 10.6885 79.9483 10.6543 79.9338 10.6226C79.9193 10.591 79.8984 10.5625 79.8723 10.539C79.8452 10.5162 79.8133 10.4995 79.7788 10.4901C79.7444 10.4808 79.7082 10.479 79.673 10.4849C79.527 10.5063 79.3796 10.5184 79.232 10.5209C78.584 10.5209 78.332 10.2645 78.332 9.64394V5.90375H79.7126Z" fill="#52BD95"/>
<path d="M27.4601 9.78121C27.4601 8.61702 26.5655 7.78093 25.0018 7.4735L23.6009 7.21709C22.8426 7.07591 22.6824 6.68624 22.6824 6.38145C22.6824 5.92492 23.186 5.453 24.0257 5.453C25.2299 5.453 25.6007 6.12987 25.7074 6.53274C25.715 6.55732 25.7278 6.58006 25.745 6.59946C25.7622 6.61886 25.7834 6.63449 25.8073 6.64533C25.8638 6.66734 25.9267 6.66734 25.9832 6.64533L27.2554 6.23499C27.2768 6.22998 27.2971 6.22088 27.3149 6.20821C27.3327 6.19555 27.3478 6.17956 27.3593 6.16117C27.3708 6.14277 27.3785 6.12234 27.3819 6.10105C27.3853 6.07975 27.3844 6.05801 27.3791 6.03707C27.218 5.54284 26.9104 5.10646 26.4953 4.78316C25.8806 4.30376 25.0517 4.06055 24.0257 4.06055C22.3125 4.06055 20.8617 5.17855 20.8617 6.49888C20.8617 7.58346 21.7167 8.41691 23.0893 8.67068L24.5612 8.9504C25.225 9.08234 25.6106 9.40693 25.6106 9.84806C25.6106 10.2892 25.1777 10.7756 24.2251 10.7756C23.2018 10.7756 22.4907 10.3165 22.3256 9.54723C22.319 9.52223 22.3069 9.49895 22.2901 9.47903C22.2733 9.45912 22.2523 9.44306 22.2284 9.432C22.1955 9.41437 22.1584 9.40557 22.1208 9.40649C22.0975 9.40253 22.0736 9.40253 22.0502 9.40649L20.7384 9.80804C20.6965 9.81845 20.66 9.84356 20.6357 9.87859C20.6115 9.91362 20.6013 9.95613 20.607 9.99804C20.787 10.7981 21.7482 12.1531 24.2017 12.1531C26.3167 12.1531 27.4547 10.9216 27.4547 9.76054" fill="#52BD95"/>
</svg>
