<?xml version="1.0" encoding="utf-8"?>
<!-- Generator: Adobe Illustrator 27.0.0, SVG Export Plug-In . SVG Version: 6.00 Build 0)  -->
<svg version="1.1" xmlns="http://www.w3.org/2000/svg" xmlns:xlink="http://www.w3.org/1999/xlink" x="0px" y="0px"
	 viewBox="0 0 151.6 36.3" style="enable-background:new 0 0 151.6 36.3;" xml:space="preserve">
<style type="text/css">
	.st0{fill:#121C2D;}
	.st1{fill:#25C365;}
</style>
<g id="Segment">
	<g>
		<g>
			<g>
				<g>
					<g>
						<path class="st0" d="M41.6,29v-3.5c2.2,1.6,4.6,2.3,6.9,2.3c1.8,0,2.9-0.8,2.9-2.5s-1.5-2-3.6-2.3c-3.7-0.6-6.5-1.3-6.5-5.4
							c0-4,2.8-6.1,6.9-6.1c2.7,0,5.1,0.8,6.4,1.6v3.3c-1.8-1.2-4.3-1.9-6.5-1.9c-1.8,0-3,0.8-3,2.5c0,1.6,1.4,2,3.5,2.3
							c3.6,0.6,6.6,1.3,6.6,5.3c0,4.1-2.7,6.2-6.7,6.2C45.5,31,43.3,30.2,41.6,29z"/>
						<path class="st0" d="M56.9,23.6v-0.4c0-4.4,2.9-7.3,6.7-7.3c4,0,6.4,2.3,6.4,7v1.5h-9.4c0.2,2.3,1.9,3.6,4.7,3.6
							c1.5,0,2.8-0.4,4.2-1v2.8c-1.1,0.6-2.7,1.1-5,1.1C59.9,31,56.9,28.5,56.9,23.6z M60.6,22.2h5.8c-0.1-2.4-1.2-3.5-2.8-3.5
							C61.8,18.6,60.8,20,60.6,22.2z"/>
						<path class="st0" d="M70.9,33.7c0-1.3,1.2-2.4,3.8-3c-2.2-0.3-2.9-1.1-2.9-2.1c0-1.2,1-2.2,3.4-2.9c-2.2-0.7-3.3-2.3-3.3-4.4
							c0-3.2,2.9-5,6.1-5h7.8v2.9h-2.4c0.4,0.5,0.7,1.3,0.7,2c0,3-2.6,4.9-6.1,4.9h-0.6c-0.9,0-2.2,0.4-2.2,1.2
							c0,0.5,0.5,0.7,1.8,0.7h3.7c3.1,0,4.9,0.9,4.9,3.4c0,3-2.8,5-8.2,5h-0.8C74.1,36.3,70.9,35.8,70.9,33.7z M81.9,32.1
							c0-1-0.8-1.2-2.3-1.2h-2.1c-1.8,0-3,0.7-3,1.7s1.2,1.3,2.8,1.3h0.9C80.5,33.8,81.9,33.2,81.9,32.1z M80.5,21.3
							c0-1.5-0.8-2.6-2.5-2.6c-1.7,0-2.5,1.1-2.5,2.6c0,1.5,0.8,2.6,2.5,2.6C79.8,23.9,80.5,22.7,80.5,21.3z"/>
						<path class="st0" d="M87.5,16.3h3.6v3.2c1.1-2.1,2.8-3.6,5.1-3.6c2.2,0,3.5,1.5,3.7,3.6c1.2-2.2,2.8-3.6,5-3.6
							c2.6,0,4.2,1.6,4.2,5.2v9.5h-3.8v-8.6c0-2-0.7-3.1-2.3-3.1c-1.1,0-1.9,0.7-2.3,1.4c-0.3,0.5-0.5,1.2-0.5,1.8l-0.1,8.5h-3.7
							v-8.5c0-2.2-0.7-3.2-2.3-3.2c-1.2,0-1.9,0.7-2.3,1.4c-0.3,0.5-0.5,1.1-0.5,1.8v8.5h-3.8V16.3z"/>
						<path class="st0" d="M111.4,23.6v-0.4c0-4.4,2.9-7.3,6.7-7.3c4,0,6.4,2.3,6.4,7v1.5h-9.4c0.2,2.3,1.9,3.6,4.7,3.6
							c1.5,0,2.8-0.4,4.2-1v2.8c-1.1,0.6-2.7,1.1-5,1.1C114.3,31,111.4,28.5,111.4,23.6z M115.1,22.2h5.8c-0.1-2.4-1.2-3.5-2.8-3.5
							C116.3,18.6,115.2,20,115.1,22.2z"/>
						<path class="st0" d="M126.9,16.3h3.6v3.2c1.1-2.2,2.7-3.6,5.1-3.6c2.7,0,4.2,1.7,4.2,5.2v9.5h-3.8V22c0-1.9-0.8-3-2.4-3
							c-1.1,0-2,0.5-2.4,1.4c-0.4,0.5-0.5,1.1-0.5,1.8v8.4h-3.8V16.3z"/>
						<path class="st0" d="M144,26.6v-7.3h-2.6v-2.8l1.1,0c0.9,0,1.7-0.3,1.8-1.9l0.2-2.8h3.4v4.5h3.7v2.9h-3.8V26
							c0,1.5,0.8,2,2.2,2c0.4,0,1.1-0.1,1.4-0.2v2.6c-0.5,0.2-1.7,0.5-2.9,0.5C145.3,31,144,29.6,144,26.6z"/>
					</g>
				</g>
			</g>
		</g>
	</g>
	<g>
		<g>
			<g>
				<g>
					<g>
						<path class="st0" d="M43.4,2.4h-1.6V1.2h4.8v1.2h-1.7v4.8h-1.5V2.4z"/>
						<path class="st0" d="M48,1.2h1.5l0.9,4.5l0.9-4.5h1.8l0.9,4.5L55,1.2h1.5l-1.3,6h-2l-0.9-4.3l-0.9,4.3h-2L48,1.2z"/>
						<path class="st0" d="M58.2,1.2h1.5v6h-1.5V1.2z"/>
						<path class="st0" d="M62,1.2h1.5v4.7h2.4v1.3H62V1.2z"/>
						<path class="st0" d="M67.7,1.2h1.5v6h-1.5V1.2z"/>
						<path class="st0" d="M71.1,4.2V4.1c0-1.9,1.1-3.1,2.8-3.1c1.6,0,2.7,1.1,2.7,3.1v0.1c0,1.9-1.1,3.1-2.8,3.1
							C72.1,7.3,71.1,6.2,71.1,4.2z M75.1,4.2L75.1,4.2c0-1.4-0.5-2-1.2-2c-0.8,0-1.2,0.5-1.2,1.9v0.1c0,1.4,0.5,1.9,1.2,1.9
							S75.1,5.5,75.1,4.2z"/>
					</g>
				</g>
			</g>
		</g>
	</g>
	<g>
		<path class="st1" d="M28.9,14H13.1c-0.6,0-1.1-0.5-1.1-1.1v-1.9c0-0.6,0.5-1.1,1.1-1.1h15.9c0.6,0,1.1,0.5,1.1,1.1v1.9
			C30,13.5,29.5,14,28.9,14z"/>
		<path class="st1" d="M16.9,22H1.1C0.5,22,0,21.5,0,20.9v-1.9C0,18.5,0.5,18,1.1,18h15.9c0.6,0,1.1,0.5,1.1,1.1v1.9
			C18,21.5,17.5,22,16.9,22z"/>
		<circle class="st1" cx="6" cy="27" r="2"/>
		<circle class="st1" cx="24" cy="5" r="2"/>
		<g>
			<path class="st1" d="M15,28c-1.1,0-2.2-0.2-3.2-0.5c-0.5-0.1-1,0.1-1.2,0.6L9.9,30c-0.2,0.5,0.1,1.1,0.7,1.3
				C12,31.8,13.5,32,15,32c6.5,0,12.1-3.9,14.6-9.5c0.2-0.5,0-1.2-0.6-1.4l-1.9-0.7c-0.5-0.2-1,0-1.2,0.5C24,25.1,19.9,28,15,28z"/>
			<path class="st1" d="M15,4c1.1,0,2.2,0.2,3.2,0.5c0.5,0.1,1-0.1,1.2-0.6L20.1,2c0.2-0.5-0.1-1.1-0.7-1.3C18,0.2,16.5,0,15,0
				C8.5,0,2.9,3.9,0.4,9.5c-0.2,0.5,0,1.2,0.6,1.4l1.9,0.7c0.5,0.2,1,0,1.2-0.5C6,6.9,10.1,4,15,4z"/>
		</g>
	</g>
</g>
<g id="ANNOTATIONS">
</g>
<g id="EXPORT_METHODS">
</g>
<g id="GUIDES">
</g>
</svg>
