<?xml version="1.0" encoding="UTF-8"?>
<svg width="154px" height="32px" viewBox="0 0 154 32" version="1.1" xmlns="http://www.w3.org/2000/svg" xmlns:xlink="http://www.w3.org/1999/xlink">
    <!-- Generator: Sketch 47.1 (45422) - http://www.bohemiancoding.com/sketch -->
    <title>Group</title>
    <desc>Created with Sketch.</desc>
    <defs>
        <polygon id="path-1" points="16 7 23 21 9 21"></polygon>
    </defs>
    <g id="Page-1" stroke="none" stroke-width="1" fill="none" fill-rule="evenodd">
        <g id="Artboard-2" transform="translate(-33.000000, -66.000000)">
            <g id="Group" transform="translate(33.000000, 66.000000)">
                <path d="M50.7689186,19.8027344 L45.0208717,19.8027344 L45.0208717,16.6035156 L50.4437233,16.6035156 L50.4437233,14.5644531 L45.0208717,14.5644531 L45.0208717,11.5058594 L50.7689186,11.5058594 L50.7689186,9.31738281 L42.3665748,9.31738281 L42.3665748,22 L50.7689186,22 L50.7689186,19.8027344 Z M60.6882545,22 L64.9509498,9.31738281 L62.0593483,9.31738281 L59.1589577,19.2666016 L59.0974342,19.2666016 L56.1970436,9.31738281 L53.2263405,9.31738281 L57.4890358,22 L60.6882545,22 Z M75.9952858,19.8027344 L70.2472389,19.8027344 L70.2472389,16.6035156 L75.6700905,16.6035156 L75.6700905,14.5644531 L70.2472389,14.5644531 L70.2472389,11.5058594 L75.9952858,11.5058594 L75.9952858,9.31738281 L67.5929421,9.31738281 L67.5929421,22 L75.9952858,22 L75.9952858,19.8027344 Z M81.9155983,11.3916016 L81.9155983,15.4345703 L84.2007546,15.4345703 C85.5366921,15.4345703 86.3189186,14.6699219 86.3189186,13.4130859 C86.3189186,12.1826172 85.4927468,11.3916016 84.1743874,11.3916016 L81.9155983,11.3916016 Z M81.9155983,17.359375 L81.9155983,22 L79.2613015,22 L79.2613015,9.31738281 L84.4556374,9.31738281 C87.3736061,9.31738281 89.043528,10.8554688 89.043528,13.3603516 C89.043528,14.9863281 88.199778,16.3925781 86.7407936,16.9638672 L89.4126686,22 L86.4068093,22 L84.0425515,17.359375 L81.9155983,17.359375 Z M103.471653,16.6738281 L103.471653,15.2412109 L98.127903,15.2412109 L98.127903,17.1748047 L100.887669,17.1748047 L100.87888,17.3769531 C100.826145,18.9501953 99.6220437,20.0136719 97.8905984,20.0136719 C95.7812234,20.0136719 94.4452859,18.3349609 94.4452859,15.5839844 C94.4452859,12.8857422 95.7021218,11.2949219 97.7939187,11.2949219 C99.2265359,11.2949219 100.307591,12.0859375 100.694309,13.4130859 L103.357395,13.4130859 C102.979466,10.8466797 100.747044,9.09765625 97.7851296,9.09765625 C94.0585671,9.09765625 91.7382546,11.5585938 91.7382546,15.6191406 C91.7382546,19.7412109 94.0585671,22.2197266 97.846653,22.2197266 C101.379856,22.2197266 103.471653,20.1279297 103.471653,16.6738281 Z M109.224973,11.3916016 L109.224973,15.4345703 L111.51013,15.4345703 C112.846067,15.4345703 113.628294,14.6699219 113.628294,13.4130859 C113.628294,12.1826172 112.802122,11.3916016 111.483762,11.3916016 L109.224973,11.3916016 Z M109.224973,17.359375 L109.224973,22 L106.570677,22 L106.570677,9.31738281 L111.765012,9.31738281 C114.682981,9.31738281 116.352903,10.8554688 116.352903,13.3603516 C116.352903,14.9863281 115.509153,16.3925781 114.050169,16.9638672 L116.722044,22 L113.716184,22 L111.351927,17.359375 L109.224973,17.359375 Z M127.845481,19.8027344 L122.097434,19.8027344 L122.097434,16.6035156 L127.520286,16.6035156 L127.520286,14.5644531 L122.097434,14.5644531 L122.097434,11.5058594 L127.845481,11.5058594 L127.845481,9.31738281 L119.443137,9.31738281 L119.443137,22 L127.845481,22 L127.845481,19.8027344 Z M139.513841,19.8027344 L133.765794,19.8027344 L133.765794,16.6035156 L139.188645,16.6035156 L139.188645,14.5644531 L133.765794,14.5644531 L133.765794,11.5058594 L139.513841,11.5058594 L139.513841,9.31738281 L131.111497,9.31738281 L131.111497,22 L139.513841,22 L139.513841,19.8027344 Z M145.319895,22 L145.319895,13.6943359 L145.398997,13.6943359 L151.331614,22 L153.52888,22 L153.52888,9.31738281 L150.988841,9.31738281 L150.988841,17.5791016 L150.918528,17.5791016 L144.9947,9.31738281 L142.779856,9.31738281 L142.779856,22 L145.319895,22 Z" id="Evergreen" fill="#1F4160"></path>
                <g id="Logo-/-Solid-Tree-3">
                    <g>
                        <circle id="Oval" fill="#38A065" cx="16" cy="16" r="16"></circle>
                        <rect id="Rectangle" fill="#FFFFFF" x="15" y="22" width="2" height="4"></rect>
                        <g id="Triangle">
                            <use fill="#FFFFFF" fill-rule="evenodd" xlink:href="#path-1"></use>
                            <path stroke="#FFFFFF" stroke-width="1.5" d="M16,8.67705098 L10.2135255,20.25 L21.7864745,20.25 L16,8.67705098 Z"></path>
                        </g>
                    </g>
                </g>
            </g>
        </g>
    </g>
</svg>